<svg xmlns="http://www.w3.org/2000/svg" viewBox="0 0 1059.5 724.48">
  <title>cykel_lys</title>
  <g id="Layer_8" data-name="Layer 8">
    <g>
      <path d="M805.16,48.94a16.67,16.67,0,0,0-3.06.57c-2.17.54-4.32.83-6.48,1.37-3.83,1-7.52,1.74-11.28,2.59-2.19.49-4.34,1.25-6.51,1.93-1.2.38-1.66-.85-2.83-.4s-1.91-.32-3,0-2.83.65-4,1c-1,.3-6.08,1.49-7,2-2.37,1.32.23,5.06,1.4,7.76,1.7,3.93,5.42,3.7,9,2.48,3.09-1,6.2-2.21,9.36-3,3.88-1,7.61-2.26,11.48-3.23a27.56,27.56,0,0,0,4.67-1.57,24.11,24.11,0,0,1,5-1.17c2,0,4.48.07,6.24,1,2.05,1.08,1.67,2.87,1.67,4.81s0,3.61,0,5.41c0,2.09-.56,13.2-.64,16.75a40.09,40.09,0,0,1-.69,5.24c-.42,1.52-2.1,3.17-3.2,4.26a60.6,60.6,0,0,0-4.85,4.9,19.72,19.72,0,0,1-2,2.56c-.77.67-1.76,1-2.55,1.56-3.74,2.8-1.93,6.42-1,10,.5,1.94,2.41,9.33,2.94,11.06,1.11,3.58,2.8,7,3.64,10.59,2.5,4.56,10.84,25.36,12,28.57,1.25,3.43,7.41,18.55,8,19.91.85,2.08.64,4.19.62,6.42,0,2.74.66,5.17.65,7.94,0,1.59-.64,5.14.57,6.33s2.67.47,3.95-.05,9.19-3.67,11.63-5c1.77-1,6.46-1.94,6.54-4.66.06-2.26-3.21-4.46-4.25-6.12-.79-1.26-.45-2.39-1.63-3.6-1-1-1.88-1.19-3.12-1.9-2.05-1.17-2.29-3.71-2.78-5.85s-11.6-30.34-12.51-32.62c-.82-2-1.53-4.28-2.42-6.29-2-4.41-3.59-9.14-5.81-13.41a48.76,48.76,0,0,1-2.79-6.84c-.69-2,.17-4.27.8-6.23a25.67,25.67,0,0,1,5.22-8.75,19.84,19.84,0,0,1,3.37-3.36c1.35-.91,2-2.28,3.37-3.09,1.91-1.15,5.06-1.38,6.19-3.49,1-1.94,2-4.3,2.89-6.32,2.09-4.66,9.6-25,10.09-27.14a26.6,26.6,0,0,1,1.38-4.06c.47-1.18.66-2.36,1.1-3.56a54.06,54.06,0,0,0,1.79-5.68,24.55,24.55,0,0,0-.35-11.9c-.77-2.4-1-3.67-3.85-6.09-1.92-1-3.93-1.49-5.83-2.31-3.16-1.35-7.3-1.27-11.58-1.15-3.72-.12-8.23.51-12.32.51a21.41,21.41,0,0,0-5.8.5c-1.79.48-4,.14-5.81.14l-.65,1.29c.59,3.39,2.91,6.67,4.38,9.71.55,1.14,1,3.9,2.37,4.44,1.09.42,3.77-1.45,4.74-1.89a21.12,21.12,0,0,1,5-1.26,21.58,21.58,0,0,1,4.87-.66c1.5,0,8.21-.5,9.36,0,2.59,1.15,1.72,6.94.94,9-1.09,3-.61,6.3-1.35,9.37s-1.76,6.28-2.68,9.36c-.79,2.62-1.77,6.94-3.89,8.69-1.24-2.1-1.56-10.25-1.78-11.77a18.63,18.63,0,0,0-1.26-4.69c-2.83-6.92-7.76-9.57-9.36-10-1.15-.31-3-1.14-4.22-1" transform="translate(-154 -22.02)"/>
      <circle cx="860.25" cy="525.23" r="199.25"/>
      <circle cx="858" cy="526.98" r="178.5" fill="#fff" stroke="#000" stroke-miterlimit="10"/>
      <circle cx="199.25" cy="522.23" r="199.25"/>
      <circle cx="197" cy="523.98" r="178.5" fill="#fff" stroke="#000" stroke-miterlimit="10"/>
      <g>
        <path d="M906.5,379.5c-6,3-25.58,19-30.52,24.6-2.3,2.61-12,12.68-14.49,15.24-4.68,4.87-8,10.41-11.41,16.18-1.8,3.05-4.1,5.71-5.92,8.74-2.36,3.93-12.66,21.24-15.95,28.32-2.36,5.08-5.54,10.63-6.87,16-1.51,6.1-3.5,12.75-4.84,18.88-1.16,5.32-1.45,9.83-3,15-1.35,4.52-3,25-3,30.11a202.65,202.65,0,0,0,6.86,57.07c.82,2.06,1.29,4.25,2.07,6.32.9,2.39,3.09,11.5,5.09,13.5.74,2.88,6.55,15.76,8.28,19.65,1.58,3.57,5.7,9.15,2.13,12.36-2.57,2.3-6.77,5.49-10,6.62-1.64-.88-8.38-19.72-9.64-22.48-1-2.13-10-30.76-10.48-33.61-7.26-25.54-8.09-50.84-8.26-55.54-1-28,7-55.05,7-57,2-8,16-46,37.12-73.63.88-1.39,18.88-29.37,39.16-46.9,0,0,36.72-29.47,75.22-41,15-6,29.5-8.5,45-10,3-1,7,0,10,1s3,6,3,9c-1,3-2,8-6,8-26,0-68.5,16.5-100.5,33.5" transform="translate(-154 -22.02)" fill="#67d3e5"/>
        <path d="M905.74,378.2c-5,2.65-9.55,6.45-14,10a170.35,170.35,0,0,0-15.41,13.36c-8.89,9-18.33,18.15-25,29-7.8,12.64-16,24.92-22.84,38.14a116.07,116.07,0,0,0-9.71,23.84c-2.6,9.84-4.43,19.75-6.75,29.64-2.41,10.34-3,21.58-3.08,32.18a210.12,210.12,0,0,0,3.58,41.2c2.69,14.16,7.35,27.43,12.88,40.62,2.34,5.56,4.78,11.08,7.41,16.51,1.52,3.15,2.42,5.9,0,8.73a20.62,20.62,0,0,1-6.11,4.31c-2.16,1.05-.27,1.65-1.67,0a14.83,14.83,0,0,1-1.68-3.63,348.89,348.89,0,0,1-19.57-59.95,231.46,231.46,0,0,1-5.86-49.42c-.15-17.38,3.31-34,6.7-50.92,2-9.81,6.37-19.38,10.43-28.46,7.43-16.63,16.56-31.79,26.9-46.73,13.53-19.55,27.7-38.84,47.26-52.77,30.81-21.95,66.48-39.05,104.34-43.61,4.47-.54,10.44-2.16,14.71-.18,5,2.34,4.07,12.88-1.26,14.48-3.16.95-7.61.36-11,.81-3.78.5-7.53,1.19-11.26,2-18.29,4-36,10.76-53.1,18.31q-13.2,5.82-25.94,12.57c-1.7.91-.19,3.5,1.52,2.6,23.42-12.38,48.25-23.22,74-29.58A132.36,132.36,0,0,1,998.61,348c3.59-.39,9,.57,12-1.86,4.64-3.78,6-15.22.13-18.43-5-2.7-11.1-1.22-16.3-.61a186.55,186.55,0,0,0-20.22,3.36,224.38,224.38,0,0,0-38.68,13.17,266.71,266.71,0,0,0-53.24,31.52c-14.19,10.67-25.6,25.27-35.9,39.61-11.32,15.75-22,31.83-30.4,49.37-6,12.55-11.74,25.51-14.81,39.12-4.65,20.64-7.23,41.34-5.72,62.5,1.61,22.62,6.76,44.25,13.54,65.79,1.87,6,3.77,11.86,6,17.68,1.59,4.07,3.12,8.16,4.79,12.2,1,2.34,1.9,6.12,4,7.78a1.49,1.49,0,0,0,1.46.39c3.91-1.6,10.76-5.1,12.25-9.45,1.41-4.14-2.09-8.8-3.72-12.32-2.13-4.62-4.18-9.31-6.11-14-1.47-3.58-3.31-7.08-4.53-10.73A210.12,210.12,0,0,1,812,553.78a197.1,197.1,0,0,1,2.17-26.69,267.59,267.59,0,0,1,9.1-39.7c3.61-11.58,10.68-22.72,16.77-33.16,2.23-3.83,4.4-7.75,6.89-11.42,4.47-6.58,8.29-13.83,13.42-19.92a254,254,0,0,1,20-21.07c8-7.55,17.08-15.87,26.9-21,1.71-.9.19-3.49-1.52-2.6Z" transform="translate(-154 -22.02)"/>
      </g>
      <g>
        <path d="M323.16,345.57c6.54-1.49,31.81-1.57,39.2-.38,3.43.56,17.34,2.15,20.87,2.57,6.7.79,12.78,3,19.08,5.25,3.33,1.21,6.8,1.81,10.13,3,4.32,1.53,23.27,8.36,30.31,11.74,5,2.43,11,4.7,15.49,8,5,3.76,10.8,7.62,15.73,11.51,4.27,3.37,7.36,6.67,11.84,9.68,3.91,2.63,18.21,17.41,21.45,21.34a202.87,202.87,0,0,1,31,48.44c.67,2.12,1.69,4.1,2.41,6.2.83,2.41,4.92,10.84,4.64,13.66,1.27,2.69,5,16.34,6.09,20.44,1,3.76,1.4,10.68,6.2,10.89,3.44.15,8.72-.06,12-1.25.7-1.72-6-20.55-6.84-23.49-.61-2.26-11.84-30.08-13.25-32.61-10.61-24.34-26-44.42-28.89-48.15-17-22.27-40.4-38.05-41.6-39.59-6.63-4.91-41.58-25.37-75.44-33.3-1.56-.51-33.23-10.7-60-11.35,0,0-47.08.55-84.12,16.12-15.4,4.89-28.19,12.16-41.12,20.85-2.95,1.13-5.4,4.44-7.08,7.12s1.49,6.54,3.39,8.86c2.68,1.68,6.63,4.91,9.72,2.37,20.08-16.51,63.39-30.76,98.91-37.95" transform="translate(-154 -22.02)" fill="#67d3e5"/>
        <path d="M323.55,347c9.74-2,20.61-1.38,30.48-1,8.82.35,17.61,1.86,26.37,2.89a94.72,94.72,0,0,1,20.66,5.22c5.23,1.83,10.61,3.15,15.84,5.05,10.71,3.89,21.25,8,31.58,12.83,13.78,6.42,25,17.36,37,26.53,7.4,5.67,14.1,13.13,20.19,20.16A204.16,204.16,0,0,1,540,475.43c4,9.62,6.53,19.8,9.31,29.86,1.09,3.93,1.26,9.73,4.51,12.62,3.7,3.3,11.85,1.56,16.09.23a1.47,1.47,0,0,0,1-1c.44-2.14-.61-4.69-1.19-6.7-1.23-4.27-2.67-8.49-4.07-12.71-1.61-4.85-3.31-9.61-5.2-14.37-6.72-16.89-13.73-33.52-23.22-49.09-17.53-28.74-41.51-54.5-71.13-70.93-20.3-11.26-41.39-19.08-63.59-25.61-19.06-5.61-39.31-11.05-59.32-11-15.34.05-31,2.19-46,5.07-25.32,4.86-50.65,13.71-72.56,27.43-8,5-22,13-11.18,23,3.24,3,7.95,5,11.84,2.37,4.78-3.17,9.22-6.59,14.28-9.36,25.78-14.14,55.31-22.34,84-28.2,1.89-.39,1.09-3.28-.79-2.9a381,381,0,0,0-56.76,16,228.58,228.58,0,0,0-24.21,10.5c-3.6,1.85-7.14,3.82-10.55,6-3.69,2.35-7.68,6.75-12.51,5.35-2.27-.65-4.7-3.32-5.6-5.32-1.76-3.91,1.67-7.56,4.62-9.62,4.06-2.82,8.49-5.4,12.76-7.93,9.36-5.55,19.05-9.61,29.22-13.38A249,249,0,0,1,314.63,332a222.68,222.68,0,0,1,28.73-2.3c17.17,0,34.68,4.16,51.14,8.74,14.9,4.15,29.68,8.41,43.92,14.56,13.06,5.64,27,11.89,38.57,20.31a213,213,0,0,1,53.78,56.23,280.32,280.32,0,0,1,31.14,66.25c1.78,5.56,3.79,11.06,5.32,16.7.2.74.94,2.34.76,3.15-.06.26-2,.43-3.67.61-1.9.21-4.57.59-6.48.16-3.07-.71-3.61-3.55-4.24-6.23-1.45-6.12-3.13-12.18-5-18.2-1.51-5-2.72-10.06-4.73-14.91-10.52-25.47-24.27-48.54-43.51-68.36-11.08-11.43-23.5-21.35-36.43-30.61s-27.42-14.84-42.2-20.3c-14.42-5.32-29.11-10.43-44.4-12.23-12.59-1.48-24.76-2.87-37.48-2.67-5.67.09-11.57.07-17.14,1.22-1.89.4-1.09,3.29.79,2.9Z" transform="translate(-154 -22.02)"/>
      </g>
      <g>
        <path d="M497.65,285.26c.14-1.11-.63-2.07-.94-3.1a12.44,12.44,0,0,0-.62-2.51c-1.07-2.17-2-4.43-3-6.63s-1.57-4.42-2.64-6.58a42.75,42.75,0,0,1-2.8-5.93c-.65-2.07-1.54-4-2.26-6.06-.38-1.08-.87-2.1-1.35-3.13-.22-.48-.27-1-.53-1.49a16.31,16.31,0,0,1-1-1.65c-.26-.62-.8-1.07-1-1.65s-.17-1-.34-1.49c-.46-1.36-1-2.7-1.48-4.06-.69-2-1.59-3.9-2.21-5.9a64.71,64.71,0,0,1-1.66-7,13.73,13.73,0,0,0-1.25-3.89,8.33,8.33,0,0,1-1.26-3.05,27.09,27.09,0,0,1,0-2.85c0-1.62.66-1.88,1.92-2.75s2.5-2.2,4-2.25c1.3,0,2.23-.12,3.15.89a10.85,10.85,0,0,1,1.8,3c.28.63.27,1.31.55,2a11.68,11.68,0,0,1,1.11,2.57c.51,2.75,2.08,5.39,3.14,8,.38.95.77,1.88,1.2,2.81.35.77.89,1.41,1.26,2.16s.43,1.62.89,2.38a6.75,6.75,0,0,1,.83,1.68,7.4,7.4,0,0,0,.53,1.45c.66,1.25,1.18,2.44,1.79,3.69,1.17,2.44,1.79,5.16,2.92,7.62s2.32,4.94,3.34,7.53c1.64,4.15,3.1,8.36,4.33,12.65a36.68,36.68,0,0,0,1.66,4.83c.3.66.84,1.11,1.12,1.79s.33,1.56,1,2.14" transform="translate(-154 -22.02)" fill="#67d3e5"/>
        <path d="M499.15,285.26c-.61-5.73-4.1-11.5-6.18-16.77-2.32-5.9-4.79-11.94-7.43-17.72a146.26,146.26,0,0,1-6.65-16.09c-1-3.17-1.4-6.49-2.35-9.68s-3.59-6.69.34-8.85c1.8-1,4.2-1,5.47.75a15,15,0,0,1,1.06,3c1.18,3,2.24,6,3.56,9,2.15,4.86,4.36,9.67,6.6,14.49,2.91,6.31,5.67,13.08,8.05,19.6,2.22,6.08,3.42,12.68,6.91,18.19,1,1.63,3.63.13,2.59-1.51-4.32-6.81-5.61-15.53-8.74-22.94-2.77-6.56-5.52-13.09-8.32-19.64-1.18-2.77-2.6-5.38-3.82-8.15-1.75-4-2.93-8.17-4.64-12.15-1.54-3.57-4.13-6.3-8.24-4.58s-6.39,4.84-5.53,9.28c.39,2,1.65,3.66,2.23,5.63s.76,3.83,1.23,5.71c1,3.87,2.66,7.45,3.92,11.21,2.07,6.16,5,12.3,7.6,18.35,1.56,3.69,3.32,7.29,4.87,11s4,7.8,4.47,11.85c.2,1.91,3.2,1.93,3,0Z" transform="translate(-154 -22.02)"/>
      </g>
      <path d="M824.06,210.05a22.14,22.14,0,0,0,5-1.45c2.18-.7,4.42-1.13,6.57-1.92a32,32,0,0,0,4.61-2c.87-.49,2.45-2,3.44-2.1l-.76-2.79c-3.56,1.67-7.11,3.29-10.75,4.82-1.39.58-1.46,3.11.4,2.94,2.88-.26,6.66-2.07,9.06-3.66a1.51,1.51,0,0,0-1.16-2.74,12.3,12.3,0,0,0-3.28,1.45,1.5,1.5,0,0,0,1.52,2.59,14.15,14.15,0,0,1,2.56-1.15l-1.16-2.74c-1.88,1.25-5.32,3.05-7.54,3.25l.4,2.95c3.88-1.62,7.66-3.34,11.47-5.12,1.3-.61.71-3-.76-2.8-2.68.34-4.68,2.47-7.15,3.53a48.21,48.21,0,0,1-6.44,2c-1.83.5-4.12,1.74-6,1.91s-1.92,3.18,0,3Z" transform="translate(-154 -22.02)" fill="#022951"/>
      <g>
        <path d="M824.12,208.53c-1,1.94-2.69,2.42-4.58,3.31-1.31.62-3.14,1-3.2,2.61-.12,3.23,0,6.49,0,9.72v10.17c0,3.55-.9,12.47-.93,13.25a13.73,13.73,0,0,1-.47,2.6c-.43,2.29-1.22,13.45-1.32,16.8-.08,2.36-1.33,9.31-1.38,10.52a31,31,0,0,1-.7,4.13c-.71,4.17-1.92,8.18-2.5,12.33-.22,1.64-.72,3.15-1,4.78-.16,1.07-.74,2-.89,3.1s-.58,1.94-.81,3-.19,2.24-.44,3.37c-.2.94-.42,1.85-.57,2.79a17.91,17.91,0,0,1-.7,2.27,29.66,29.66,0,0,1-.66,3,30.84,30.84,0,0,0-1.74,6.32,19.2,19.2,0,0,1-.55,3.25c-.33,1-5.52,12.59-6.27,14.73a9.22,9.22,0,0,1-1.51,2.73,18.91,18.91,0,0,0-1.53,3.64c-.85,2.08-1.4,4.25-2.21,6.35-1.41,3.65-3.46,7-5.19,10.48a16,16,0,0,1-2,2.62c-.67.86-1.21,1.85-1.83,2.76a31.48,31.48,0,0,0-2.83,5.14,40.2,40.2,0,0,1-4.05,5.57c-.86.77-5.62,7.49-6.36,8.48a13,13,0,0,1-2.63,2.84c-1.06.79-1.5,1.92-2.49,2.74-1.16.95-2,2.16-3.21,3.11-2,1.67-7.56,8.14-8.59,9.27s-6.91,7.75-9.6,9.66a31,31,0,0,0-3.18,3.2,69.31,69.31,0,0,1-5.75,5.09c-1.23.75-2.23,1.5-3.39,2.35a18,18,0,0,0-2.92,3A41.37,41.37,0,0,1,722,432.8a16.54,16.54,0,0,1-1.52,1.25c-.61.4-1.36.43-1.92.94a4.12,4.12,0,0,1-.76.62c-.27.15-.56.24-.83.39a7,7,0,0,0-1.63.89A11.5,11.5,0,0,1,713.7,438c-1.11.76-2.3,1.36-3.37,2.17-.65.48-1.23,1.09-1.91,1.52a8.85,8.85,0,0,0-.95.65c-.28.22-.56.39-.83.62s-.62.39-.88.63-.45.76-.76,1.1a10,10,0,0,1-4.07,2.14,6.07,6.07,0,0,0-1.51,1c-.46.32-.92.63-1.4.9-.83.46-1.69.88-2.56,1.31a7.42,7.42,0,0,0-.7.44,3.57,3.57,0,0,1-.8.31c-.32.11-.63.29-1,.42l-2.06.82c-.4.16-.81.29-1.19.47s-.53.35-.83.48-.68.17-1,.29a9.83,9.83,0,0,1-1.18.44,6.74,6.74,0,0,0-1.79.82c-1.46.85-2.92,1.69-4.41,2.5a8.83,8.83,0,0,1-1.39.57c-.61.21-1.16.54-1.75.79-.83.34-1.65.62-2.45,1-.42.19-.86.36-1.28.54a5.1,5.1,0,0,0-.87.35,3.15,3.15,0,0,1-.81.43,12.6,12.6,0,0,0-2,1c-.56.27-1,.69-1.57.94s-.94.53-1.4.78a4.86,4.86,0,0,1-.77.43,3.81,3.81,0,0,0-.9.35c-.91.56-2,.79-2.88,1.4a14.07,14.07,0,0,1-1.49.78c-.41.22-.95.27-1.28.62H660c-.33,0-.51.27-.77.43s-.63.33-.94.51a10.11,10.11,0,0,1-2.09.89,9.81,9.81,0,0,0-1.5.51,8.26,8.26,0,0,1-1,.43c-.92.28-1.81.7-2.69,1.06-1.17.48-2.31,1.11-3.42,1.69a34.44,34.44,0,0,1-3.25,1.81,26.83,26.83,0,0,0-2.84,1.08c-.42.22-.86.35-1.27.56a8.26,8.26,0,0,0-1.12.85,13.24,13.24,0,0,1-4.48,2.18,6.13,6.13,0,0,0-1.6.63c-.28.16-.53.38-.81.54-.47.27-1,.37-1.47.62a9.33,9.33,0,0,1-1,.52,13.26,13.26,0,0,0-1.28.58c-.41.21-.8.31-1.22.48-.72.29-1.37.75-2.08,1-.35.14-.73.26-1.06.43a7.89,7.89,0,0,1-.81.44c-.72.22-1.48.33-2.2.57a10.75,10.75,0,0,1-1.47.43c-.35.07-.77.06-1.11.15a2.46,2.46,0,0,0-.56.34,8.72,8.72,0,0,1-.87.42c-.62.27-1.3.47-1.94.69a15.74,15.74,0,0,0-1.65.51c-.3.14-.59.16-.9.28s-.61.4-1,.54a14.76,14.76,0,0,1-2.35.7,24.81,24.81,0,0,1-5.77.54,10.22,10.22,0,0,1-4-.5,6.84,6.84,0,0,1-1.71-1.05,7.86,7.86,0,0,1-1-.83,4.64,4.64,0,0,0-.71-.76,6.52,6.52,0,0,1-1-1.2c-.19-.24-.44-.42-.62-.67s-.23-.67-.4-1a8.77,8.77,0,0,1-.54-.81c-.07-.17-2.15-4-2.34-4.36-.09-.17-.17-.36-.27-.53-.3-.61-.58-1.24-.84-1.87s-.8-1.44-1.1-2.22c-.24-.6-.39-1.26-.68-1.84-.15-.29-.26-.61-.41-.9a6.05,6.05,0,0,0-.51-.65,11.8,11.8,0,0,1-1-1.69,4.05,4.05,0,0,1-.33-.81c-.07-.32-2.68-4.57-3.11-5.56-.78-1.8-1.36-3.8-2.29-5.52-.53-1-.9-2-1.4-3s-2.66-6.41-3.5-8.22c-.42-.91-.85-1.82-1.28-2.73a36.48,36.48,0,0,1-1.35-3.75c-.86-2.47-1.77-4.91-2.64-7.38-1.67-4.72-3.86-9.16-5.41-13.93-.69-2.13-1.27-4.2-2.07-6.29s-1.52-4.24-2.4-6.32c-1.49-3.54-5.55-13.05-6-14.41-.33-1-2.14-4.83-2.4-5.91-.19-.8-1.9-5.24-2.47-6.79-.47-1.28-1.09-2.44-1.52-3.72a33,33,0,0,0-2-4.42c-.59-1.14-.94-2.37-1.5-3.5-1.66-3.35-3.44-6.59-4.95-10-.57-1.28-.89-2.66-1.49-3.94-.18-.38-.53-.79-.66-1.17s0-.78-.14-1.1c-.19-.69-.69-1.24-.94-1.91s-.47-1.63-.83-2.43c-1.48-3.27-2.55-6.8-3.79-10.15-1-2.72-1.88-5.46-2.85-8.21-.64-1.81-1.49-3.53-2.13-5.35-.7-2-1.16-4.07-2-6a14.58,14.58,0,0,1-.44-2.75c-.12-.54-.37-1.09-.54-1.61-.54-1.7-1.18-3.32-1.68-5-.55-1.88-1.51-3.49-2.21-5.24-.56-1.39-.95-2.78-1.48-4.16a7.83,7.83,0,0,1-.64-2.12,6.4,6.4,0,0,0-.74-2c-.62-1.47-1.05-3-1.71-4.44a47.26,47.26,0,0,0-3.81-7.55,8.72,8.72,0,0,0-1.87-2.27c-.68-.46-.83-.16-1.55.13-1.22.5-2.29,1.21-3.51,1.75-1.49.67-2.7,1.71-4.16,2.31-1.13.46-2.82,1.9-4.06,1.75l-.74.74a81.4,81.4,0,0,0,3.85,8c.3.53.39,1.15.65,1.71.37.75,1,1.26,1.33,2,.24.53.28,1.14.52,1.67.37.84,1.08,1.28,1.4,2.13.6,1.62,1.3,3.18,2,4.77.49,1.11,1.2,2.21,1.61,3.34s.74,2.43,1.19,3.62c.57,1.48,1.34,2.89,2,4.32,2.26,5,4.28,10.18,6.22,15.37,1,2.71,6.56,14.52,7.21,15.9,1,2.18,6.37,13.78,7,15.32.51,1.26,4.8,13.53,5.63,16.36a47.24,47.24,0,0,0,2.84,8.08,41.77,41.77,0,0,1,1.58,4.07c.56,1.44,1.25,2.8,1.85,4.22a32.44,32.44,0,0,1,1.55,4.71c.48,1.9,1.39,3.74,2,5.6.42,1.29,4.61,15,5,16,.67,1.7,1.46,3.37,2.14,5.07,1.25,3.11,2.44,6.28,3.41,9.48a82.77,82.77,0,0,0,3.58,9.89c.81,1.79,2,3.3,2.75,5.14.32.76.68,1.51,1,2.28s2.23,5,2.69,5.88a26.57,26.57,0,0,1,1.83,4.42c.26.79.32,1.53.64,2.31a20.45,20.45,0,0,1,1,2.4,16.75,16.75,0,0,0,.92,2.69c.43,1,.62,2,1.08,3,.85,1.8,1.51,3.68,2.42,5.44A44.2,44.2,0,0,1,577,487c.25.74.28,1.56.52,2.3a19.77,19.77,0,0,0,1.32,2.89c.89,1.69,1.36,3.49,2.3,5.14s1.79,3.48,2.6,5.17a11.34,11.34,0,0,1,.35,1.13c.18.5.48.91.65,1.43.46,1.38,1.19,2.61,1.66,4,1.2,3.41,2.6,6.75,3.86,10.13.84,2.24,1.67,4.55,2.67,6.72,1.27,2.78,2.32,5.63,3.71,8.34a32.39,32.39,0,0,1,1.44,4.3c.76,2.19,1.84,4.27,2.63,6.45,1.15,3.12,2.87,6,4,9.09s2.69,6.17,3.78,9.35a31.27,31.27,0,0,0,1.37,3.09c.27.59.51,1.19.83,1.75.86,1.52,1.32,3.14,2.13,4.68,1.23,2.29,2.83,4.31,4,6.58.44.82,1.09,1.52,1.57,2.29.81,1.3,2,2.15,2.89,3.35a20.11,20.11,0,0,0,5.79,5.19,6.47,6.47,0,0,0,3,.73,50.3,50.3,0,0,0,5.21,0c2.89-.25,5.57-1.72,8.12-3a11.6,11.6,0,0,0,3.25-2.31,14.86,14.86,0,0,1,1.24-1.38c.52-.42,1.16-.69,1.68-1.08.87-.65,1.58-1.5,2.39-2.22a46.44,46.44,0,0,0,3.53-3.34,21.24,21.24,0,0,1,2.65-2.63,9.68,9.68,0,0,0,1.43-1.65c.59-.69,1.34-1,1.93-1.7s1.17-1.49,1.89-2.2c.94-.94,2-1.87,2.89-2.88s1.48-1.79,2.29-2.65c.61-.66,1.06-1.43,1.67-2.08s1.12-1,1.58-1.53.82-1.56,1.36-2.27c.35-.44.78-.75,1.14-1.16.75-.86,1.42-1.94,2.1-2.87s1.4-1.47,2-2.29c.87-1.13,1.53-2.38,2.4-3.52,1.67-2.17,4-3.78,5.34-6.16a43.7,43.7,0,0,1,6-8c2.27-2.41,4.22-5,6.23-7.65.62-.8,1.41-1.41,2.09-2.14s1-1.41,1.55-2c.82-.78,1.94-1.21,2.58-2.21s2.77-3.64,3.34-4.32a34.51,34.51,0,0,1,3-3.14c1-1,2.18-1.68,3.14-2.73a29.8,29.8,0,0,1,3.12-3.43,27.48,27.48,0,0,0,3.25-2.95c.83-.93,1.76-1.72,2.55-2.67.43-.52,1-.85,1.42-1.35s.7-1.54,1.19-2.21a34.88,34.88,0,0,1,3.52-3.57c.88-.87,1.75-1.8,2.54-2.75s1.33-2.32,2.43-3.15,1.52-1.85,2.57-2.57a39.31,39.31,0,0,0,4.64-3.87c.6-.71,1.3-1.38,2-2s1.51-1.66,2.31-2.46a19.57,19.57,0,0,1,1.88-1.76,9.75,9.75,0,0,0,1.74-1.83,12.1,12.1,0,0,1,1.06-1.09c.27-.28.48-.6.74-.9.75-.86,1.44-1.75,2.26-2.57,1.51-1.51,3.06-2.91,4.64-4.33.32-.29.66-.52,1-.82s.83-.84,1.26-1.23c.93-.83,1.73-1.8,2.66-2.63.15-.13.32-.2.47-.33a9,9,0,0,0,.73-.78c.35-.39.74-.74,1.11-1.11a19.3,19.3,0,0,0,1.82-2c.43-.56.86-1.13,1.3-1.69a9,9,0,0,0,.77-1A9.26,9.26,0,0,1,771,451c.66-.67,1.3-1.34,1.95-2a12.47,12.47,0,0,1,1.12-1.29,5.23,5.23,0,0,0,1.07-1.18,7.18,7.18,0,0,1,.82-.93c.35-.34.6-.74.93-1.1s.63-.75,1-1.12.94-.86,1.34-1.36.9-.89,1.31-1.4a8,8,0,0,1,1.76-1.33c.49-.35.84-.83,1.32-1.2a13.79,13.79,0,0,0,1.74-2,9,9,0,0,1,2.15-2.17c.59-.34,1-.88,1.57-1.26s1-.56,1.51-.92c.8-.63,1.53-1.29,2.34-1.88a28.72,28.72,0,0,0,2.35-2.18c.41-.39.68-.9,1.13-1.27a6.61,6.61,0,0,0,1-1c.35-.41.76-.78,1.14-1.15s.7-.83,1.07-1.24c.93-1,2-1.91,2.88-3s1.79-2.21,2.74-3.27c.3-.33.7-.53,1-.85s.29-.39.49-.58a5.3,5.3,0,0,0,.48-.47c.36-.45.67-.95,1-1.41s.7-.71,1-1.12a18,18,0,0,1,1.24-1.53c.7-.85,1.35-1.76,2-2.61s1.23-1.58,1.85-2.37a9.41,9.41,0,0,1,1.3-1.38c.43-.36.75-.76,1.15-1.15.77-.76,1.55-1.58,2.39-2.27.34-.28.7-.51,1-.81a19,19,0,0,0,1.47-1.63c.7-.82,1.39-1.64,2.16-2.4s1.61-1.46,2.37-2.25a24.29,24.29,0,0,1,2.49-2.26,13.5,13.5,0,0,0,1.23-1.28,32,32,0,0,1,3-3c.3-.23.66-.35,1-.59s.34-.43.53-.61l2.43-2.37c0-.48.77-1.08,1.09-1.4a7.82,7.82,0,0,0,.63-.66,8.67,8.67,0,0,1,.89-.93c.54-.53,1.09-1.1,1.6-1.65.23-.25.53-.41.78-.65a12.42,12.42,0,0,0,.93-1.11,15.08,15.08,0,0,1,1.42-1.23c.55-.5,1-1.24,1.49-1.8,1-1.12,2-2.25,3-3.34s2.28-2.29,3.42-3.43a29.91,29.91,0,0,1,2.2-2.16c.71-.56,1.31-1.23,2.06-1.74s1.31-1.07,2-1.55,1.13-1,1.74-1.49a32.4,32.4,0,0,0,3.69-2.89,45.08,45.08,0,0,1,3.61-3,7.39,7.39,0,0,0,1.87-1.87A10.84,10.84,0,0,1,871,350.8c.29-.29.49-.63.76-.94s.7-.67,1-1c.57-.58,1.08-1.24,1.67-1.83.26-.26.51-.52.78-.77a3.88,3.88,0,0,0,.64-1,11.13,11.13,0,0,1,2.17-2.61c.83-.79,2.44-1.42,3.49-.69a4,4,0,0,1,.8.63,5.82,5.82,0,0,1,.45.94,13.79,13.79,0,0,1,.78,1.86c.21.61,6.64,15.37,6.91,16.13.54,1.54,9.83,19.37,10.88,21.79s2,4.77,3.12,7.1c.3.64,1.73,3.22,2.13,4,.7,1.27,7.07,13.5,7.77,14.67a17.19,17.19,0,0,1,1,1.92,16.58,16.58,0,0,0,1.25,2.9c1.49,2.09,5.83,12.57,7.09,15.25,1.42,3,3.06,6,4.32,9,.47,1.15.73,2.43,1.21,3.59a44.14,44.14,0,0,0,1.59,4.14c.36.68.57,1.39.92,2.06s.73,1.2,1,1.83c.66,1.42,1.27,3,1.79,4.43a33.38,33.38,0,0,0,1.62,4.13c.72,1.41,1.39,2.92,2,4.4,1.37,3.38,3.61,6.39,5,9.76a57.18,57.18,0,0,0,3.48,5c1.21,1.67,2.1,3.63,3.33,5.32,1,1.33,8.28,10.64,9.25,11.8.58.69,5.73,5.5,6.62,6.6a10.72,10.72,0,0,0,1.64,1.59c.91.71,1.49,1.6,2.32,2.34,1.43,1.28,2.85,2.65,4.33,3.9.75.63,7,7.31,8.28,9a38.21,38.21,0,0,0,4,4.15c.92.91,1.63,1.95,2.5,2.9a22.88,22.88,0,0,1,2,2.24c.53.76,1.07,1.5,1.63,2.24.78,1,1.75,1.88,2.54,2.9a44.23,44.23,0,0,0,3.55,3.83c1.52,1.57,2.91,3.33,4.33,5,2.67,3.1,6.05,5.4,8.41,8.76,2,2.8,4.53,5,6.71,7.58a4.85,4.85,0,0,0,2.13,1.24c.55.26.88.77,1.47.91a6.56,6.56,0,0,0,4.77-1.56,8,8,0,0,0,1.56-8c-1.26-2.88-4-4.12-6.94-4.73-1.4-.29-2.6.24-3.81-.81-1.05-.89-20.84-26.62-23.07-29.56-.57-.74-1-1.57-1.62-2.3s-1.38-1.19-1.87-2.1a39.85,39.85,0,0,0-3.08-4.39c-.57-.77-3.76-4.25-4.59-5.49-1.61-2.42-10.73-14.66-13.54-18.53a109.56,109.56,0,0,1-7-10.71c-1.15-2.07-5.74-9.21-6.32-11.06-.78-2.47-6.14-12.73-7.37-15.65-2.09-5-4-10.08-6.18-15.05-1.21-2.79-2.57-5.49-3.83-8.25-1.11-2.43-2-5-3.1-7.39a60.93,60.93,0,0,1-2.77-5.9,11.07,11.07,0,0,0-1.29-2.43,21.93,21.93,0,0,1-1.48-3.76c-.84-2.1-1.87-4.12-2.77-6.2s-1.55-4-2.37-6c-.68-1.61-3.49-7.9-3.49-7.9C919.5,375.5,916.5,369.5,913,362a301.33,301.33,0,0,1-16-31c-10-24-22-46-29-71-7-21-17-39-24.24-59.23" transform="translate(-154 -22.02)" fill="#67d3e5"/>
        <path d="M822.82,207.78c-1.7,2.44-4.86,2.33-6.8,4.28s-1.24,4.88-1.22,7.25c.05,6.75.27,13.53-.21,20.27-.66,9-1.88,18-2.45,27.07-.8,12.55-4.28,24.88-7,37.08-1.39,6.27-3.26,12.62-4.38,18.93-.84,4.7-3.12,8.9-5,13.28-1.66,3.87-3.7,7.51-5.11,11.46a102.15,102.15,0,0,1-10.8,21.06c-4.78,7.5-9.43,15.26-15.64,21.73-6.62,6.9-13,14.11-19.69,20.92-3.55,3.61-7.29,7.24-11.13,10.53s-7.92,6.83-12,9.75c-4.45,3.16-9.34,5.65-13.73,9a73,73,0,0,1-16.09,9.75c-11,4.47-22.44,9.49-32.68,15.52a1.51,1.51,0,0,0,.76,2.79H660l-.75-2.79c-4.61,2.56-9.78,4.43-14.51,6.78-5.2,2.58-10.39,5.17-15.69,7.52-3.9,1.73-7.83,3.1-11.8,4.46-5.86,2-14.45,6.53-19.71,1.15-4.81-4.91-6.81-12.71-10.09-18.6-4.24-7.59-7.35-15.7-10.94-23.62-5.66-12.5-9.17-26-14.36-38.68-2.83-6.92-6.05-13.73-8.54-20.78-3.58-10.12-8.84-19.38-12.8-29.31-4.33-10.86-8.39-21.91-12.32-32.95-2.18-6.11-3.35-12.4-5.81-18.44-2.29-5.59-3.95-11.35-6.42-16.87-1.33-2.94-3.58-9.81-7.81-9-2.81.52-6,3-8.46,4.4-1.76,1-3.67,1.3-5.1,2.73a1.56,1.56,0,0,0-.23,1.82c5.73,13,12.29,25.53,17.61,38.8,3.31,8.26,6.76,16.35,10.54,24.42A219.49,219.49,0,0,1,531.58,370c3.83,11,8,21.85,11.73,32.84,2.48,7.3,4.38,15,7.36,22.06,2.92,6.93,4.82,14.21,7.73,21.12,2,4.7,4.44,9.28,6.6,13.93,5.29,11.36,8.51,23.7,13.54,35.15,5.75,13.09,11.06,26.35,16.64,39.52,5.46,12.91,9.92,26.53,16.42,39A56.44,56.44,0,0,0,623,589.05c4.25,3.86,9.9,4.51,15.38,2.91,10.7-3.13,18.82-13.57,26.23-21.33a168.23,168.23,0,0,0,11.16-12.88c4.41-5.65,9.22-11,13.2-17a130.67,130.67,0,0,1,13.66-16.52c3.54-3.71,6.76-8,10.67-11.41a118.51,118.51,0,0,0,12.42-12.23c4.13-4.9,8-10.81,13.11-14.89a129.22,129.22,0,0,0,11.26-10.82c4.67-4.8,9.38-9.47,14.18-14.15,3.65-3.58,6.83-7.6,10.26-11.39,3.28-3.61,6.67-6.83,10.1-10.24,4.27-4.25,9.09-7.8,13.29-12.16,3.89-4,7.88-8.08,11.4-12.44a229,229,0,0,1,25.49-26.62c7.49-6.71,13.32-15.16,20.93-21.78,4.72-4.11,10.22-7.5,14.48-12.09,1.81-1.94,3.6-4,5.35-6a8,8,0,0,1,3.82-2.94c2.73-1.1,2.13-.91,2.94,1,11.89,28.4,27,55.25,39.87,83.17,5.29,11.48,9.66,23.32,15,34.79a129.68,129.68,0,0,0,15.71,24.76c11.48,14.68,26.44,26.14,38,40.79a163.73,163.73,0,0,0,13.18,14.79c4.58,4.51,8.35,10.31,13.32,14.37,3.05,2.49,6.81,3.4,10,.47a9.1,9.1,0,0,0,1.63-10.54,9.26,9.26,0,0,0-4.74-4c-1.79-.76-4.63-.54-6.15-1.51-1.93-1.22-3.58-4.43-5-6.2q-8-10.23-15.91-20.56c-11.66-15.18-24.15-30.18-33.93-46.71-11.85-20-18.88-42.28-29.32-63-5-10-8.87-20.77-13.17-31.15-5.76-13.9-13.81-26.63-20.2-40.25-6.88-14.64-13.42-29.55-19.81-44.42-6.62-15.41-10.93-31.57-17.31-47-6-14.57-13-28.72-18.34-43.54-.66-1.8-3.56-1-2.9.79,5.38,14.83,12.34,29,18.35,43.54,6.08,14.77,10.17,30.19,16.39,44.91,6,14.09,12.41,28,18.58,42,6.27,14.22,14.55,27.38,20.9,41.53,4.58,10.2,8.92,20.77,13,31.19,2.24,5.81,5.31,11.45,7.81,17.18,3.19,7.34,6.44,14.61,9.49,22,7.42,18,17.54,34.1,29.07,49.76,9.54,13,19.45,25.62,29.33,38.35,2.56,3.31,5.12,6.61,7.72,9.89,1.25,1.58,2.45,3.71,4.28,4.66,2.7,1.4,6.12.3,8.42,2.91,3.47,3.94-.14,11-5.13,8.19-3.16-1.76-6-5.88-8.2-8.65a94.11,94.11,0,0,0-6.61-6.79c-8.39-8.51-16-18-23.88-26.95-6.06-6.85-12.9-13-19.45-19.37-14.12-13.76-22.77-32.58-30.22-50.43-7.11-17.05-14.74-33.65-23.41-50-6.68-12.62-13.17-25.73-18.83-38.86-1.52-3.52-3.1-7-4.57-10.59-1-2.36-1.78-5.47-4.93-5.5-4.25,0-8,6.88-10.42,9.62-4.35,4.81-9.45,8.67-14.51,12.74-7.91,6.36-14.1,14.69-21.3,21.77-8.06,7.93-16.79,15.34-23.84,24.22-3.29,4.14-6.69,8.23-10.36,12-4.33,4.48-8.72,8.19-13.42,12.23-7.54,6.48-14.27,14.39-20.67,22C762,459.32,757.18,463,753,467.18c-4.36,4.38-8.3,9.14-12.76,13.45-1.52,1.47-3.31,2.6-4.86,4-2.44,2.23-4.18,5-6.43,7.39-4.06,4.33-7.55,9-12,12.95-18.38,16.33-31.73,37.38-47.61,55.9-3.9,4.54-8,8.84-12.1,13.16-4,4.15-8.47,8.93-13.27,12.08a19.61,19.61,0,0,1-12,3.45c-5.53-.41-8.93-4.4-12.14-8.56-3.86-5-6.71-10.9-9.19-16.67-5.81-13.53-11.36-27.15-17-40.74-2.8-6.76-5.19-13.69-8-20.45-2.43-5.86-5.68-11.27-7.42-17.39s-4.7-12-6.94-18c-1.69-4.52-3.58-8.81-5.48-13.24-2.67-6.21-5.62-12-7.7-18.48-1.69-5.25-4.12-10.2-5.85-15.41-6.2-18.59-12.55-37-19.21-55.47-2.21-6.12-5.23-12-8-17.88-4.24-9-7.83-18.28-11.75-27.46-2.73-6.41-5.24-12.9-8.18-19.22-2.5-5.35-5.51-10.43-7.9-15.87l-.24,1.82c1-1,3.23-1.56,4.5-2.26s6.22-4.43,7.66-4c2,.52,3.72,5.83,4.5,7.59a98.07,98.07,0,0,1,3.62,9.78c1.85,5.75,4.52,11.12,6,17,1.57,6.18,4,12.06,6.11,18.09,6.83,19.7,15.78,38.43,23.62,57.75,8.13,20,15.17,40.47,23.5,60.41,1.75,4.19,3.47,8.49,5.47,12.56,1.62,3.29,3.78,6.32,5.29,9.65,2.58,5.66,5.34,14.37,11.49,17.1,4.7,2.07,10.68.31,15.17-1.41s8.83-2.7,13.06-4.65c6-2.75,11.86-5.63,17.77-8.4,5.26-2.48,10.9-4.65,16-7.48a1.52,1.52,0,0,0-.76-2.8h-.31l.76,2.8c9.71-5.72,20.62-10.36,30.92-14.81,4.55-2,9.44-4,13.53-6.76s7.93-6.48,12.43-9.17c3.64-2.18,7.38-4.23,10.39-7.31,3.74-3.8,8.37-6.55,12.12-10.43s7.74-7.3,11.34-11.28c2.78-3.08,5.4-6.32,8.36-9.23a190.84,190.84,0,0,0,17.41-20.16,38.46,38.46,0,0,0,3.68-5.95c1.85-3.55,4.55-6.52,6.49-10,3.56-6.41,5.42-13.43,8.78-19.87,1.85-3.55,3.22-7.42,4.82-11.11,1.94-4.44,2.58-8.44,4-13.06,2.08-6.81,3.38-13.79,5-20.72a204.55,204.55,0,0,0,4.09-21.07c1.25-10.06,2.13-20.16,3.18-30.23a170.69,170.69,0,0,0,.89-17.8c0-3.68-1.66-13,1.4-15.67,2.06-1.79,4.44-1.82,6.16-4.29,1.1-1.59-1.5-3.09-2.59-1.51Z" transform="translate(-154 -22.02)"/>
      </g>
      <g>
        <path d="M823.27,371.17a8.24,8.24,0,0,0-1.83,1.61,12.27,12.27,0,0,1-1.28,1.11c-.47.41-.8,1-1.24,1.41a8.81,8.81,0,0,1-1.08,1.12,8,8,0,0,0-1.5,1.47c-.38.47-.72,1-1.09,1.47a16.79,16.79,0,0,0-1.4,1.73,5.85,5.85,0,0,1-1.22,1.31c-.48.45-.8,1.07-1.27,1.54s-.86,1.08-1.29,1.61-.43.89-.8,1.27c-.54.55-1,1.16-1.54,1.69a11.91,11.91,0,0,1-1,1.12,4.53,4.53,0,0,0-.81.7,7.18,7.18,0,0,1-.48.7c-.43.44-.87.83-1.33,1.25a9.16,9.16,0,0,0-.69.85c-.19.21-.44.34-.62.57-.35.47-.76.91-1.1,1.39-.77,1.07-1.84,1.88-2.66,2.91a4.11,4.11,0,0,1-.57.68,4,4,0,0,0-.59.5c-.19.22-.43.37-.63.58s-.34.54-.57.76c-.39.37-.84.63-1.21,1s-.42.57-.66.83-.56.52-.8.82a32.28,32.28,0,0,1-2.37,2.72c-.5.53-1,1.06-1.53,1.6a4.22,4.22,0,0,1-.65.75,4.69,4.69,0,0,0-.54.46,14.79,14.79,0,0,1-1,1.17,5.8,5.8,0,0,0-1,1.05,30.81,30.81,0,0,1-2.65,2.83c-1.72,1.73-3.51,3.36-5.24,5.09a9.85,9.85,0,0,0-1.31,1.27c-.15.22-1,1-1.22,1.25a18.59,18.59,0,0,1-2,1.75,2.81,2.81,0,0,0-.87.74c-.28.3-.52.66-.82.95a9.46,9.46,0,0,0-.74.68c-.54.67-1.14,1.31-1.65,2a9.73,9.73,0,0,1-.77,1c-.35.37-.76.69-1.08,1.09s-.86,1.09-1.29,1.63c-.2.24-.45.4-.66.64s-.51.75-.78,1.11a23.31,23.31,0,0,1-3.65,3.78,24,24,0,0,0-1.58,1.89c-.33.33-.72.57-1.06.88s-.57.6-.88.87a41,41,0,0,0-3.32,3.89,13.48,13.48,0,0,1-1.83,1.87,14.42,14.42,0,0,0-1.43,1.39,12.22,12.22,0,0,1-1.92,1.52c-.56.37-.92.89-1.64.86a3.86,3.86,0,0,1-.93-.29c-.33-.08-.43,0-.7-.25-.44-.38-.83-.84-1.24-1.25s-.82-1.07-1.33-1.49a4.64,4.64,0,0,1-.71-.62c-.18-.24-.35-.5-.54-.74s-.44-.71-.69-1-.5-.46-.72-.71a12,12,0,0,0-1.11-1.24,8.41,8.41,0,0,1-1.45-1.59,5.13,5.13,0,0,1-.52-.79,2.68,2.68,0,0,1,0-.94,2,2,0,0,1,0-.74,3.41,3.41,0,0,1,.52-.68,14.07,14.07,0,0,1,1.4-1.27,35.83,35.83,0,0,1,3.12-2.49c.44-.34.85-.75,1.32-1.05a4.29,4.29,0,0,0,.87-.65,3.16,3.16,0,0,1,.65-.56c.65-.47,1.12-1.06,1.77-1.53s1-.82,1.55-1.16a9.08,9.08,0,0,0,1.62-1.27c.45-.46,1-.83,1.42-1.26.91-.87,1.92-1.6,2.8-2.48.43-.43.85-.88,1.29-1.31a15.75,15.75,0,0,1,1.16-1.28,9.49,9.49,0,0,0,1.53-1.37c.36-.43-.83.94-.55.66a6.76,6.76,0,0,0,1.47-1.64,10,10,0,0,1,1.88-2.48c.45-.44.79-1,1.24-1.41.28-.28.64-.45.91-.76s.31-.46.49-.67a19.53,19.53,0,0,1,1.45-1.57,10.77,10.77,0,0,0,1.17-1.36c.34-.46.78-.76,1.13-1.2s.85-.93,1.25-1.41.91-1.17,1.35-1.78.91-1.2,1.29-1.83a12.17,12.17,0,0,1,1.3-1.57c.32-.41.56-.85.89-1.25a8.49,8.49,0,0,1,.78-1.08,2.29,2.29,0,0,0,.62-.66,3.39,3.39,0,0,1,.54-.83c.39-.41.6-.84,1-1.26s.6-.74.94-1.08a6.08,6.08,0,0,0,.84-1.29c.5-.82,1-1.58,1.48-2.46.28-.58.71-1,1-1.61.21-.4.43-.83.66-1.22a17.69,17.69,0,0,0,1.37-2.49,6,6,0,0,1,.25-.58c.17-.28.48-.44.67-.71s.23-.64.47-.93c.57-.69,1.06-1.43,1.57-2.18.33-.49.57-1,.89-1.52s.75-1,1.1-1.44c.7-1,1.31-2,2-3a16.21,16.21,0,0,0,1.43-2.49,16.9,16.9,0,0,1,1.72-2.62,14.79,14.79,0,0,0,1.25-2.18c.41-.79.85-1.58,1.24-2.38s.8-1.54,1.19-2.33,1.43-2.73,1.61-3.07.49-.9.71-1.36,1.94-3.91,2.26-4.85a12.56,12.56,0,0,1,.81-1.79,8,8,0,0,0,1.08-2.26,7.13,7.13,0,0,1,.64-1.51c.59-1.34,1.24-2.65,1.93-3.95s1.36-2.78,2-4.2c.31-.71.65-1.41.91-2.14.11-.29.69-1.48.82-1.92.21-.7.56-1.37.82-2.06s.41-1.22.58-1.83c.38-1.33.89-2.66,1.18-4a9.91,9.91,0,0,1,.46-1.84,5.76,5.76,0,0,1,.37-.85,8.27,8.27,0,0,0,.52-.88c.11-.36,1-2.85,1.29-3.75.63-1.68.94-3.47,1.48-5.18a8.19,8.19,0,0,0,.23-2,12.37,12.37,0,0,1,.26-1.35c.13-.64.16-1.29.29-1.93.17-.8.51-1.56.71-2.36.3-1.18.53-2.4.86-3.57s.67-2.24.89-3.39c.16-.86.48-1.62.7-2.46s.37-2,.56-3c.16-.83.39-1.63.6-2.44s.38-1.64.66-2.43a23.1,23.1,0,0,0,.7-2.87c.26-1.07.5-2.13.67-3.23s.4-4.34.44-5.06c0-.48.2-2.29.26-2.72.17-1.19.39-2.38.49-3.57.07-.79.08-1.59.21-2.37.25-1.57.38-3.14.67-4.72.32-1.77.4-3.58.72-5.37.14-.83.27-1.66.41-2.5s.41-1.6.5-2.41a16,16,0,0,0,.16-1.82c0-.86.12-1.7.15-2.57s.17-1.44.16-2.17a11,11,0,0,1,.08-1.52,12,12,0,0,0,.07-1.69,14.34,14.34,0,0,1,.15-1.62,23.37,23.37,0,0,1,0-2.37,9.15,9.15,0,0,0,.12-1.89,19.23,19.23,0,0,1,.59-4.12,11.89,11.89,0,0,1,1.46-3.8,2.23,2.23,0,0,1,2.16-1.35c.32,0,.6.11.93.13a3,3,0,0,1,.86.31,3.59,3.59,0,0,1,1.48,1c.38.38.73.76,1.09,1.16a9.37,9.37,0,0,1,1.08,1.83c.2.35.36.72.57,1.06s.5.64.69,1c.34.67.62,1.36.94,2,.18.39.2.84.37,1.24s.38.75.52,1.15c.25.71.71,1.29,1,2s.63,1.28.88,1.95a30.09,30.09,0,0,0,1.69,3.59c.34.64.66,1.24,1,1.86a6.78,6.78,0,0,1,.41.86c.14.4.11.81.24,1.19s.48.82.64,1.27a16,16,0,0,0,.89,2c.33.67.59,1.34.86,2,.17.43.51.75.67,1.19a5.93,5.93,0,0,0,.34.72c.18.35.27.71.46,1a7.89,7.89,0,0,1,.54,1.09c.1.27.12.52.24.78a8.47,8.47,0,0,1,.39.94,19.52,19.52,0,0,0,.9,2c.1.24.22.46.33.68a6.58,6.58,0,0,1,.28.89c.12.33.35.6.48.92s.19.42.28.63c.18.46.42.88.57,1.35.21.64.55,1.22.77,1.85a12,12,0,0,0,.52,1.5c.31.62.5,1.25.86,1.86a39.91,39.91,0,0,1,1.2,3.88c.29.55.51,1.13.75,1.71.44,1.1,1,2.19,1.36,3.31a12.4,12.4,0,0,0,.72,1.52c.23.47.43,1,.69,1.41a7.71,7.71,0,0,1,.83,1.71c.15.58.43,1.12.61,1.7.31,1,.89,1.85,1.24,2.82a9,9,0,0,0,.74,1.57,15.79,15.79,0,0,1,.71,1.56c.25.53,1.57,3.49,1.7,3.76a10.43,10.43,0,0,1,.6,1.57,2.53,2.53,0,0,0,.15.66c.23.53.25,1.11.5,1.63a6.13,6.13,0,0,1,.57,1.41c.11.48.26.91.33,1.4a7.28,7.28,0,0,1,.31,1.4V315a23.83,23.83,0,0,1-.32,3.49c-.05.35.09.73,0,1.07s-.15.42-.2.64a9,9,0,0,1-.74,2.07c-.68,1.32-2,2.27-2.75,3.51s-2.13,2.16-3.18,3.27c-.63.67-1.2,1.37-1.86,2l-1.65,1.66-3.07,3.07c-.33.31-.54.74-.9,1a2.41,2.41,0,0,0-.71.81,3.18,3.18,0,0,1-.73.78,3.71,3.71,0,0,0-.67.7,13.94,13.94,0,0,0-1.79,2c-.29.51-.74.88-1.05,1.4s-.82.92-1.18,1.42c-.49.67-1.19,1.14-1.65,1.83a7.78,7.78,0,0,1-1.58,1.61c-.35.3-.59.73-.92,1l-.62.62c-1.08,1.08-2.21,2.09-3.31,3.14-.61.59-1,1.33-1.61,1.94s-1.08,1-1.62,1.53c-.37.34-.6.83-1,1.19s-.43.41-.62.65-.34.57-.55.82-.6.63-.86,1a28.34,28.34,0,0,1-2.8,3,6.81,6.81,0,0,0-1.52,1.83,1.62,1.62,0,0,1-.5.58c-.28.26-.46.59-.75.86s-.48.55-.77.78-.51.32-.74.53a10.47,10.47,0,0,0-1.25,1.33A15.56,15.56,0,0,1,824.1,371" transform="translate(-154 -22.02)" fill="#fff"/>
        <path d="M822.51,369.88c-4.49,3.39-8,8-11.58,12.22-4,4.7-7.95,9.29-12.07,13.86-8.24,9.16-16.85,18.11-25.92,26.49-4.79,4.43-8.44,10.07-13.07,14.67-2.58,2.57-4.85,5.46-7.47,8-1,1-2.84,3.46-4.47,3.11-.87-.19-2.49-2.4-3.1-3.14s-1.41-1.73-2.16-2.58c-1.41-1.63-3.13-2.44-1.88-4.52s5.08-4.09,7.12-5.74A167.82,167.82,0,0,0,760.61,421c1.4-1.39-.66-3.34-2.12-2.13a4.55,4.55,0,0,0-.78,1c-1,1.46,1.15,3,2.35,1.82a145.52,145.52,0,0,0,11-12.5,145.22,145.22,0,0,0,9.74-12.93c6.83-10.48,13.61-21.12,19.42-32.21,5-9.52,10.21-19.59,13.42-29.85,1.7-5.41,4-10.77,5.18-16.36,1.42-7,3.1-13.86,4.7-20.8a109.07,109.07,0,0,0,2.84-15.2c.61-6.93,1.43-14,2.7-20.85,1.14-6.1,1-12.29,1.5-18.46.19-2.24.28-4.78,2.06-6.36,1.54-1.38,1.15-1.55,2.86-.46.86.55,1.41,1.86,1.94,2.68A65.74,65.74,0,0,1,841,245.8c4.43,9.42,8.95,18.87,12.83,28.55,2.1,5.27,3.78,10.65,6.29,15.76a124.69,124.69,0,0,1,6.7,15.37,27.17,27.17,0,0,1,1.52,12.1c-.43,4.54-3.45,7.25-6.52,10.37a177.48,177.48,0,0,0-12.13,13c-4.23,5.25-9.36,9.64-13.74,14.73A188.89,188.89,0,0,1,823,369.92c-1.4,1.33.72,3.45,2.12,2.12a139.29,139.29,0,0,0,12-13.05c4.18-5.12,9.23-9.39,13.5-14.43,3.54-4.19,7.22-8.1,11-12.05,4.06-4.21,8.86-8,9.56-14.06,1.49-12.88-6.32-23.86-11-35.38-4-10-7.91-20.12-12.41-30-2.39-5.23-4.71-10.81-7.57-15.77-1.7-3-5.21-7.51-9.2-5-4.69,2.95-3.67,13.13-3.92,17.7-.43,7.64-1.92,15.09-2.8,22.68-.64,5.6-.83,11.45-2.06,17-1.6,7.16-3.54,14.23-5.34,21.34-.91,3.6-1.23,7.24-2.33,10.8-.82,2.64-2,5.09-2.83,7.72a153.45,153.45,0,0,1-7.86,19.55c-2.48,5.42-5,10.78-7.72,16.09-3.81,7.43-8.92,13.85-13.13,21a197.9,197.9,0,0,1-11.45,17.13,106.44,106.44,0,0,1-7,8.45c-2.24,2.46-4.3,5.49-6.69,7.76l2.36,1.82a1.17,1.17,0,0,1,.31-.35l-2.12-2.13a140.17,140.17,0,0,1-11,9.83c-2.87,2.31-9.38,5.71-10.44,9.39s4.14,7.43,6.15,9.67c2.66,3,4.52,4.84,8.16,2.3,4.55-3.18,8.08-8.16,11.82-12.19,4.19-4.53,8-9.67,12.56-13.83,8.19-7.49,15.5-15.83,23.19-23.77a165.65,165.65,0,0,0,11.62-12.66c4.08-5.2,8.13-11.09,13.47-15.11,1.52-1.15,0-3.76-1.52-2.59Z" transform="translate(-154 -22.02)"/>
      </g>
      <g>
        <path d="M674.92,475.5a4.45,4.45,0,0,0,1.73-.46c.56-.22,1.09-.51,1.63-.78s.88-.4,1.32-.62c.27-.13.48-.34.74-.48a5.45,5.45,0,0,0,.94-.46,27.67,27.67,0,0,1,5.21-2.84,9.29,9.29,0,0,0,1.36-.62,20,20,0,0,1,2-1.07c.43-.22.88-.3,1.3-.54s1.15-.56,1.71-.85c.24-.13.4-.31.62-.44a6,6,0,0,1,.59-.22,6.74,6.74,0,0,1,.93-.47,6.12,6.12,0,0,0,1.32-.74A13.84,13.84,0,0,1,698,464a12.42,12.42,0,0,0,1.28-.94c.37-.24.73-.34,1.09-.62a24.24,24.24,0,0,1,2.61-1.75,8.4,8.4,0,0,0,1.61-1.05,9.29,9.29,0,0,1,1.83-1.26c1.16-.64,2.26-1.38,3.42-2,.49-.27.92-.63,1.41-.9s.92-.52,1.36-.82c.94-.63,1.73-1.44,2.69-2,.46-.28.93-.52,1.4-.77s1-.77,1.56-1.1c1-.64,2-1.26,3-2a18.43,18.43,0,0,1,5.17-2.72,6,6,0,0,1,1.45-.43c.32,0,.65,0,1,0a3.82,3.82,0,0,1,1.17,0c.21.08.35.3.53.44s.48.3.71.46a3.77,3.77,0,0,1,.66.6c.19.19.39.31.59.49s.29.42.5.6.32.2.47.34c.47.43.81.95,1.25,1.41s1.06,1,1.56,1.56a7.15,7.15,0,0,1,1.27,2.21,19.1,19.1,0,0,1,1.25,2.77,5.44,5.44,0,0,1,.09,2.34c-.05.22-.19.43-.24.66a2.81,2.81,0,0,1-.12.59,7.86,7.86,0,0,1-1,1.36,7.06,7.06,0,0,1-1.09,1.16,7.69,7.69,0,0,0-1.1,1.42,15.45,15.45,0,0,1-2.72,2.64,29.31,29.31,0,0,0-3,2.8c-.69.7-1.38,1.34-2,2.08s-1.34,1.42-2,2.09c-.32.3-.68.52-1,.8s-.79.85-1.22,1.24-5.81,5.59-6.36,6.16-.92,1.28-1.46,1.86c-1.46,1.55-3,3-4.4,4.65a6.88,6.88,0,0,0-.55.75,15.28,15.28,0,0,1-1.38,1.72,27.1,27.1,0,0,1-2.33,2.46c-.8.73-1.46,1.62-2.23,2.39a13.08,13.08,0,0,0-1,1.07c-.49.6-1,1-1.57,1.6-.84.88-1.7,1.7-2.58,2.55-.67.65-1.29,1.37-2,2s-3.78,4.08-4.7,4.92c-.43.39-.82.82-1.23,1.24-.61.63-1.34,1.12-2,1.72a16.8,16.8,0,0,0-2,2.26,78.59,78.59,0,0,1-5.47,5.8,5.92,5.92,0,0,0-.82,1,16.32,16.32,0,0,1-1.63,1.7c-.37.39-.7.84-1.05,1.25s-.69.64-1,1c-.6.61-1.17,1.21-1.71,1.86a8.6,8.6,0,0,1-1,1.22,5.07,5.07,0,0,0-.79.88c-.72,1-1.56,2-2.35,3-.3.37-.69.66-1,1s-.58.77-.88,1.15c-.52.66-1.14,1.27-1.72,1.88a21.06,21.06,0,0,0-1.74,2,15.55,15.55,0,0,0-1.14,1.56,8.53,8.53,0,0,1-1.46,1.55l-1.56,1.56c-.41.41-.81.83-1.23,1.23-.26.25-.57.43-.84.68-.58.52-1.15,1.1-1.75,1.59a15.55,15.55,0,0,1-2,1.26c-.81.47-1.48,1.06-2.33,1.48a13.41,13.41,0,0,0-1.36.84c-.38.23-.8.4-1.15.65-.68.48-1.33,1.06-2,1.48-1,.54-1.88,1.17-2.83,1.69a8,8,0,0,1-4,.79,11.31,11.31,0,0,1-3.84-.46c-1.56-.53-3.14-1.06-4.65-1.72a16.9,16.9,0,0,1-2.13-1.06,7.86,7.86,0,0,1-1.66-1.55c-1.67-1.91-3.4-3.8-5.21-5.57a32.21,32.21,0,0,1-3.51-4.61c-.83-1.19-4.61-6-5.1-6.53a31.72,31.72,0,0,1-2.14-2.89c-.74-1.06-1.47-2.09-2.11-3.21-.16-.27-.31-.55-.46-.83s-1.81-3.48-2-4-.43-1.18-.59-1.8c-.09-.34-2.72-6.6-3-7.35a5.14,5.14,0,0,1-.53-1.56,3.64,3.64,0,0,1,.19-1.43c.09-.27.28-.52.39-.78s.19-.69.55-.91,1-.55,1.52-.85a9.05,9.05,0,0,0,1.31-.78c.4-.33.79-.71,1.21-1a25.73,25.73,0,0,1,2.55-1.34c1.07-.59,2.21-1,3.28-1.56a8.09,8.09,0,0,1,1.3-.61,11.55,11.55,0,0,0,2.49-1.17c.23-.14.44-.34.68-.47s8-3.67,8.52-3.74a25.15,25.15,0,0,0,3.46-1.27c.7-.2,1.31-.67,2-.88.44-.13.88-.25,1.31-.41a7.69,7.69,0,0,0,1.37-.7,8.26,8.26,0,0,1,1.92-.79c.59-.18,1.11-.5,1.69-.7a21,21,0,0,0,2.92-1c.45-.24.85-.55,1.29-.78.7-.35,4.59-2,5-2.1.6-.18,4.9-1.91,6.46-2.65.82-.39,1.61-.84,2.43-1.25s1.83-.69,2.72-1.13a18.3,18.3,0,0,1,2.62-.77c.31-.1.59-.25.88-.36s3-1.43,4.06-2.1a5.3,5.3,0,0,1,.9-.43c.33-.13,1.54-.66,1.83-.81s2.16-.93,2.73-1.24" transform="translate(-154 -22.02)" fill="#fff"/>
        <path d="M675.32,477c5.76-1.56,11.21-5.41,16.58-8A116.64,116.64,0,0,0,705,461.19c5.44-3.58,10.92-7.05,16.35-10.65,2.34-1.56,5.67-4.26,8.53-3.19,1.61.6,3.58,3.16,4.66,4.44,3.22,3.85,3.54,6.64.34,10.42-1.92,2.27-4.13,4.08-6.23,6.19-3.74,3.74-7.62,7.32-11.36,11.08s-7.1,8.21-10.83,12.13c-4.32,4.54-8.82,8.9-13.13,13.45-7.68,8.1-15.57,15.9-22.7,24.53A111.19,111.19,0,0,1,659,542.27a59.57,59.57,0,0,1-7.68,5.26c-3.56,2.29-6.6,4.65-11.1,3.87C632,550,627,543,622.35,536.62c-2.92-4-6.3-7.6-8.79-11.86-2-3.54-3.32-7.44-4.86-11.21-.84-2-1.81-4.11-.25-5.85,2.34-2.62,7-4.18,10.15-5.61,19-8.68,38.61-15.9,57.46-24.88,1.74-.83.22-3.42-1.51-2.59-19.48,9.28-39.87,16.53-59.4,25.75-4.44,2.1-12,4.63-10.6,10.75.86,3.78,2.94,8,4.54,11.52,2.19,4.85,5.54,8.9,8.79,13.06,4,5.15,7.87,11.75,13.37,15.46,4.7,3.18,11.71,4.77,16.86,2a67.86,67.86,0,0,0,16.27-11.89c5-5,8.89-11,13.77-16.09,3.88-4,7.61-8.22,11.4-12.34,4.53-4.94,9.64-9.47,14.34-14.27,5-5.14,9.59-10.67,14.42-16,3.87-4.26,8.35-8.05,12.42-12.11,3.15-3.16,8.83-6.76,9.68-11.49,1-5.24-4.33-10.59-8-13.58-5.2-4.17-12.13,2.24-16.42,5.07-6.68,4.41-13.42,9.15-20.38,13.09-2.6,1.47-5.3,2.73-8,4.05-4.22,2.09-8.49,5.16-13.06,6.4a1.5,1.5,0,0,0,.8,2.89Z" transform="translate(-154 -22.02)"/>
      </g>
      <g>
        <path d="M507,638.09a11.62,11.62,0,0,1,3.38.69c.43.12.84.25,1.27.39a12.94,12.94,0,0,0,1.85.29c1.06.19,2.15.29,3.2.53,1.46.32,2.93.89,4.4,1.14,1.15.2,2.28.46,3.44.68.51.1,2.62.63,3.19.78,2.32.61,4.57.91,6.84,1.73a40.86,40.86,0,0,0,7,2c.6.1,1.13.3,1.71.4s13.11,3,17.46,3.44c2.27.21,4.43,1.19,6.65,1.66a54.77,54.77,0,0,0,5.61,1.1v-.34c1.75.26,3.52.75,5.25,1.1a10.57,10.57,0,0,0,2.65.63h2.89a25.43,25.43,0,0,1,5.87,1,16.39,16.39,0,0,0,3,.43c1.07,0,2,.31,3.11.35,4.16.14,8.36,0,12.53,0a39.35,39.35,0,0,1,5.63.69,42.86,42.86,0,0,0,6,.35,36.18,36.18,0,0,0,5.89-.08,18.76,18.76,0,0,1,3.2-.27,12.43,12.43,0,0,0,3-.17c.81-.19,1.65-.38,2.46-.53a17.22,17.22,0,0,1,2,0c.68-.05,1.31-.27,2-.35a20.64,20.64,0,0,1,3.17-.36c1,0,1.69-.31,2.62-.36a15.85,15.85,0,0,0,2.75-.3,24.42,24.42,0,0,0,4.34-1.41,20.78,20.78,0,0,1,2.33-1,16.37,16.37,0,0,0,2.79-1.3c.66-.33,1.24-.73,1.86-1.12,1-.61,2.06-.79,3-1.37,1.73-1,3.57-1.74,5.27-2.78.69-.42,1.46-.6,2.15-1,.85-.49,1.35-1.31,2.25-1.76,3.47-1.75,5.66-5,8.38-7.68a17.82,17.82,0,0,0,2.48-2.66c.62-1,1-2.06,1.58-3.05.47-.8.93-1.74,1.46-2.5.36-.52.9-.85,1.24-1.38a14.76,14.76,0,0,0,2.16-5.11c.18-1.26.44-2.48.7-3.72a22.77,22.77,0,0,1,1.27-2.89l.95-2.79a17.63,17.63,0,0,0,.59-2.76c.19-1.07.69-2.06.89-3.12.15-.77,0-1.55.15-2.32a11.88,11.88,0,0,0,.27-2.88c0-1.14,0-2.28,0-3.43v-8.71c0-.89,0-1.79,0-2.69a14.36,14.36,0,0,0-.36-2.49c-.12-.86,0-1.66-.15-2.53a19.44,19.44,0,0,1-.16-2.14,40.94,40.94,0,0,1-.7-4.68c0-1.34-1-2.43-1.39-3.7a24.2,24.2,0,0,0-.78-2.41,13.42,13.42,0,0,1-.32-1.75c-.2-.63-.46-1.08-.62-1.72a15.17,15.17,0,0,0-.55-2,27.2,27.2,0,0,0-2.09-4.35c-.79-1.27-1.61-2.54-2.34-3.85s-1.6-2.5-2.28-3.78a15.65,15.65,0,0,0-3.11-3.6l0,.43C665,534,647,529,629,526c-8.54-1-63.88-3.7-88.32-3.12l-50.61.18c-49.15-.94-98.31-2.89-147.47-3.94a31,31,0,0,0-9.44,1.22c-6.42,1.88-13.8,2.91-16.86,8.93H317C310,536,309,547,310,557c1,4,2.5,7.5,5,13,10,12,26,17,41,23,12,6,24,9,37,13,20,7,40,11,60,18,13,5,27,8,41,10,5,1,9.74,3.53,14.5,4.5" transform="translate(-154 -22.02)" fill="#8c8c8c"/>
        <path d="M507,639.59c12.6,1.61,24.8,6.09,37.14,8.88,4.71,1.07,9.44,2.12,14.2,2.89S568,654,573,654.44a1.52,1.52,0,0,0,1.5-1.5v-.34l-1.9,1.44c7.2,1.34,14.33,2.72,21.65,3.34,4.1.35,8.18.14,12.29.19,4.49,0,8.92.91,13.42,1a112.47,112.47,0,0,0,19-1.43c3.32-.48,6.77-.46,10-1.39a47.66,47.66,0,0,0,9.29-4.06c5.94-3.18,12.33-5.63,17.39-10.21s8.27-9.61,11.91-15.09c2-2.93,2-5.95,3-9.19,1.22-3.89,3-7.48,3.7-11.56,1.23-6.82.89-14.81.33-21.7-1.09-13.46-5.17-29-15.16-38.82a1.52,1.52,0,0,0-2.56,1.06l0,.43,2.56-1.06c-15.14-13.9-36.54-20.22-56.73-21.57-18-1.21-36-1.91-54-2.39-24.24-.64-48.51-.16-72.76-.07-31.16.11-62.38-1.4-93.52-2.33-17.94-.53-35.87-1.05-53.81-1.46a66.46,66.46,0,0,0-21.06,2.57c-5.11,1.48-9.73,3.44-12.52,8.19a1.52,1.52,0,0,0,1.3,2.26H317l-1.06-2.56c-9.07,9.4-9.67,24.82-4.93,36.39,2.72,6.62,6.5,10.85,12.39,14.95,6.19,4.32,13.16,7.35,20.13,10.16,7.87,3.17,15.62,6.72,23.57,9.68,8.37,3.12,17,5.32,25.51,8.06,18.63,6,37.69,10.54,56.25,16.72,10,3.33,19.81,6.68,30.18,8.78,4.83,1,9.75,1.53,14.57,2.5,5,1,9.57,3.33,14.5,4.5,1.88.44,2.68-2.45.8-2.9-3.56-.84-6.92-2.24-10.39-3.37-4-1.3-8.18-1.7-12.32-2.42A192.6,192.6,0,0,1,462,625.54c-16.61-5.18-33.12-10.33-49.86-15.12-15.58-4.45-31.67-8.89-46.74-14.87-7.06-2.81-14-5.89-21.09-8.73s-13.95-5.88-20-10.31c-7.12-5.17-12.15-12.83-13-21.78-.78-8.57.56-18,6.74-24.4a1.51,1.51,0,0,0-1.06-2.56h-.69l1.29,2.26c3.1-5.28,9.21-6.41,14.68-7.88,8-2.15,16.07-1.41,24.28-1.21q21.93.54,43.84,1.21c29.88.89,59.79,2.17,89.68,2.41,23.68.19,47.37-.58,71-.12,18,.35,36,1.08,53.93,2.09,22.13,1.25,45.39,5.66,62.27,21.16.89.81,2.67.31,2.56-1.06l0-.43-2.56,1.06c8.57,8.4,12.94,22.54,14,34.22a108.27,108.27,0,0,1,.19,21.07,43.67,43.67,0,0,1-1.86,8.89c-1.12,3.34-1.94,6.67-3,10-.92,2.89-3.31,5.43-4.78,8.1-1.68,3-4,5.29-6.37,7.8C671,642.16,665,645,659.13,647.84c-2.82,1.37-5.53,2.9-8.45,4.08-3.55,1.43-7,1.59-10.8,2.09-5.83.78-11.84,1.72-17.73,1.63-4-.06-7.78-.51-11.74-.94-4.25-.46-8.58,0-12.85-.09-8-.24-16.32-2-24.19-3.46a1.52,1.52,0,0,0-1.89,1.45v.34l1.5-1.5c-5.15-.49-10.21-2.34-15.3-3.21-4.59-.78-9.16-1.82-13.7-2.86-12.3-2.81-24.44-7.18-37-8.78-1.91-.24-1.89,2.76,0,3Z" transform="translate(-154 -22.02)"/>
      </g>
      <g>
        <path d="M768.9,98.83c-.8,0-1.72,1-2.35,1.48-.84.62-1.81.9-2.66,1.46a43.78,43.78,0,0,0-4.43,3,13.84,13.84,0,0,1-2.35,1.78,15.27,15.27,0,0,0-2.52,1.35c-.84.67-1.7,1.27-2.59,1.89-1,.72-1.85,1.71-3,2.38-.46.28-.95.37-1.4.62a5.76,5.76,0,0,0-1.16,1.1,29.93,29.93,0,0,1-2.4,2.11c-.77.64-1.68,1.15-2.43,1.82a15,15,0,0,0-1.84,2.29,28.93,28.93,0,0,0-1.33,2.6,7,7,0,0,0-.9,2.44c-.08.77-.39,4.15.6,4.4.67.18,1.13-1,1.21-1.51,0-.29-.07-.62,0-.91s.26-.7.33-1.09c.11-.6.1-1.17.24-1.77a4.15,4.15,0,0,1,.93-1.86c.63-.81,1.31-1.52,2-2.29a22.1,22.1,0,0,1,1.85-1.77,10.79,10.79,0,0,1,1.82-1.31c.77-.46,1.37-1.17,2.14-1.61a13.49,13.49,0,0,0,2.9-1.73,22.58,22.58,0,0,1,1.89-1.53c.87-.66,1.9-1.28,2.7-2a10.05,10.05,0,0,1,2.1-1.54,21.31,21.31,0,0,1,4.37-2,14.44,14.44,0,0,1,3.9-.95,10.84,10.84,0,0,0,2.61-.07,7,7,0,0,1,1.52-.21c.62,0,1.16-.28,1.77-.32.86,0,1.75.13,2.6,0s1.87-.53,2.81-.62c.65-.06,1.33.1,2,0a3.55,3.55,0,0,0,1.92-.74c.74-.62,1.65-.77,2.35-1.45a22.75,22.75,0,0,0,1.93-1.72,6.27,6.27,0,0,1,1.77-1.48c.76-.48,1.28-1.24,2-1.74.56-.38,1.05-.71,1.59-1.13.85-.67,1.74-1.29,2.54-2,.65-.58,1.4-1,2.06-1.52s1.2-1.26,1.91-1.79a17.93,17.93,0,0,1,1.77-1.41,6.22,6.22,0,0,0,1.87-1.11c.63-.73.28-1.07,0-1.8s-.52-.71-1.35-.7h-1.51c-1.58,0-3,.3-4.61.3H782.8c-2.61,0-5.58-.92-7-3.25-.73-1.15-1.21-2.41-1.83-3.61s-.66-2.47-1.18-3.71c-1-2.26-1.63-5.37-3.82-6.78a7,7,0,0,1-1.36-.81,3.19,3.19,0,0,0-.79-.67c-.61-.33-1.17-.67-1.77-1a5.05,5.05,0,0,1-1.72-1.39,13,13,0,0,0-1-1.65,14.61,14.61,0,0,1-1.34-1.92,9.1,9.1,0,0,1-.45-.88c-.17-.32-.52-.56-.66-.89a6.85,6.85,0,0,0-.71-1.47,4.25,4.25,0,0,1-.46-.57c-.2-.43,0-.81-.36-1.2l.3.59a13,13,0,0,0-3.84,1c-1,.33-1.93,1-3,1.34a35.73,35.73,0,0,0-7.37,3.54c-1.21.76-2.66,1.07-3.86,1.84a31.16,31.16,0,0,1-3.25,2c-1.23.6-2.53,1-3.75,1.53-.78.35-1.62.53-2.39.9a21.88,21.88,0,0,1-2.11,1.06,75.34,75.34,0,0,1-7.91,2.84,19.13,19.13,0,0,0-1.81.75c-.28.1-.63,0-.91.12-.52.16-.5.37-.89.55-.63.31-1.32.36-2,.64a9.88,9.88,0,0,1-2.14.8c-1.25.21-2.52.81-3.78.93a14.67,14.67,0,0,0-3.37.49c-2.35.81-4.73.7-7,1.79-1.3.63-2.25,1-2.81,2.5a10.91,10.91,0,0,0-.21,3.7,7.53,7.53,0,0,0,.74,3.14c.25.58.69,1,1,1.57.38.76.52,1.61.93,2.35a11.17,11.17,0,0,0,2.67,3.41,5.09,5.09,0,0,0,1.84,1.13,6.56,6.56,0,0,0,1.77,0,6.69,6.69,0,0,0,2.06-1c.82-.39,1.45-1,2.24-1.35a40.21,40.21,0,0,1,4.42-1.75c.6-.22,1.11-.55,1.69-.82s1.46-.39,2.18-.66A34,34,0,0,0,721.6,90c2.6-1.39,5.56-2,8.33-2.87,1.21-.39,2.42-.77,3.63-1.19a11.33,11.33,0,0,0,2-.72c.2-.12.35-.35.55-.46a17.49,17.49,0,0,1,1.78-.55c.52-.22,1-.52,1.48-.7a18.22,18.22,0,0,0,2.37-.88c1.78-.91,3.53-1.69,5.38-2.43a12.88,12.88,0,0,1,2.14-.85c.84-.17,1.61-.65,2.45-.86a11.59,11.59,0,0,0,2.14-.81c.78-.36,1.61-.42,2.43-.74,1.61-.62,2.81-.87,3.78.88a8.34,8.34,0,0,1,.87,4.27,5.61,5.61,0,0,1-.36,2.3c-.41,1-.84,1.64-.17,2.67,1,1.48,2.65,2.46,4,3.54A12.45,12.45,0,0,1,766,92.35,10.34,10.34,0,0,1,767.42,94c.73,1.29,1.81,2.74,2.07,4.25" transform="translate(-154 -22.02)" fill="#8c8c8c"/>
        <path d="M768.5,97.38c-4.48,1.6-8.15,5.36-12.15,7.84a124.65,124.65,0,0,0-10.92,7.57c-3.81,3-7.4,5.86-8.95,10.66-.67,2.08-1.12,5.5.65,7.13a1.52,1.52,0,0,0,1.46.38c1.55-.55,1.86-1.45,2.31-3,.82-2.82.84-4.49,3-6.85a23.53,23.53,0,0,1,3.37-2.85c5.44-4.17,12.24-10.3,19.24-11.18,5.53-.69,12.28.33,17.15-2.82s9.76-7.68,14.31-11.5c1.81-1.51,8.63-5.19,3.81-8.21-1.73-1.08-5.84,0-7.74,0-4.27.16-13.1,1.46-16.4-1.76-4.53-4.44-3.2-11.82-8.68-15.75a26,26,0,0,1-9.41-11.57L757,57.08l.29.59,1.3-2.26c-6.1.72-12,4.43-17.33,7.16A154.15,154.15,0,0,1,724,70.47c-4.14,1.49-8.55,3.36-12.83,4.36-4.58,1.06-13.62.74-15.93,5.9-1.85,4.14.76,9.4,2.82,12.91s5.1,5.69,9,4c2.73-1.15,5.29-2.74,8.08-3.87s5.82-2,8.71-3.15c5.68-2.22,11.55-3.75,17.16-6.13,3.31-1.4,6.52-3,9.92-4.18,3.62-1.29,9.3-3.83,8.39,2.66-.37,2.61-1.15,3.9.9,6.11,3,3.23,6.36,5,7.86,9.52.61,1.82,3.5,1,2.9-.8a18.92,18.92,0,0,0-4.66-7.48c-1-1-3.36-2.24-4-3.36-.79-1.44.07-3.4.12-4.94.07-2.14-.41-5.25-2.39-6.53s-4.62,0-6.59.67c-6,2.06-11.89,4.62-17.74,7.08-6.63,2.79-13.7,4.73-20.5,7.16a90.88,90.88,0,0,0-8.71,4.08c-3.56,1.71-5-.67-6.61-3.84-.72-1.46-2-4.13-2.11-5.49-.26-6.28,8-6.19,12.25-7a53.13,53.13,0,0,0,8.26-2.51c6-2.27,12.2-4.47,18.16-7.06,7.14-3.11,14.18-9.23,22.12-10.17a1.52,1.52,0,0,0,1.29-2.26l-.29-.59c-.88-1.76-3.33-.21-2.59,1.52,1.58,3.72,3.86,8.11,7.26,10.51,2.83,2,5,3.06,6.36,6.56,1,2.58,1.64,5.22,2.9,7.71,2.79,5.5,7.36,5.78,13,5.78,3.89,0,8.32-.72,12.16-.3,2.12.23,1.26-.22.24.82s-2.07,1.69-3,2.52c-2.23,1.94-4.64,3.66-7,5.47s-4.6,4.58-7.31,5.91c-5.55,2.73-12.83,1-18.71,2.86s-10,6-15,9.17c-3.9,2.49-9.48,6.43-9.66,11.51,0,1.08-.56,2.42.74,1.42.13-.1,0-1.14,0-1.33a19.89,19.89,0,0,1,1.72-4.22c2.09-3.3,5.9-5.87,9-8s6.16-4.32,9.27-6.44,6.59-5.41,10.22-6.7c1.81-.65,1-3.55-.8-2.9Z" transform="translate(-154 -22.02)"/>
      </g>
      <g>
        <path d="M466.08,169.66c.54,0,10.29.36,11.16.36.68,0,1.37,0,2.05,0s1.07.2,1.65.2c.82,0,1.57.15,2.38.19s1.56,0,2.34,0c1.06,0,2.09-.2,3.15-.2h2.83c1.85,0,3.69-.38,5.56-.37a51.49,51.49,0,0,0,5.41-.32,66,66,0,0,1,7.44-.23c.7,0,1.32-.16,2-.2s1.23,0,1.84,0c1.5,0,2.92.3,4.4.38,1.94.1,3.93,0,5.87,0,2.24,0,4.49,0,6.73,0a14.78,14.78,0,0,1,2.3.2,7.3,7.3,0,0,0,.81.18,8.68,8.68,0,0,1,1,0,14.27,14.27,0,0,1,3.88,1.38,39,39,0,0,0,3.72,1.32,24.71,24.71,0,0,1,3.23,1.76,16,16,0,0,1,2,1.09,7.15,7.15,0,0,1,1.17,1.45,38.56,38.56,0,0,1,2.5,4,9.61,9.61,0,0,1,1,1.7,4,4,0,0,1,.13,1.43,11.67,11.67,0,0,1-.14,2.9,26.3,26.3,0,0,1-1.19,3.81,21,21,0,0,1-1.3,2,26.34,26.34,0,0,1-4.31,2,51.5,51.5,0,0,1-5,1.25,15.19,15.19,0,0,0-2.57.59c-.85.31-1.72.44-2.58.74-1.89.64-24.57,2.95-25.8,2.95H508a17.49,17.49,0,0,0-1.79.19c-1.12.11-2.21.42-3.35.54-.84.1-1.6.49-2.44.56a6.38,6.38,0,0,0-1.83.4c-.56.23-1.1.51-1.66.74a14.4,14.4,0,0,0-1.74,1c-.46.27-.93.42-1.37.73s-.64.57-1,.83-.59.35-.86.56-.56.59-.9.83c-.52.38-1.14.61-1.67,1s-.91.6-1.33.92a16.09,16.09,0,0,1-3.27,2.36c-1.24.51-2.28,1.35-3.53,1.87-.86.35-1.64.9-2.48,1.29-.65.3-1.2.79-1.85,1.07-.48.21-1,.3-1.48.54a17.94,17.94,0,0,0-1.66,1c-.67.44-11.46,2-12.47,2a32.5,32.5,0,0,1-6.16-1.24c-.48-.2-1-.22-1.48-.41a7.33,7.33,0,0,0-1.74-.54,14.67,14.67,0,0,1-1.91-.53,10.26,10.26,0,0,1-1.32-.45c-2-.91-4.07-1.63-6.11-2.4-.57-.21-1.07-.51-1.62-.74a14.45,14.45,0,0,1-1.76-.88c-.93-.54-3.91-2.15-4.45-2.48s-1-.59-1.52-.84c-.94-.46-2-.61-2.95-1.08l-2-.93c-.42-.19-2.82-1.83-3.67-2.26-1.62-.81-11.82-4.1-12.71-4.55-.4-.21-.75-.46-1.14-.66-.23-.13-.38-.33-.6-.46a15.1,15.1,0,0,1-2.8-2.63c-.26-.5-1.06-3.63-1.17-4.12a5.34,5.34,0,0,1,0-1.2,12.3,12.3,0,0,1,.23-2.77,17.49,17.49,0,0,1,.74-2.89c.18-.42.3-.86.5-1.28a19.07,19.07,0,0,1,.74-1.81,28,28,0,0,0,1.48-3.13,7.92,7.92,0,0,1,.59-1.34c.34-.48.64-1,.93-1.52.51-.88.84-1.85,1.41-2.69a15.4,15.4,0,0,1,2.39-2.77,6.34,6.34,0,0,1,1.68-1.06c.46-.23.81-.58,1.29-.8a6.45,6.45,0,0,1,2.61-.72c.54,0,8.12-1.67,9.3-1.66.81,0,1.64-.06,2.45,0,.42,0,4.2.38,5,.38l.19.18c.65,0,1.22.19,1.87.19h2.18c.29,0,.59,0,.88,0s.58.16.91.2a14.64,14.64,0,0,0,1.74.17,18.38,18.38,0,0,1,3.32,0,4,4,0,0,0,.91.15,3,3,0,0,1,.85,0,12.11,12.11,0,0,0,1.8.32c.58.05,1.11.31,1.68.38.3,0,.64,0,.94,0a7.76,7.76,0,0,1,1,.19c1.16.21,2.35.36,3.5.55a21,21,0,0,1,3.45.79c.61.2,1.25.31,1.86.5a6.7,6.7,0,0,0,2.05.18" transform="translate(-154 -22.02)"/>
        <path d="M466.08,171.16c9.81.16,19.46.88,29.26.28a189.15,189.15,0,0,1,22.95-.46c7.62.45,14.19-.55,21.42,2.2,6.69,2.53,13.63,7.75,10.59,15.86-2,5.29-10.41,5.65-15.21,6.78-7.44,1.75-15.5,2-23.1,2.71-4.32.39-8.64.51-12.86,1.66-4.94,1.35-9.05,5.2-13.12,8.1-7.14,5.1-17.66,10.14-26.75,8.54A72.52,72.52,0,0,1,441.8,211c-4.2-2-8.58-4.06-12.67-6.21A68.15,68.15,0,0,0,419,200.17c-3.9-1.35-8.87-2.3-10.57-6.54-1.39-3.48-.37-7.38,1.05-10.67,1.86-4.29,3.94-9.67,7.8-12.47,3.54-2.56,11-3.38,15.33-3.21s7.78.82,12.73,1.11c3.69.22,7.27.72,10.94,1.2,3.45.45,6.9,1.9,10.38,1.93a1.5,1.5,0,0,0,0-3c-3.75,0-7.7-1.57-11.42-2.16s-7.28-.89-11-1.13c-4.22-.26-7.92-.86-12.22-.95a37.84,37.84,0,0,0-14.15,2.45c-6.11,2.59-8.78,9.55-11.21,15.24-1.89,4.46-3.05,10.61,0,14.89,2.34,3.31,6.49,4.45,10.08,5.68,10.89,3.74,20.54,10.15,31.34,14.21,8.6,3.24,17.22,4.32,26.13,1.38,5.8-1.91,11.55-6,16.49-9.49,2.59-1.82,5.19-4,8.2-5.12a38.67,38.67,0,0,1,11.26-1.82,156.06,156.06,0,0,0,25.43-2.89c4.58-1,11.67-1.67,15.37-4.93s4.1-9.91,1.91-13.79c-1.76-3.13-3.13-5.33-6.2-7.08a44.79,44.79,0,0,0-9.84-4.28c-3.5-1-7.33-.76-10.92-.76-4.93,0-9.87-.42-14.78-.27-9.74.31-19.81,1.88-29.53,1.05-5.1-.44-10.32-.51-15.45-.59-1.93,0-1.93,3,0,3Z" transform="translate(-154 -22.02)"/>
      </g>
      <g>
        <path d="M770.24,36.62c.56-.27,1-.78,1.51-1.1a16.73,16.73,0,0,0,1.71-1c.62-.5,1.22-1,1.86-1.48a4.47,4.47,0,0,0,1.4-1.59A6.27,6.27,0,0,1,778,29.73,16.29,16.29,0,0,1,780,28a23.11,23.11,0,0,0,2.2-1.89A10.45,10.45,0,0,1,787,23.6a9.11,9.11,0,0,1,2.09,0,3.94,3.94,0,0,1,1.72.33c1.35.55,8.71,3.61,10.52,6.84a48.26,48.26,0,0,1,3.18,3.9c.14.35.86,2.35,1.1,3a14.16,14.16,0,0,1,.32,4.55v2.29a7.73,7.73,0,0,1,0,1.18c-.06.38-.29.73-.34,1.13A10.9,10.9,0,0,1,804.4,51a15.8,15.8,0,0,1-3.83,3.91,5.53,5.53,0,0,1-.93.76,7.54,7.54,0,0,0-1.18.57,9.64,9.64,0,0,1-2.26,1,6.94,6.94,0,0,1-2.52.41,19.23,19.23,0,0,1-2.94-.1c-.52-.08-1-.06-1.55-.12a20.52,20.52,0,0,1-2.2-.48,11.87,11.87,0,0,1-2.42-.87,10.61,10.61,0,0,0-2.43-.64,6.19,6.19,0,0,0-1.22-.18c-.56,0-1.06-.2-1.63-.19a9.4,9.4,0,0,1-1.84,0,11.51,11.51,0,0,0-2.43-.14,20.73,20.73,0,0,0-4.46.18,19.56,19.56,0,0,0-2,.46c-.75.25-6.14,1.84-7.07,1.93-1.63.16-3.27.56-4.88.88-.84.16-1.58.49-2.4.73s-5.79,2-7.67,2.39a14.29,14.29,0,0,0-2.89.68c-1.16.52-2.34,1-3.51,1.48A9.68,9.68,0,0,0,738,64.83c-.72.59-1.24,1.43-2,2a8.53,8.53,0,0,1-4.58,2,10.8,10.8,0,0,1-2.54.19,4.13,4.13,0,0,1-2.28-1.33,5.1,5.1,0,0,1-1.06-1.21,6.2,6.2,0,0,0-.58-1,4.82,4.82,0,0,1-1-1.39c-.19-.43-.44-.84-.6-1.28a16.87,16.87,0,0,1-1.1-6.67c.07-1.81.65-4.31,2.19-5.41.72-.52,4.06-3.19,6.69-2.16a15.09,15.09,0,0,0,2.33,0,20.72,20.72,0,0,0,5.89-1.15,15.43,15.43,0,0,1,1.63-.66,10.65,10.65,0,0,0,1.1-.21c.48-.15,1-.2,1.46-.36s1.12-.51,1.72-.66a49.91,49.91,0,0,0,8-2.74c1.06-.46,2.21-.65,3.28-1.07s2.25-.56,3.28-1.06a15.23,15.23,0,0,1,2.84-1.25,8.22,8.22,0,0,0,1-.29c.44-.18,1-.19,1.43-.34.63-.21,1.23-.39,1.87-.54a4.12,4.12,0,0,0,2.13-1.07Z" transform="translate(-154 -22.02)" fill="#8c8c8c"/>
        <path d="M771,37.91a42,42,0,0,0,5.38-3.82c2.38-2.27,4.2-4.82,6.86-6.89,5.76-4.46,12.85-.09,17,4.59s5.18,9.89,3.64,16c-1.08,4.35-5.75,7.91-10.21,8.25-4,.3-7.35-1.41-11.14-2.16a33.56,33.56,0,0,0-15.44.43c-5,1.44-10.2,2.18-15.17,3.83-5.57,1.86-11.46,2.61-16,6.6-3.93,3.47-8.15,3.33-10.71-1.49-3-5.62-1.73-13,5.49-13.32,6.9-.33,13.26-2.11,19.81-4.47,6.81-2.45,14-4.38,20.46-7.59,1.72-.86.21-3.45-1.52-2.59a109.57,109.57,0,0,1-11.64,4.46c-4.82,1.76-9.77,3.55-14.7,5a51.82,51.82,0,0,1-12.77,2.11,10.7,10.7,0,0,0-7,2.78c-5.15,4.8-2.45,14.8,2.19,19.08,2.15,2,4.77,2.1,7.54,1.3a11.53,11.53,0,0,0,4-2.11A23,23,0,0,1,746.23,63c6.58-1.78,13.26-3.31,19.8-5.19a32.86,32.86,0,0,1,10.82-1.39c4.31.16,8,1.8,12.14,2.44,6.78,1,14.91-1.74,17.43-8.78,2-5.58,1.78-13.25-2-18-3.66-4.56-8.82-9.17-14.89-10-4.18-.55-7,1.91-10,4.41-3.53,3-6.16,6.16-10,8.81C767.91,36.42,769.4,39,771,37.91Z" transform="translate(-154 -22.02)"/>
      </g>
      <g>
        <path d="M924.84,269.5c.34,0,1.06.75,1.24,1s.36.7.55,1c.45.77.67,1.68,1.12,2.45.22.39.58.69.82,1.06s.35.66.55,1a29.45,29.45,0,0,1,1.4,2.67,8.81,8.81,0,0,0,.65,1.43c.14.2.27.18.38.45s0,.4.07.57c.17.42.53.83.74,1.23s.28,1,.5,1.39c.35.69.64,1.35,1,2.06.26.51.39,1,.62,1.5.08.19.25.37.32.55s.09.67.18,1a36.41,36.41,0,0,0,2.32,5.41,14.11,14.11,0,0,1,.66,2.82c.14.55.22,1.14.31,1.69s0,.89,0,1.32.26.59.23,1a1.82,1.82,0,0,1-.67,1.14,10.54,10.54,0,0,1-2.86,1.87c-1,.41-1.85,1.1-2.82,1.55-.48.23-1,.23-1.51.45a9.72,9.72,0,0,1-1.54.62,22.68,22.68,0,0,1-2.5.6,32,32,0,0,0-3.39.57,33.42,33.42,0,0,1-5.93,1.08c-.84,0-1.7,0-2.54,0-.49,0-.9-.2-1.38-.22-.69,0-1.35-.16-2-.2a17,17,0,0,1-5.71-1.48,5.19,5.19,0,0,0-1-.19,9.15,9.15,0,0,1-1.42-.57c-1-.42-2.11-.8-3.11-1.27-.4-.19-.81-.33-1.2-.52s-.65-.6-1-.87c-1-.7-2.29-1.15-3.25-1.92a11.06,11.06,0,0,1-1-1.14,4.84,4.84,0,0,1-.81-1.6,8.92,8.92,0,0,1-.41-3.3,9.6,9.6,0,0,1,1-3.43,4.68,4.68,0,0,1,.71-1.32,7.44,7.44,0,0,0,.66-1.06,6.22,6.22,0,0,1,1-1.06,25,25,0,0,1,3-3.37c.58-.45,1.16-.9,1.77-1.3.77-.51,1.35-1.22,2.1-1.75,1.2-.86,2.62-1.32,3.83-2.16a12.61,12.61,0,0,0,1.7-1.48,10.32,10.32,0,0,1,1.41-1.05,16.68,16.68,0,0,1,2.12-1.23c.29-.15.52-.36.8-.5a5.79,5.79,0,0,0,1.24-.57,44,44,0,0,1,3.71-2.45,11.34,11.34,0,0,1,2.19-1.06,10.54,10.54,0,0,0,2.07-1.16,11.92,11.92,0,0,1,1.67-.85,8.19,8.19,0,0,0,1.79-.77Z" transform="translate(-154 -22.02)"/>
        <path d="M924.08,270.79c1.49.88,2.82,4.44,3.75,6,.81,1.37,1.72,3.3,2.32,4.57,1.69,3.61,3.09,7.32,4.6,11,.84,2.07,2.94,5.84,2.12,8.13-1,2.64-6.94,4.46-9.38,5.08-5.1,1.31-10.39,2.18-15.63,1.5a33.34,33.34,0,0,1-14.9-5.69c-7.29-5.39.53-13.34,5.57-17.08a157.68,157.68,0,0,1,23.27-13.92l-2-2.06-.21.41c-.86,1.72,1.73,3.24,2.59,1.52l.21-.41a1.52,1.52,0,0,0-2.05-2.06,144,144,0,0,0-15.59,8.6c-5.35,3.57-11.19,7.09-15.07,12.4-2.94,4-4.27,10.24-.1,14s11,6.2,16.37,7.1c6.62,1.11,13.22.15,19.63-1.73a27.64,27.64,0,0,0,8-3.82c2.5-1.77,2.57-3.07,2.16-5.93-.9-6.22-4-12.18-6.68-17.8-1-2.07-2-4.25-3.18-6.28s-2.06-4.8-4.27-6.1A1.5,1.5,0,0,0,924.08,270.79Z" transform="translate(-154 -22.02)"/>
      </g>
      <g>
        <path d="M539.71,469.89c-3.21-11.39-26.31-46.13-28.38-48.24-2.44-2.48-3.87-5.43-6.15-7.95-2.44-2.71-4.61-5.82-7.59-8S485,394.12,482.67,391.81a60,60,0,0,0-14.1-10.33c-2.81-1.55-5.26-3.75-8.2-5.08-1.11-.5-5.43-2.94-6.65-3.57-4.37-2.24-17.17-10-19.87-10.61a27,27,0,0,1-6.92-3,31.51,31.51,0,0,0-6.93-2.58c-2.51-.74-4.66-2-7.25-2.7s-5-1.77-7.61-2.43c-1.35-.34-13.31-2.59-15.83-3.27a8.53,8.53,0,0,0-3.69-.43,8.28,8.28,0,0,1-2.33-.18A63.87,63.87,0,0,0,370.07,346c-2.4,0-4.8,0-7.2,0-2.05,0-3.92-.6-6-.6h-20c-2,0-9.78.6-11.86.6-1.87,0-4.25-.4-6.06,0-2.49.5-18.8,1.67-21.06,2.29s-12.39,2.26-18.63,4.35a30.89,30.89,0,0,1,6.63.47c.95.21,5.28,2,6,2.36a32.39,32.39,0,0,0,3,1.69c1.05.38,2,.87,3,1.35,2,.94,18,9.85,18.63,10.39,1,.87,2.27,1.22,3.32,2.07a38.44,38.44,0,0,0,3.31,2.24c2.38,1.55,4.32,3.64,6.63,5.3s11.66,9.39,13.1,10.26c2.6,1.56,8.68,8.07,9.87,9,.75.58,3.82,3.38,4.68,4.22a64.75,64.75,0,0,1,6,6.14c1.91,2.44,4.15,4.53,6,6.95,1,1.24,22,20.48,35.49,48.25l1.2,1.81c2.59,1.08,5.12,2.32,7.69,3.47a42.51,42.51,0,0,0,7.35,2.09c3,.74,12.15,3.07,13.71,3.62a11.38,11.38,0,0,0,3,.41c2.13.22,11.37,1.23,14.05,1.23,4.6,0,16.55,1.6,45,.6C497,476.5,533.93,473.27,539.71,469.89Z" transform="translate(-154 -22.02)" fill="#e10e49"/>
        <path d="M541.16,469.49c-2.39-8-7.18-15.39-11.42-22.46-4.65-7.77-9.51-15.46-14.71-22.89-5.37-7.68-11.24-15.05-18.34-21.17-8-6.91-14.83-15.17-23.9-20.76s-18.47-10.71-27.81-16c-9.49-5.35-19.43-9.14-29.61-13-23.3-8.78-49.11-9.4-73.65-9.39-20.85,0-42.82.87-62.86,7.27a1.5,1.5,0,0,0,.4,2.94c10.38,0,19.76,6.59,28.61,11.53A182.42,182.42,0,0,1,333,382.83c7.12,5.69,13.84,11.51,20.63,17.58C361,407,367.27,414.67,374,421.87a179.47,179.47,0,0,1,24.82,33.07c1.77,3.06,3.21,6.34,5,9.37,1.34,2.24,3,2.68,5.41,3.78,5.77,2.64,11.66,4,17.78,5.58,17.41,4.5,36.18,4.74,54.13,4.66a277.8,277.8,0,0,0,30.8-1.87c5.72-.65,11.44-1.37,17.12-2.33,3.75-.64,8-1.13,11.36-2.95,1.7-.91.19-3.5-1.51-2.59-3.13,1.67-7.21,2.06-10.64,2.64-5.25.89-10.53,1.56-15.82,2.17-8.29,1-16.44,1.7-24.79,1.85-10.72.2-21.4-.08-32.1-.69-8.42-.48-16.74-.88-24.92-3-6.14-1.62-12.57-2.71-18.37-5.32-2.89-1.3-4.92-1.74-6.43-4.47-2.07-3.72-3.93-7.53-6.14-11.18a185.72,185.72,0,0,0-23.29-30.48c-6.6-7-12.81-14.53-19.92-21-6.74-6.15-13.48-11.94-20.6-17.64a193.58,193.58,0,0,0-27-18.63c-9.27-5.17-18.75-11.63-29.66-11.68l.4,3c17.51-5.59,35.58-6,53.7-7,6.53-.37,13.1-.16,19.63-.16,3.33,0,6.57.47,9.88.61,4.84.21,9.58-.14,14.41.56,9,1.33,18,2.71,26.94,4.81,20.12,4.76,38.1,15.48,56.11,25.21a107.37,107.37,0,0,1,18.34,12.07c3.55,3,6.76,6.51,10.16,9.71s7.37,6.14,10.63,9.55c4.07,4.26,7.45,9.13,11.14,13.71,5.19,6.45,9.47,13.91,13.81,20.94,5.05,8.19,11.07,16.94,13.86,26.25C538.82,472.13,541.72,471.34,541.16,469.49Z" transform="translate(-154 -22.02)"/>
      </g>
      <g>
        <path d="M654.09,686.22c-1.53-1.2-2.08-3.28-2.7-5.11-.57-1.66-1.44-3-2.08-4.7-1.13-3-2.1-6.16-3.34-9.08-.73-1.73-1.8-3.15-2.48-4.89a20.49,20.49,0,0,0-2.41-4.93c-2-2.82-3.31-6.34-4.91-9.41-.82-1.56-1.7-3.1-2.42-4.69-.34-.76-1.93-4.44-2.39-5.63-.65-1.67-7.18-18.1-8.23-19.7-.78-1.19-1.93-5.42-2.23-6.33-2.4-8.25-1.49-16.7-1.48-18.4,0-2.36,1-3.33,2.7-4.88,2.43-2.18,6.49-1.85,9.39-.77.93.34,3.91,2,4.67,2.41,2.05,1.07,2.67,3.09,4.17,4.66,2.91,3,4.46,7.12,6.87,10.44a19.09,19.09,0,0,1,2.15,4.86c.33.9.92,1.69,1.17,2.62s.21,2,.56,3c.56,1.64,1.07,3.28,1.63,4.91s1.44,3.39,1.84,5.09c.37,1.55,0,2.93.56,4.46a22,22,0,0,1,1.37,6,26.18,26.18,0,0,0,1.48,6.52c.34,1.12.68,2.24,1,3.36s1.78,5.81,2.21,7,1.11,2.38,1.54,3.61a48.72,48.72,0,0,1,1.94,5.8c.5,2.33,4.27,12.63,4.69,13.67s.68,2.37,1.16,3.49,1.14,2,1.62,3c.86,1.86,2,3.87,2.23,6l-.6.59a16,16,0,0,1,6.14,1c1.74.77,3.76,8.22,4.34,10s.25,3.71.27,5.53c0,3.27-1.6,6.42-2.68,9.47-.39,1.11-3.59,1.88-4.37,1.58a28.32,28.32,0,0,0-4.9-1.31c-1-.19-4.33-.58-5.06-.67s-3.74-.55-4.63-.59c-3.07-.12-5.87-1.19-9-1.18-1.41,0-3.57.47-4.68-.55s-1.49-3.1-2-4.53a45.62,45.62,0,0,1-1.51-9c0-3.11-.35-6.32.73-9.27.57-1.56,1-2.37,2.6-2.39,1.48,0,3,0,4.44,0" transform="translate(-154 -22.02)" fill="#67d3e5"/>
        <path d="M655.15,685.16c-2.94-3.13-4.61-9.77-6-13.72s-3.2-7.36-4.85-11.07c-3.09-6.93-7.38-13.34-10.37-20.37-3.64-8.55-8-17.32-10.79-26.15-1.91-6-4.37-15.85-1.53-22,2.45-5.29,8.53-3.57,12.5-1.2,3.58,2.13,6.48,6.42,8.6,10a85.73,85.73,0,0,1,10.25,25.15c1.71,7.76,3,15.41,5.41,23.06,2.07,6.63,4.48,13.17,6.75,19.74.89,2.56,1.86,5.1,2.76,7.66.63,1.77,5.44,11.36,4.91,11.89a1.51,1.51,0,0,0,1.06,2.56c5.87.17,6.81,2.8,8.35,7.75a19.38,19.38,0,0,1,.52,10.19c-.42,1.86-1.37,5.58-3.24,6.52s-4.63-.73-6.44-1c-2.07-.37-4.17-.56-6.26-.84-3.52-.47-7-1.11-10.56-1.5-4.32-.47-6.21.48-7.62-4.49a38.76,38.76,0,0,1-1.34-8.21c-.13-2.15-.45-5.35.25-7.37,1-3,3.3-2.8,6-2.79a1.5,1.5,0,0,0,0-3c-4.87,0-7.68-.29-8.92,5-1.09,4.67-.39,10.14.54,14.8.64,3.23,1.49,7.95,5.16,8.88,2.1.52,4.77.06,6.9.35,1.32.19,2.61.52,3.94.69,2.23.29,4.48.51,6.72.8,4,.52,9,3,12.86,1.45s5-7.64,5.32-11.25c.41-4.79-.68-9-2.49-13.42-1.92-4.67-4.68-5.35-9.71-5.5l1.06,2.57c2-2,.35-4.72-.71-6.95-1.78-3.74-3.32-7.5-4.72-11.39-2.49-6.88-4.89-13.81-7.23-20.72-1.27-3.73-2.55-7.58-3.52-11.39-1.36-5.32-1.5-11-3.21-16.24-3.15-9.64-6-18.71-11.88-27.12-3.82-5.44-8.44-10.47-15.53-11-7.26-.57-10.08,4.58-10.29,10.87-.49,14.62,6,26.45,11.23,39.62A147.15,147.15,0,0,0,639,657a87.84,87.84,0,0,1,7.27,15.22c1.76,4.92,3.18,11.19,6.8,15,1.33,1.41,3.45-.72,2.12-2.12Z" transform="translate(-154 -22.02)"/>
      </g>
      <g>
        <path d="M496.5,286.5c-2,4-4.7,8.44-6.17,11.92-1.76,4.18-48.47,91.71-51.73,96.77-5.88,9.14-38,68.16-39.39,73.37-1.75,6.75-13.51,27.07-15.13,31.51-2,5.63-14.08,26.06-17,30.69-1.11,1.78-12.8,21.82-15.84,25.83-2.16,2.85-5.9,10.23-5.17,13.93,1.07,5.4,8.86,4.39,11.53,1.57,4.31-4.58,6.2-9.71,9.39-14.88,2.9-4.7,5.47-10,8.72-14.43,1.71-2.33,19.35-36.74,21.26-41.6,2-5.2,10.53-23.13,12.86-27.12,8.63-17.56,21.63-42.56,30.6-60.82,2-5.78,57.7-111.14,61-115.74" transform="translate(-154 -22.02)" fill="#67d3e5"/>
        <path d="M495.2,285.74c-18.18,35.44-36.63,70.84-56.11,105.59-9.15,16.34-18.53,32.52-27.36,49-9.69,18.14-18,36.76-27.19,55.16a600.54,600.54,0,0,1-32.33,57c-3.1,4.82-7,9.73-7.59,15.65-.52,5.08,3.16,8.15,8.11,7.63,7-.73,10.23-8.21,13.2-13.63,3.71-6.8,7.94-13.28,11.89-19.92,11.17-18.78,19.41-39.14,28.92-58.75,12-24.82,25.06-49.5,37.15-74.07,17.76-36.1,36.73-71.86,56.42-106.94a48.49,48.49,0,0,1,2.49-4.24c1.11-1.59-1.49-3.09-2.6-1.52-2.77,3.95-4.86,8.53-7.16,12.76q-7.29,13.39-14.42,26.88c-10.53,19.79-21,39.61-31.24,59.55-10.07,19.59-19.69,39.41-29.64,59.07-10.76,21.25-20.43,43-31.23,64.22-4.67,9.2-9.44,18.2-14.83,27-2.35,3.82-4.55,7.77-6.79,11.66-2.44,4.24-4.49,10-8.31,13.16s-10.05,2.29-8.74-3.74a29.45,29.45,0,0,1,4.87-10.12c5.67-8.27,10.53-17.07,15.71-25.65,5.86-9.71,12.2-19.52,16.68-30s11-20,14.92-30.63c2.51-6.92,6-13.37,9.46-19.88,9.75-18.6,19.67-37.19,30.49-55.2,8.75-14.56,16.36-29.91,24.37-44.89,8.9-16.65,18.14-33.19,26.49-50.13,2.25-4.56,4.64-9,7-13.55.88-1.72-1.71-3.24-2.6-1.52Z" transform="translate(-154 -22.02)"/>
      </g>
      <path d="M495.35,285.88c1.37,1.51,1.82,3.57,2.53,5.41.78,2,1.9,3.86,2.28,6,.33,1.9,3.22,1.1,2.89-.8-.46-2.67-1.93-5-2.76-7.57a14.55,14.55,0,0,0-2.82-5.2c-1.29-1.44-3.41.69-2.12,2.12Z" transform="translate(-154 -22.02)"/>
      <path d="M446.81,553.59c-1.2,1.23-2.71,2-4,3.16-1.55,1.43-2.68,3.27-4.08,4.83-2.95,3.26-5.8,6.62-8.87,9.77-1.35,1.38.77,3.5,2.12,2.12,3.07-3.15,5.93-6.51,8.87-9.77,1.29-1.43,2.34-3.12,3.72-4.47s3-2.16,4.32-3.52-.77-3.5-2.12-2.12Z" transform="translate(-154 -22.02)"/>
      <path d="M462.33,547.44c-4.1,2.32-7,6.4-9.94,9.95-2.33,2.81-6.93,6-6.86,9.94,0,1.93,3,1.94,3,0,0-1.78,2.61-3.85,3.69-5.12,1.26-1.49,2.54-3,3.75-4.5,2.18-2.74,4.77-5.92,7.88-7.68a1.5,1.5,0,0,0-1.52-2.59Z" transform="translate(-154 -22.02)"/>
      <path d="M471.33,549.37c-3.58,3.83-7.28,8.36-9.42,13.15-2.29,5.13-7.52,10.89-11.72,14.74-1.42,1.31.7,3.43,2.12,2.12a80.75,80.75,0,0,0,10.35-11.88c1.72-2.39,2.54-5.17,4.23-7.6a78,78,0,0,1,6.56-8.41c1.31-1.41-.8-3.54-2.12-2.12Z" transform="translate(-154 -22.02)"/>
      <path d="M475.55,557a41.25,41.25,0,0,0-3.33,5.48c-1.49,2.63-3.6,4.8-5.21,7.34-1.36,2.15-2.16,4.59-3.5,6.74S460.6,580.46,460,583c-.48,1.87,2.41,2.67,2.89.8.64-2.49,2.38-4.25,3.63-6.42,1.14-2,1.92-4.14,3.13-6.08s2.73-3.52,4-5.35c1.51-2.2,2.42-4.76,4.09-6.85,1.2-1.5-.91-3.64-2.12-2.13Z" transform="translate(-154 -22.02)"/>
      <path d="M487.85,551.72a19.18,19.18,0,0,1-4.8,9.42c-2.57,2.53-3.55,5.74-5.81,8.52-1.2,1.48.91,3.62,2.13,2.12a36.16,36.16,0,0,0,3.1-5,37.31,37.31,0,0,1,3.73-4.73,23.21,23.21,0,0,0,4.54-9.57c.38-1.89-2.51-2.7-2.89-.8Z" transform="translate(-154 -22.02)"/>
      <path d="M493.92,557.28a120.34,120.34,0,0,1-7.11,13.89C484.5,575,481,578,478.7,581.79a1.5,1.5,0,0,0,2.59,1.52c2.32-3.84,5.81-6.79,8.11-10.63a122.74,122.74,0,0,0,7.11-13.89c.76-1.75-1.82-3.28-2.59-1.51Z" transform="translate(-154 -22.02)"/>
      <path d="M431.59,557c-4.42,3.47-7.9,7.87-11.83,11.84-1.36,1.37.76,3.5,2.12,2.12,3.93-4,7.42-8.37,11.83-11.83,1.52-1.19-.61-3.3-2.12-2.13Z" transform="translate(-154 -22.02)"/>
      <path d="M419.76,560.36c-1.39,1.22-2.35,2.8-3.65,4.11a38.09,38.09,0,0,1-4.5,4.11c-1.56,1.11-.06,3.71,1.51,2.59a47.25,47.25,0,0,0,4.73-4.21c1.48-1.38,2.51-3.15,4-4.48s-.67-3.39-2.12-2.12Z" transform="translate(-154 -22.02)"/>
      <path d="M411.3,559.51a30,30,0,0,0-5.3,6.22,1.5,1.5,0,0,0,2.59,1.52,27,27,0,0,1,4.84-5.62,1.5,1.5,0,0,0-2.13-2.12Z" transform="translate(-154 -22.02)"/>
      <path d="M591.83,551.72c-.44,2.57-3.09,4.48-4.73,6.35-1.81,2.07-3.64,4.2-5.35,6.35a176.89,176.89,0,0,0-13,18.09,72.48,72.48,0,0,1-5.53,7.75c-2.25,2.85-3.46,5.92-6.13,8.57a60.33,60.33,0,0,0-5.48,6.46c-2.14,2.85-3.47,6.66-5.92,9.17-1.35,1.38.77,3.51,2.12,2.12,2.24-2.3,3.18-5.27,5-7.89a66.32,66.32,0,0,1,7-8.32c2.71-2.8,4-6.22,6.56-9.08a46.84,46.84,0,0,0,5-7.27,151.3,151.3,0,0,1,14.27-19.59c2.77-3.24,8.33-7.53,9.08-11.91.33-1.89-2.56-2.7-2.89-.8Z" transform="translate(-154 -22.02)"/>
      <path d="M606.59,551.9c-4.27,5.06-8.67,10.3-12.5,15.69-3.45,4.85-8,9.43-10.82,14.61-3.21,5.91-8.68,11.55-12.94,16.71a147.11,147.11,0,0,0-13,17.54,1.5,1.5,0,0,0,2.59,1.52c3.93-6.56,8.87-12.48,13.73-18.36,3.89-4.72,8.62-9.52,11.68-14.82,2.83-4.92,6.81-9,10.06-13.72,4-5.83,8.77-11.63,13.33-17.05,1.23-1.46-.88-3.6-2.12-2.12Z" transform="translate(-154 -22.02)"/>
      <path d="M615.89,552.75a23.58,23.58,0,0,0-3,5.23c-1.27,2.78-3,4.7-4.84,7.07-3.82,4.92-7.91,9.69-11.59,14.71-4.07,5.55-7.36,11.47-11.8,16.75-1.53,1.81-2.69,4-4.25,5.71-1.32,1.46-2.28,1.68-2.95,3.6s2.26,2.61,2.89.8c.4-1.13,2.45-2.58,3.17-3.53,1.81-2.4,3.65-4.76,5.55-7.1,3.56-4.38,6.18-9.44,9.47-14s7.18-8.7,10.52-13.26c1.56-2.12,3.47-4,4.9-6.22,1.59-2.44,2.2-5.33,4-7.64,1.19-1.5-.92-3.63-2.12-2.12Z" transform="translate(-154 -22.02)"/>
      <path d="M624.64,561c-4.41,2.66-7.23,6.71-9.63,11.19-3.26,6.08-5.66,11.84-10.09,17.26-4,4.87-7.89,9.24-11.42,14.46-2.66,3.93-6.6,9-7.59,13.78-.39,1.88,2.5,2.69,2.9.8,1-4.82,5.14-9.89,7.8-13.85,3.5-5.2,7.63-9.57,11.55-14.43a62.17,62.17,0,0,0,7.55-12.79c2.52-5.24,5.32-10.74,10.45-13.83a1.5,1.5,0,0,0-1.52-2.59Z" transform="translate(-154 -22.02)"/>
      <path d="M611.22,594.39c0,2.74-2.93,5.06-4.34,7.24-1.7,2.63-3.47,5.3-4.06,8.42-.36,1.89,2.53,2.7,2.89.8.69-3.6,3.13-7,5.35-9.87,1.54-2,3.2-4,3.16-6.59,0-1.93-3-1.94-3,0Z" transform="translate(-154 -22.02)"/>
      <path d="M613.76,609.6c.13,2-1.36,3.6-1.64,5.52a1.56,1.56,0,0,0,1,1.85,1.51,1.51,0,0,0,1.84-1.05c.33-2.23,1.91-4,1.75-6.32-.14-1.91-3.14-1.93-3,0Z" transform="translate(-154 -22.02)"/>
      <path d="M481.77,401.19a7,7,0,0,0-2.33,3.45c-.63,1.51-1.91,2.42-3,3.55a1.5,1.5,0,0,0,2.12,2.12,21.41,21.41,0,0,0,3-3.16c.65-1,.77-2.63,1.76-3.37,1.53-1.14,0-3.74-1.52-2.59Z" transform="translate(-154 -22.02)"/>
      <path d="M489.92,407.34c-1.82,1.5-2.8,3.62-4.11,5.53a23.49,23.49,0,0,0-1.76,2.58c-.64,1.24-.77,2.69-1.73,3.73-1.32,1.41.8,3.53,2.12,2.12,1.58-1.7,1.85-4,3.19-5.87s2.51-4.4,4.42-6c1.49-1.22-.64-3.33-2.13-2.12Z" transform="translate(-154 -22.02)"/>
      <path d="M493.92,412.72c-2,4-4.28,7.81-6.64,11.58-1.62,2.59-4.68,4.3-5.35,7.37-.41,1.89,2.48,2.69,2.89.8.37-1.69,2-2.63,3-3.86a26.24,26.24,0,0,0,2.64-3.82c2.1-3.47,4.2-6.93,6-10.56.86-1.72-1.73-3.24-2.59-1.51Z" transform="translate(-154 -22.02)"/>
      <path d="M499.22,421.71c-1.4,1.54-2,3.36-3,5.12-1.3,2.2-3.31,3.89-4.51,6.17a23.81,23.81,0,0,1-3.85,5.63,32.52,32.52,0,0,0-4.09,6.21c-.95,1.68,1.64,3.2,2.59,1.52a33.52,33.52,0,0,1,4.57-6.5,11.9,11.9,0,0,0,2.69-3.75c1.16-2.58,2.91-4.4,4.48-6.7,1.22-1.78,1.77-4,3.25-5.58,1.3-1.42-.82-3.54-2.13-2.12Z" transform="translate(-154 -22.02)"/>
      <path d="M504.7,429.54c0,3.69-3.22,7-5.28,9.77-2.49,3.33-5.34,6.25-7.95,9.47-1.8,2.24-3.25,4.68-4.87,7.05-1.45,2.12-2.2,4.76-3.67,6.77-1.15,1.55,1.46,3,2.59,1.51s1-2.77,1.85-4.27c.63-1.14,1.81-2.36,2.56-3.51a91.62,91.62,0,0,1,7.84-10.16c3.77-4.29,10-10.57,9.93-16.63a1.5,1.5,0,0,0-3,0Z" transform="translate(-154 -22.02)"/>
      <path d="M512.31,437.15c-.48,6.48-5.69,12.35-9.22,17.56-2.32,3.43-6.62,6.8-6.84,11.18-.1,1.93,2.9,1.92,3,0,.13-2.64,3.51-5.43,5-7.55,1.72-2.48,3.35-5,5-7.52,2.9-4.31,5.63-8.36,6-13.67.14-1.93-2.86-1.92-3,0Z" transform="translate(-154 -22.02)"/>
      <path d="M519.92,447.29c.18,2.79-2,4.81-3.16,7.18-1,2.14-1.34,4.47-3.16,6.13-1.43,1.31.69,3.42,2.12,2.12,2.28-2.08,2.59-4.83,4-7.44s3.42-4.79,3.21-8c-.13-1.92-3.13-1.93-3,0Z" transform="translate(-154 -22.02)"/>
      <path d="M524.15,457.43c0,1,.46,2.45-.41,3.17a1.51,1.51,0,0,0,0,2.12,1.53,1.53,0,0,0,2.12,0c1.66-1.37,1.3-3.39,1.29-5.29a1.5,1.5,0,0,0-3,0Z" transform="translate(-154 -22.02)"/>
    </g>
  </g>
</svg>
