<?xml version="1.0" encoding="utf-8"?>
<!-- Generator: Adobe Illustrator 22.0.1, SVG Export Plug-In . SVG Version: 6.00 Build 0)  -->
<svg version="1.1" id="Layer_1" xmlns="http://www.w3.org/2000/svg" xmlns:xlink="http://www.w3.org/1999/xlink" x="0px" y="0px"
	 viewBox="0 0 200 400" style="enable-background:new 0 0 200 400;" xml:space="preserve">
<style type="text/css">
	.st0{fill:#141414;stroke:#F8E71C;stroke-width:0;stroke-miterlimit:10;}
	.st1{fill:none;stroke:#F8E71C;stroke-width:1.2971;stroke-miterlimit:10;}
	.st2{fill:none;stroke:#F8E71C;stroke-width:0.3243;stroke-miterlimit:10;}
	.st3{fill:none;stroke:#F8E71C;stroke-width:0.6485;stroke-miterlimit:10;}
	.st4{clip-path:url(#SVGID_2_);}
	.st5{clip-path:url(#SVGID_4_);fill:#022951;}
	.st6{clip-path:url(#SVGID_4_);fill:#FFFFFF;}
	.st7{clip-path:url(#SVGID_4_);fill:none;stroke:#022951;stroke-width:0.1455;stroke-miterlimit:10;}
	.st8{clip-path:url(#SVGID_4_);fill:#00B8EA;}
	.st9{clip-path:url(#SVGID_4_);}
	.st10{clip-path:url(#SVGID_4_);fill:#E10E49;}
	.st11{clip-path:url(#SVGID_6_);fill:#022951;}
	.st12{clip-path:url(#SVGID_6_);}
	.st13{clip-path:url(#SVGID_8_);fill:#FFFFFF;}
	.st14{clip-path:url(#SVGID_8_);fill:#699E47;}
	.st15{clip-path:url(#SVGID_8_);fill:#F8E71C;}
	.st16{clip-path:url(#SVGID_8_);fill:#9EC486;}
	.st17{clip-path:url(#SVGID_8_);fill:#022951;}
	.st18{clip-path:url(#SVGID_8_);fill:#00B8EA;}
	.st19{clip-path:url(#SVGID_10_);}
	.st20{clip-path:url(#SVGID_12_);fill:#022951;}
	.st21{clip-path:url(#SVGID_12_);fill:#FFFFFF;}
	.st22{clip-path:url(#SVGID_12_);fill:#F8E71C;}
	.st23{clip-path:url(#SVGID_12_);fill:#00B8EA;}
	.st24{clip-path:url(#SVGID_12_);fill:#FFB324;}
	.st25{clip-path:url(#SVGID_14_);}
	.st26{clip-path:url(#SVGID_16_);fill:#022951;}
	.st27{clip-path:url(#SVGID_16_);fill:#00B8EA;}
	.st28{clip-path:url(#SVGID_16_);fill:#F8E71C;}
	.st29{fill:none;stroke:#F8E71C;stroke-width:1.2971;stroke-linecap:round;stroke-miterlimit:10;}
	.st30{fill:none;stroke:#F8E71C;stroke-width:0.4864;stroke-linecap:round;stroke-miterlimit:10;}
	.st31{fill:none;stroke:#F8E71C;stroke-width:0.4864;stroke-miterlimit:10;}
	.st32{fill:none;stroke:#F8E71C;stroke-width:0.6485;stroke-linecap:round;stroke-miterlimit:10;}
</style>
<path class="st0" d="M144.4,41.6"/>
<path class="st0" d="M158.5,30.1"/>
<g id="cirkel1">
	<path id="linje1_2_" class="st1" d="M138.6,364.6c-8.1,6.6-19.3,9.7-29.7,8.1c-7.3-1.1-14.6-4.7-20.4-9.3c-2.4-1.9-4-4.6-5.8-6.6
		c-6.5-7.7-8.5-17.5-7.3-28.3c1-8.7,5.4-15.2,11-21.9c5.5-6.6,13.4-10.7,22-11.5c5.2-0.5,8.9-0.7,14.4,0c2.2,0.3,5.3,1.8,7.5,2.6
		c1.7,0.7,3.3,1.5,4.8,2.5c4.6,2.9,7.9,5.2,10.7,9.8c1.3,2.1,2.3,3.5,3.4,5.7c3.2,6.2,5.1,12.3,4.5,19.6c-0.2,2.8-0.1,5.7-0.8,8.4
		c-0.6,2.1-1.6,4-2.7,5.9C146.8,355.5,144,360.2,138.6,364.6z"/>
	<path id="linje2_2_" class="st2" d="M138,363.6c-7.9,6.4-18.7,9.4-28.7,7.9c-7.1-1.1-14.1-4.5-19.7-9c-2.3-1.8-3.9-4.4-5.6-6.4
		c-6.3-7.4-8.3-16.9-7.1-27.3c1-8.4,5.2-14.7,10.6-21.1c5.3-6.4,13-10.4,21.2-11.1c5-0.4,8.6-0.6,13.9,0c2.2,0.3,5.1,1.7,7.2,2.5
		c1.6,0.6,3.2,1.4,4.7,2.4c4.4,2.8,7.7,5.1,10.4,9.5c1.2,2,2.2,3.4,3.3,5.5c3.1,6,4.9,11.9,4.3,18.9c-0.2,2.7-0.1,5.5-0.8,8.1
		c-0.6,2-1.5,3.9-2.6,5.7C145.9,354.8,143.2,359.4,138,363.6z"/>
	<path id="linje3_2_" class="st3" d="M91.7,361.8c-7.6-6-12.7-15.5-13.4-25.2c-0.5-6.9,1.3-14.2,4.2-20.4c1.2-2.5,3.3-4.6,4.8-6.6
		c5.6-7.4,14-11.3,24.1-12.4c8.1-0.9,14.8,1.8,22,5.5c7.1,3.6,12.5,9.9,14.9,17.5c1.5,4.6,2.4,7.9,2.9,13c0.2,2.1-0.5,5.2-0.8,7.3
		c-0.2,1.7-0.7,3.3-1.2,4.9c-1.6,4.7-3.1,8.3-6.7,11.7c-1.6,1.6-2.7,2.8-4.4,4.2c-4.9,4.2-10.1,7.1-16.8,8c-2.6,0.3-5.1,1.1-7.7,0.9
		c-2-0.1-4-0.6-5.9-1.2C101.6,367.3,96.7,365.7,91.7,361.8z"/>
</g>
<g id="cirkel2">
	<path id="linje1" class="st2" d="M104,232.5c-8.4,6.8-19.9,10-30.5,8.4c-7.5-1.1-15-4.8-21-9.6c-2.4-1.9-4.2-4.7-6-6.8
		c-6.7-7.9-8.8-18-7.5-29.1c1-9,5.6-15.6,11.3-22.5c5.7-6.8,13.8-11.1,22.6-11.8c5.4-0.5,9.1-0.7,14.8,0c2.3,0.3,5.5,1.8,7.7,2.7
		c1.7,0.7,3.4,1.5,5,2.5c4.7,2.9,8.2,5.4,11,10.1c1.3,2.1,2.3,3.6,3.5,5.8c3.3,6.4,5.3,12.7,4.6,20.2c-0.3,2.9-0.1,5.8-0.9,8.6
		c-0.6,2.1-1.6,4.1-2.8,6.1C112.3,223.2,109.4,228.1,104,232.5z"/>
	<path id="linje2" class="st1" d="M104.6,233.6c-8.7,7-20.6,10.3-31.6,8.7c-7.8-1.2-15.6-5-21.8-9.9c-2.5-2-4.3-4.9-6.2-7.1
		c-6.9-8.2-9.1-18.6-7.8-30.1c1.1-9.3,5.8-16.2,11.7-23.3c5.9-7,14.3-11.5,23.5-12.3c5.5-0.5,9.5-0.7,15.4,0c2.4,0.3,5.7,1.9,8,2.8
		c1.8,0.7,3.5,1.6,5.2,2.6c4.9,3,8.5,5.6,11.4,10.5c1.3,2.2,2.4,3.8,3.6,6c3.5,6.6,5.4,13.1,4.8,20.9c-0.3,3-0.1,6-0.9,8.9
		c-0.6,2.2-1.7,4.3-2.8,6.3C113.3,223.9,110.3,229,104.6,233.6z"/>
	<path id="linje3_1_" class="st3" d="M54.5,230.7c-8.1-6.4-13.6-16.5-14.3-26.8c-0.5-7.3,1.3-15.1,4.5-21.7c1.3-2.7,3.5-4.9,5.1-7
		c6-7.9,15-12,25.7-13.2c8.6-0.9,15.8,1.9,23.5,5.8c7.6,3.9,13.3,10.6,15.9,18.7c1.6,4.9,2.6,8.4,3.1,13.9c0.2,2.2-0.5,5.5-0.9,7.8
		c-0.3,1.8-0.7,3.5-1.3,5.2c-1.8,5-3.3,8.8-7.1,12.5c-1.7,1.7-2.9,2.9-4.7,4.5c-5.2,4.5-10.8,7.6-17.9,8.6c-2.8,0.4-5.5,1.2-8.2,1
		c-2.1-0.1-4.2-0.7-6.3-1.3C65.1,236.5,59.9,234.9,54.5,230.7z"/>
</g>
<g id="cirkel3">
	<path id="linje1_1_" class="st3" d="M137.3,93.3c-7.1,5.8-16.9,8.5-26,7.1c-6.4-1-12.8-4.1-17.9-8.2c-2.1-1.7-3.5-4-5.1-5.8
		c-5.7-6.7-7.5-15.3-6.4-24.8c0.9-7.7,4.7-13.3,9.6-19.2c4.8-5.8,11.8-9.4,19.3-10.1c4.6-0.4,7.8-0.6,12.6,0c2,0.2,4.7,1.5,6.6,2.3
		c1.5,0.6,2.9,1.3,4.3,2.2c4,2.5,7,4.6,9.4,8.6c1.1,1.8,2,3.1,3,5c2.8,5.4,4.5,10.8,3.9,17.2c-0.2,2.5-0.1,5-0.7,7.3
		c-0.5,1.8-1.4,3.5-2.3,5.2C144.5,85.3,142,89.5,137.3,93.3z"/>
	<path id="linje2_1_" class="st2" d="M136.8,92.4c-6.9,5.6-16.4,8.2-25.1,6.9c-6.2-0.9-12.4-4-17.3-7.9c-2-1.6-3.4-3.9-4.9-5.6
		c-5.5-6.5-7.2-14.8-6.2-23.9c0.9-7.4,4.6-12.9,9.3-18.5c4.7-5.6,11.4-9.1,18.6-9.7c4.4-0.4,7.5-0.6,12.2,0c1.9,0.2,4.5,1.5,6.3,2.2
		c1.4,0.6,2.8,1.3,4.1,2.1c3.9,2.4,6.7,4.4,9.1,8.3c1.1,1.7,1.9,3,2.9,4.8c2.7,5.2,4.3,10.4,3.8,16.6c-0.2,2.4-0.1,4.8-0.7,7.1
		c-0.5,1.8-1.3,3.4-2.3,5C143.7,84.6,141.3,88.7,136.8,92.4z"/>
	<path id="linje3" class="st3" d="M96.1,90.8C89.4,85.6,85,77.2,84.3,68.7c-0.4-6,1.1-12.4,3.7-17.9c1.1-2.2,2.9-4,4.2-5.8
		c4.9-6.5,12.3-9.9,21.1-10.9c7.1-0.8,13,1.6,19.3,4.8c6.2,3.2,10.9,8.7,13.1,15.4c1.3,4,2.1,6.9,2.6,11.4c0.2,1.8-0.4,4.5-0.7,6.4
		c-0.2,1.5-0.6,2.9-1.1,4.3c-1.4,4.1-2.7,7.2-5.9,10.3c-1.4,1.4-2.4,2.4-3.9,3.7c-4.3,3.7-8.9,6.3-14.7,7c-2.3,0.3-4.5,1-6.8,0.8
		c-1.8-0.1-3.5-0.5-5.2-1.1C104.8,95.6,100.5,94.3,96.1,90.8z"/>
</g>
<g id="clock_2_">
	<g>
		<defs>
			
				<rect id="SVGID_1_" x="48.5" y="167.5" transform="matrix(4.914155e-02 -0.9988 0.9988 4.914155e-02 -122.693 266.8731)" width="60.7" height="60.7"/>
		</defs>
		<clipPath id="SVGID_2_">
			<use xlink:href="#SVGID_1_"  style="overflow:visible;"/>
		</clipPath>
		<g class="st4">
			<defs>
				
					<rect id="SVGID_3_" x="48.5" y="167.5" transform="matrix(4.914155e-02 -0.9988 0.9988 4.914155e-02 -122.693 266.8731)" width="60.7" height="60.7"/>
			</defs>
			<clipPath id="SVGID_4_">
				<use xlink:href="#SVGID_3_"  style="overflow:visible;"/>
			</clipPath>
			<path class="st5" d="M109.1,199.4c-0.8,16.7-15.1,29.6-31.8,28.8c-16.7-0.8-29.6-15.1-28.8-31.8c0.8-16.7,15.1-29.6,31.8-28.8
				C97,168.4,109.9,182.6,109.1,199.4"/>
			<path class="st6" d="M106.7,199.2c-0.8,15.4-13.9,27.3-29.2,26.5c-15.4-0.8-27.3-13.9-26.5-29.2s13.9-27.3,29.2-26.5
				S107.4,183.9,106.7,199.2"/>
			
				<ellipse transform="matrix(0.2085 -0.978 0.978 0.2085 -131.1432 233.704)" class="st7" cx="78.8" cy="197.9" rx="27.9" ry="27.9"/>
			<path class="st8" d="M81.3,176.6c0,0.8-0.7,1.4-1.5,1.3c-0.8,0-1.4-0.7-1.3-1.5c0-0.8,0.7-1.4,1.5-1.3
				C80.7,175.1,81.3,175.8,81.3,176.6"/>
			<path class="st8" d="M104,199.1c0,0.8-0.7,1.4-1.5,1.3c-0.8,0-1.4-0.7-1.3-1.5c0-0.8,0.7-1.4,1.5-1.3
				C103.4,197.7,104,198.3,104,199.1"/>
			<path class="st8" d="M57,196.8c0,0.8-0.7,1.4-1.5,1.3c-0.8,0-1.4-0.7-1.3-1.5c0-0.8,0.7-1.4,1.5-1.3C56.4,195.4,57,196,57,196.8"
				/>
			<path class="st8" d="M79.2,217.6c0,0.8-0.7,1.4-1.5,1.3c-0.8,0-1.4-0.7-1.3-1.5c0-0.8,0.7-1.4,1.5-1.3
				C78.7,216.2,79.3,216.9,79.2,217.6"/>
			<polygon class="st9" points="82.3,196.7 88.4,198.4 82.1,199.2 			"/>
			<polygon class="st9" points="77.7,194.5 79.6,182 80.2,194.6 			"/>
			<path class="st5" d="M82.6,198.1c-0.1,2.1-1.9,3.7-4,3.6c-2.1-0.1-3.7-1.9-3.6-4c0.1-2.1,1.9-3.7,4-3.6
				C81.1,194.2,82.7,196,82.6,198.1"/>
			<path class="st10" d="M81.5,198c-0.1,1.5-1.3,2.6-2.8,2.6c-1.5-0.1-2.6-1.3-2.6-2.8c0.1-1.5,1.3-2.6,2.8-2.6
				C80.4,195.3,81.6,196.5,81.5,198"/>
			<path class="st7" d="M81.5,198c-0.1,1.5-1.3,2.6-2.8,2.6c-1.5-0.1-2.6-1.3-2.6-2.8c0.1-1.5,1.3-2.6,2.8-2.6
				C80.4,195.3,81.6,196.5,81.5,198z"/>
		</g>
	</g>
</g>
<g id="sedler_2_">
	<g>
		<defs>
			
				<rect id="SVGID_5_" x="100.2" y="38.8" transform="matrix(0.3131 -0.9497 0.9497 0.3131 25.8104 149.7352)" width="32.4" height="36.4"/>
		</defs>
		<clipPath id="SVGID_6_">
			<use xlink:href="#SVGID_5_"  style="overflow:visible;"/>
		</clipPath>
		
			<rect x="106.3" y="46.4" transform="matrix(0.1732 -0.9849 0.9849 0.1732 32.0009 164.0524)" class="st11" width="14.8" height="33.2"/>
		<g class="st12">
			<defs>
				
					<rect id="SVGID_7_" x="100.2" y="38.8" transform="matrix(0.3131 -0.9497 0.9497 0.3131 25.8104 149.7352)" width="32.4" height="36.4"/>
			</defs>
			<clipPath id="SVGID_8_">
				<use xlink:href="#SVGID_7_"  style="overflow:visible;"/>
			</clipPath>
			<path class="st13" d="M102.6,54.4c-0.4,1.7-2.1,3-3.9,2.8l-1.1,6.4c1.8,0.4,3.1,2.2,2.8,4l24.5,4.2c0.2-1.8,2.1-3.1,4-3l1.1-6.2
				c-1.9-0.5-3.2-2.4-2.9-4.2L102.6,54.4z"/>
			<path class="st14" d="M123,65.7c-0.6-0.5-0.6-1.4-0.1-1.9c0.5-0.6,1.4-0.6,1.9-0.1c0.6,0.5,0.6,1.4,0.1,1.9
				C124.4,66.1,123.6,66.2,123,65.7"/>
			<path class="st14" d="M102.6,62.2c-0.6-0.5-0.6-1.4-0.1-1.9c0.5-0.6,1.4-0.6,1.9-0.1c0.6,0.5,0.6,1.4,0.1,1.9
				C104,62.6,103.1,62.7,102.6,62.2"/>
			<path class="st15" d="M109.8,67.3c-2.3-2.1-2.5-5.8-0.4-8.1c2.1-2.3,5.8-2.5,8.1-0.4c2.3,2.1,2.5,5.8,0.4,8.1
				C115.8,69.2,112.2,69.4,109.8,67.3"/>
			<path class="st16" d="M112.6,66.7l0.1-0.7c0,0-1.9-0.4-1.9-2.2l1.2,0c0,0,0.3,0.9,0.9,1.2l0.2-1.8c0,0-2.1-0.9-1.6-2.3
				c0,0,0.3-1.3,2.2-1.3l0.1-0.4l0.7,0.1l0,0.5c0,0,1.8,0.2,1.7,1.8l-1.3-0.1c0,0-0.1-0.6-0.5-0.6l-0.3,1.6c0,0,1.7,0.4,1.8,2.1
				c0,0,0,0.1,0,0.1c0,0.3-0.3,1.6-2.4,1.6l-0.1,0.7L112.6,66.7z"/>
			<path class="st14" d="M113.6,60.6l-0.2,1.4c0,0-0.1,0-0.2-0.1c-0.5-0.3-0.5-1,0.1-1.2C113.4,60.6,113.5,60.5,113.6,60.6"/>
			<path class="st14" d="M113.7,65.1l0.2-1.6c0,0,0.1,0,0.3,0.1c0.6,0.4,0.6,1.2-0.1,1.4C114,65,113.8,65.1,113.7,65.1"/>
			
				<rect x="99.2" y="51.8" transform="matrix(0.9978 -6.611509e-02 6.611509e-02 0.9978 -3.6585 7.7824)" class="st17" width="33.2" height="14.8"/>
			<path class="st13" d="M102.9,53.5c0.1,1.8-1.3,3.4-3.2,3.6l0.5,6.5c1.9,0,3.5,1.4,3.7,3.2l24.8-1.8c-0.2-1.8,1.3-3.6,3.1-3.8
				l-0.4-6.3c-2-0.1-3.7-1.5-3.8-3.4L102.9,53.5z"/>
			<path class="st14" d="M125.4,59.6c-0.7-0.4-0.9-1.2-0.6-1.9c0.4-0.7,1.2-0.9,1.9-0.6c0.7,0.4,0.9,1.2,0.6,1.9
				C126.9,59.7,126.1,59.9,125.4,59.6"/>
			<path class="st14" d="M104.8,61.1c-0.7-0.4-0.9-1.2-0.6-1.9c0.4-0.7,1.2-0.9,1.9-0.6c0.7,0.4,0.9,1.2,0.6,1.9
				C106.3,61.2,105.4,61.4,104.8,61.1"/>
			<path class="st15" d="M113,64.3c-2.8-1.5-3.8-5-2.3-7.8c1.5-2.8,5-3.8,7.8-2.3c2.8,1.5,3.8,5,2.3,7.8
				C119.3,64.7,115.8,65.8,113,64.3"/>
			<path class="st16" d="M115.6,63l-0.1-0.7c0,0-1.9,0.1-2.3-1.6l1.2-0.2c0,0,0.5,0.8,1.2,0.9l-0.2-1.8c0,0-2.2-0.3-2.1-1.9
				c0,0,0-1.3,1.8-1.8l0-0.4l0.7-0.1l0.1,0.5c0,0,1.8-0.2,2.1,1.4l-1.3,0.2c0,0-0.2-0.5-0.6-0.5l0.1,1.6c0,0,1.8,0,2.3,1.6
				c0,0,0,0.1,0,0.1c0,0.3,0.1,1.6-1.9,2.1l0.1,0.7L115.6,63z"/>
			<path class="st14" d="M115.1,56.8l0.1,1.4c0,0-0.1,0-0.3-0.1c-0.6-0.2-0.7-0.9-0.2-1.2C114.9,56.9,115,56.9,115.1,56.8"/>
			<path class="st14" d="M116.2,61.2l-0.2-1.6c0,0,0.1,0,0.3,0.1c0.7,0.2,0.8,1,0.2,1.4C116.5,61.1,116.4,61.2,116.2,61.2"/>
			
				<rect x="100" y="48.5" transform="matrix(0.9704 -0.2413 0.2413 0.9704 -10.0495 29.7927)" class="st17" width="33.2" height="14.8"/>
			<path class="st13" d="M102.9,52.6c0.4,1.7-0.7,3.6-2.5,4.1l1.6,6.3c1.8-0.4,3.7,0.8,4.2,2.5l24.1-6.1c-0.5-1.7,0.7-3.7,2.4-4.3
				l-1.5-6.1c-1.9,0.3-3.9-0.8-4.3-2.7L102.9,52.6z"/>
			<path class="st15" d="M126.2,54.6c-0.7-0.2-1.1-1-0.9-1.7c0.2-0.7,1-1.1,1.7-0.9c0.7,0.2,1.1,1,0.9,1.7
				C127.7,54.5,126.9,54.9,126.2,54.6"/>
			<path class="st15" d="M106.1,59.7c-0.7-0.2-1.1-1-0.9-1.7c0.2-0.7,1-1.1,1.7-0.9s1.1,1,0.9,1.7C107.6,59.6,106.8,60,106.1,59.7"
				/>
			<path class="st15" d="M114.8,61.4c-3-1-4.6-4.2-3.7-7.2c1-3,4.2-4.6,7.2-3.7c3,1,4.6,4.2,3.7,7.2C121,60.8,117.8,62.4,114.8,61.4
				"/>
			<path class="st18" d="M117.1,59.8l-0.2-0.7c0,0-1.9,0.4-2.6-1.2l1.1-0.4c0,0,0.6,0.7,1.3,0.7l-0.5-1.8c0,0-2.3,0.1-2.4-1.5
				c0,0-0.3-1.3,1.4-2.1l-0.1-0.4l0.7-0.2l0.2,0.4c0,0,1.7-0.5,2.3,1l-1.2,0.4c0,0-0.3-0.5-0.7-0.4l0.4,1.6c0,0,1.8-0.3,2.5,1.2
				c0,0,0,0.1,0,0.1c0.1,0.3,0.4,1.6-1.5,2.4l0.2,0.7L117.1,59.8z"/>
			<path class="st15" d="M115.6,53.7l0.4,1.3c0,0-0.1,0-0.3,0c-0.6-0.1-0.8-0.8-0.4-1.2C115.3,53.8,115.4,53.8,115.6,53.7"/>
			<path class="st15" d="M117.4,57.8l-0.4-1.5c0,0,0.1,0,0.3,0c0.7,0.1,1,0.9,0.5,1.3C117.7,57.7,117.6,57.8,117.4,57.8"/>
		</g>
	</g>
</g>
<g id="coins_2_">
	<g>
		<defs>
			
				<rect id="SVGID_9_" x="102.5" y="71.3" transform="matrix(4.914155e-02 -0.9988 0.9988 4.914155e-02 24.8113 188.4329)" width="17.7" height="19.7"/>
		</defs>
		<clipPath id="SVGID_10_">
			<use xlink:href="#SVGID_9_"  style="overflow:visible;"/>
		</clipPath>
		<g class="st19">
			<defs>
				
					<rect id="SVGID_11_" x="102.5" y="71.3" transform="matrix(4.914155e-02 -0.9988 0.9988 4.914155e-02 24.8113 188.4329)" width="17.7" height="19.7"/>
			</defs>
			<clipPath id="SVGID_12_">
				<use xlink:href="#SVGID_11_"  style="overflow:visible;"/>
			</clipPath>
			<path class="st20" d="M121.1,84.8c-0.4,3.6-3.7,5.5-8.5,5.3c-5.1-0.2-8.9-2.7-8.7-6.4c0.2-3.7,3.4-5.7,8.5-5.4
				C117.5,78.6,121.5,81.1,121.1,84.8"/>
			<path class="st21" d="M119.7,84c0.7,2.8-2.7,5.2-7.3,5c-4.2-0.2-8.1-2.7-7.2-5.7c0.7-2.3,3.6-4.1,7.5-3.9
				C116.5,79.6,119.1,81.7,119.7,84"/>
			<path class="st22" d="M119.4,83.8c0.2,2.8-2.8,4.7-7.1,4.3c-4-0.3-7.2-2.2-6.8-5c0.3-2.4,3.3-4.2,7.2-4
				C116.5,79.4,119.2,81.5,119.4,83.8"/>
			<path class="st23" d="M113,80.4l0,0.7c0,0,1.7,0.2,1.8,1.7l-1,0.1c0,0-0.3-0.7-0.9-0.9l-0.1,1.6c0,0,1.9,0.6,1.6,1.9
				c0,0-0.1,1.1-1.8,1.4l0,0.4l-0.6,0l0-0.4c0,0-1.6,0-1.7-1.5l1.2,0c0,0,0.1,0.5,0.5,0.5l0.1-1.4c0,0-1.6-0.2-1.8-1.7
				c0,0,0,0,0-0.1c0-0.2,0.1-1.4,2-1.6l0-0.6L113,80.4z"/>
			<path class="st22" d="M113,84.7c0.5,0.2,0.5,0.8,0,1.1L113,84.7z"/>
			<path class="st24" d="M111.8,82c-0.5,0.3-0.5,1,0.1,1.2L111.8,82z"/>
			<path class="st20" d="M118.9,78.7c-0.4,3.6-3.7,5.5-8.5,5.3c-5.1-0.2-8.9-2.7-8.7-6.4s3.4-5.7,8.5-5.4
				C115.3,72.5,119.3,75,118.9,78.7"/>
			<path class="st21" d="M117.5,78c0.7,2.8-2.7,5.2-7.3,5c-4.2-0.2-8.1-2.7-7.2-5.7c0.7-2.3,3.6-4.1,7.5-3.9
				C114.3,73.5,116.9,75.7,117.5,78"/>
			<path class="st22" d="M117.2,77.8c0.2,2.8-2.8,4.7-7.1,4.3c-4-0.3-7.2-2.2-6.8-5c0.3-2.4,3.3-4.2,7.2-4
				C114.3,73.3,117,75.4,117.2,77.8"/>
			<path class="st23" d="M110.9,74.3l0,0.7c0,0,1.7,0.2,1.8,1.7l-1,0.1c0,0-0.3-0.7-0.9-0.9l-0.1,1.6c0,0,1.9,0.6,1.6,1.9
				c0,0-0.1,1.1-1.8,1.4l0,0.4l-0.6,0l0-0.4c0,0-1.6,0-1.7-1.5l1.2,0c0,0,0.1,0.5,0.5,0.5l0.1-1.4c0,0-1.6-0.2-1.8-1.7
				c0,0,0,0,0-0.1c0-0.2,0.1-1.4,2-1.6l0-0.6L110.9,74.3z"/>
			<path class="st22" d="M110.8,78.6c0.5,0.2,0.5,0.8,0,1.1L110.8,78.6z"/>
			<path class="st22" d="M109.6,75.9c-0.5,0.3-0.5,1,0.1,1.2L109.6,75.9z"/>
		</g>
	</g>
</g>
<g id="Phone_2_">
	<g>
		<defs>
			
				<rect id="SVGID_13_" x="85.9" y="311.6" transform="matrix(4.914155e-02 -0.9988 0.9988 4.914155e-02 -227.7377 428.7249)" width="50.8" height="44.8"/>
		</defs>
		<clipPath id="SVGID_14_">
			<use xlink:href="#SVGID_13_"  style="overflow:visible;"/>
		</clipPath>
		<g class="st25">
			<defs>
				
					<rect id="SVGID_15_" x="85.9" y="311.6" transform="matrix(4.914155e-02 -0.9988 0.9988 4.914155e-02 -227.7377 428.7249)" width="50.8" height="44.8"/>
			</defs>
			<clipPath id="SVGID_16_">
				<use xlink:href="#SVGID_15_"  style="overflow:visible;"/>
			</clipPath>
			<path class="st26" d="M131.5,354.5c-6.2,10.6-16.1,2.6-16.1,2.6c-9.4-9-22.6-29.1-22.6-29.1c-8.3-11.9,2.2-18.3,2.2-18.3
				c1.7-0.9,3.7-1.5,3.7-1.5l5.8,16.7c-0.1,0.1-0.1,0.1-0.2,0.2c-0.4,0.4-0.5,1-0.5,1.6c0.5,7.9,9.4,15.6,11.7,17.5
				c0.7,0.6,1.8,0.6,2.5,0c0.2-0.2,0.5-0.4,0.7-0.8L131.5,354.5z"/>
			<path class="st27" d="M131.3,354.6c0,0,2.8-3.2,0.9-5.2c0,0-3.7-4.1-8.9-7c0,0-3.2-2.1-4.7,1.1L131.3,354.6z"/>
			<path class="st28" d="M98.7,308.3c0,0,3.8-1.2,5.2,1.6c0,0,2.5,3.4,3.5,10c0,0,1.1,4-2.9,5.1L98.7,308.3z"/>
		</g>
	</g>
</g>
<g id="streg_8_">
	<path class="st29" d="M125.5,32.3c0.3-5.7,1.1-9.9,5.6-13.8c3.2-2.8,9.9-8.4,14.5-9.7c3.6-1,8.9-2.6,12.9-2.4"/>
	<path class="st30" d="M127.6,33.3c0.3-5.7,0.8-10.8,5.3-14.7c3.2-2.8,9.5-7.5,14.1-8.8c3.6-1,11.7-2.5,11.7-3.1"/>
</g>
<g id="streg_7_">
	<g>
		<path class="st1" d="M101.8,97.5c-2.4,2.7-10.3,6-15.4,19.6c-2.7,7.1-4.7,15.1-4.5,23.3c0.2,9.7-9.1,16.9-7.8,18.8"/>
	</g>
	<g>
		<path class="st31" d="M102.8,97.8c-4.1,5-10.9,10.5-14.8,20.9c-2.7,7.1-4,13.2-3.9,21.4c0.2,9.7-8.4,16.9-7.8,18.8"/>
	</g>
</g>
<g id="streg_6_">
	<g>
		<path class="st1" d="M79.3,242.2c-1,7.7,11.7,7.6,12.1,15.7c0.3,6.5,4.3,15.1,7.5,19.8c4.1,6.2,6.7,8.8,13.7,12.4
			c0.4,0.2,11.4,5.1,10.1,5"/>
	</g>
	<g>
		<path class="st31" d="M82.2,242.6c-1,7.7,10.7,6.7,11.1,14.9c0.5,9.2,2.4,12.2,7.5,19.8c4.1,6.2,7.7,8.5,14.7,12.1
			c0.4,0.2,12,6.4,10.7,6.4"/>
	</g>
</g>
<path id="pin" class="st32" d="M155.2,4c2,0,4.1,0.3,6,0.9c0.3,0.1,0.5,0.2,0.7,0.2c-1.1,1.8-1.5,2.4-2,2.9
	c-0.7,0.8-1.9,1.7-2.5,1.7"/>
<g id="streg_5_">
	<path class="st30" d="M139.7,363.3c1.3,13.5-8.9,19.6-14.1,36.3"/>
	<path class="st29" d="M140.7,363c3.4,11.3-10.2,26.5-13.5,37"/>
</g>
<g>
	<path d="M25.8,384.7l-0.9-2.4h-3.3l-0.8,2.4h-1.5l3.2-8.6h1.5l3.2,8.6H25.8z M24.6,381.1l-0.8-2.3c-0.1-0.2-0.1-0.4-0.2-0.7
		s-0.2-0.6-0.2-0.7c-0.1,0.5-0.3,1-0.5,1.6l-0.8,2.2H24.6z"/>
	<path d="M35.5,384.7h-1.7l-4.2-6.8h0l0,0.4c0.1,0.7,0.1,1.4,0.1,2v4.5h-1.3v-8.6h1.7l4.2,6.8h0c0-0.1,0-0.4,0-1s0-1,0-1.3v-4.5h1.3
		V384.7z"/>
	<path d="M41.5,384.7l-2.5-7.2h0c0.1,1.1,0.1,2.1,0.1,3v4.2h-1.3v-8.6h2l2.4,6.8h0l2.4-6.8h2v8.6h-1.3v-4.2c0-0.4,0-1,0-1.7
		s0-1.1,0.1-1.2h0l-2.6,7.1H41.5z"/>
	<path d="M53.7,384.7h-4.8v-8.6h4.8v1.2h-3.4v2.3h3.2v1.2h-3.2v2.7h3.4V384.7z"/>
	<path d="M55.6,384.7v-8.6H57v7.4h3.6v1.2H55.6z"/>
	<path d="M69,380.3c0,1.4-0.4,2.5-1.2,3.2s-1.9,1.1-3.4,1.1h-2.4v-8.6h2.6c1.4,0,2.4,0.4,3.2,1.1S69,379,69,380.3z M67.6,380.3
		c0-2.1-1-3.1-2.9-3.1h-1.2v6.2h1C66.5,383.5,67.6,382.4,67.6,380.3z"/>
	<path d="M78.9,382.3c0,0.8-0.3,1.4-0.8,1.8s-1.3,0.7-2.3,0.7s-1.8-0.2-2.4-0.5V383c0.4,0.2,0.8,0.3,1.2,0.4s0.8,0.2,1.2,0.2
		c0.6,0,1-0.1,1.2-0.3s0.4-0.5,0.4-0.8c0-0.3-0.1-0.6-0.4-0.8s-0.7-0.5-1.5-0.8c-0.8-0.3-1.3-0.7-1.7-1.1s-0.5-0.9-0.5-1.5
		c0-0.7,0.3-1.3,0.8-1.7s1.2-0.6,2-0.6c0.8,0,1.6,0.2,2.4,0.5l-0.4,1.1c-0.8-0.3-1.4-0.5-2-0.5c-0.5,0-0.8,0.1-1,0.3
		s-0.4,0.5-0.4,0.8c0,0.2,0,0.4,0.1,0.6s0.2,0.3,0.5,0.4s0.6,0.3,1.2,0.6c0.6,0.3,1.1,0.5,1.4,0.7s0.5,0.5,0.6,0.8
		S78.9,382,78.9,382.3z"/>
	<path d="M87.1,384.7h-1.6l-2.7-3.9l-0.8,0.7v3.2h-1.4v-8.6H82v4.1c0.4-0.5,0.8-0.9,1.1-1.4l2.3-2.7H87c-1.5,1.8-2.6,3-3.2,3.8
		L87.1,384.7z"/>
	<path d="M93.6,384.7l-0.9-2.4h-3.3l-0.8,2.4h-1.5l3.2-8.6h1.5l3.2,8.6H93.6z M92.4,381.1l-0.8-2.3c-0.1-0.2-0.1-0.4-0.2-0.7
		s-0.2-0.6-0.2-0.7c-0.1,0.5-0.3,1-0.5,1.6l-0.8,2.2H92.4z"/>
	<path d="M103.2,380.3c0,1.4-0.4,2.5-1.2,3.2s-1.9,1.1-3.4,1.1h-2.4v-8.6h2.6c1.4,0,2.4,0.4,3.2,1.1S103.2,379,103.2,380.3z
		 M101.7,380.3c0-2.1-1-3.1-2.9-3.1h-1.2v6.2h1C100.7,383.5,101.7,382.4,101.7,380.3z"/>
	<path d="M109.8,384.7H105v-8.6h4.8v1.2h-3.4v2.3h3.2v1.2h-3.2v2.7h3.4V384.7z"/>
</g>
<g>
	<path d="M128.7,226.7h-5.8v-1l2.2-2.2c0.7-0.7,1.1-1.1,1.3-1.4s0.4-0.5,0.5-0.8s0.1-0.5,0.1-0.8c0-0.4-0.1-0.7-0.3-0.9
		s-0.6-0.3-1-0.3c-0.3,0-0.6,0.1-1,0.2s-0.7,0.3-1.1,0.7l-0.7-0.9c0.5-0.4,0.9-0.7,1.4-0.9s0.9-0.3,1.4-0.3c0.8,0,1.4,0.2,1.9,0.6
		s0.7,1,0.7,1.7c0,0.4-0.1,0.8-0.2,1.1s-0.4,0.7-0.6,1.1s-0.8,0.9-1.4,1.5l-1.5,1.4v0.1h4.1V226.7z"/>
	<path d="M135.8,224.8h-1.2v1.9h-1.3v-1.9h-3.9v-1.1l3.9-5.7h1.3v5.6h1.2V224.8z M133.3,223.7v-2.2c0-0.8,0-1.4,0.1-1.9h0
		c-0.1,0.3-0.3,0.6-0.5,0.9l-2.1,3.1H133.3z"/>
	<path d="M143.2,226.7h-1.4v-7.4h-2.5v-1.2h6.4v1.2h-2.5V226.7z"/>
	<path d="M147.1,226.7v-8.6h1.4v8.6H147.1z"/>
	<path d="M154.4,226.7l-2.5-7.2h0c0.1,1.1,0.1,2.1,0.1,3v4.2h-1.3v-8.6h2l2.4,6.8h0l2.4-6.8h2v8.6h-1.3v-4.2c0-0.4,0-1,0-1.7
		s0-1.1,0.1-1.2h0l-2.6,7.1H154.4z"/>
	<path d="M166.7,226.7h-4.8v-8.6h4.8v1.2h-3.4v2.3h3.2v1.2h-3.2v2.7h3.4V226.7z"/>
	<path d="M169.9,223.2v3.4h-1.4v-8.6h2.4c1.1,0,1.9,0.2,2.5,0.6s0.8,1,0.8,1.9c0,1.1-0.6,1.8-1.7,2.3l2.4,3.8h-1.6l-2.1-3.4H169.9z
		 M169.9,222.1h1c0.7,0,1.1-0.1,1.4-0.4s0.4-0.6,0.4-1.1c0-0.5-0.2-0.8-0.5-1s-0.8-0.3-1.4-0.3h-0.9V222.1z"/>
</g>
<g>
	<path d="M30.9,102.7h-1.4v-8.6h4.8v1.2h-3.4V98h3.2v1.2h-3.2V102.7z"/>
	<path d="M41.2,102.7l-0.9-2.4H37l-0.8,2.4h-1.5l3.2-8.6h1.5l3.2,8.6H41.2z M40.1,93.4c0,0.4-0.1,0.7-0.4,1s-0.6,0.4-1,0.4
		s-0.8-0.1-1-0.4s-0.4-0.6-0.4-1c0-0.4,0.1-0.7,0.4-1s0.6-0.4,1-0.4c0.4,0,0.7,0.1,1,0.4S40.1,93,40.1,93.4z M39.9,99.1l-0.8-2.3
		c-0.1-0.2-0.1-0.4-0.2-0.7s-0.2-0.6-0.2-0.7c-0.1,0.5-0.3,1-0.5,1.6l-0.8,2.2H39.9z M39.3,93.4c0-0.2-0.1-0.3-0.2-0.5
		s-0.3-0.2-0.4-0.2c-0.2,0-0.3,0.1-0.5,0.2S38,93.2,38,93.4c0,0.4,0.2,0.6,0.6,0.6c0.2,0,0.3-0.1,0.4-0.2S39.3,93.6,39.3,93.4z"/>
	<path d="M52.6,96.7c0,0.9-0.3,1.6-0.9,2.1s-1.4,0.7-2.5,0.7h-0.9v3.2h-1.4v-8.6h2.5c1.1,0,1.9,0.2,2.4,0.7S52.6,95.8,52.6,96.7z
		 M48.3,98.3H49c0.7,0,1.2-0.1,1.6-0.4s0.5-0.6,0.5-1.2c0-0.5-0.2-0.9-0.5-1.1s-0.8-0.4-1.4-0.4h-1V98.3z"/>
	<path d="M59.1,102.7h-4.8v-8.6h4.8v1.2h-3.4v2.3h3.2v1.2h-3.2v2.7h3.4V102.7z"/>
	<path d="M68.1,102.7h-1.7l-4.2-6.8h0l0,0.4c0.1,0.7,0.1,1.4,0.1,2v4.5H61v-8.6h1.7l4.2,6.8h0c0-0.1,0-0.4,0-1s0-1,0-1.3v-4.5h1.3
		V102.7z"/>
	<path d="M73.9,98H77v4.3c-0.5,0.2-1,0.3-1.5,0.4s-1,0.1-1.5,0.1c-1.3,0-2.3-0.4-3-1.2S70,99.8,70,98.4c0-1.4,0.4-2.5,1.2-3.2
		S73,94,74.4,94c0.9,0,1.7,0.2,2.5,0.5l-0.5,1.2c-0.7-0.3-1.4-0.5-2.1-0.5c-0.9,0-1.6,0.3-2.2,0.9s-0.8,1.4-0.8,2.4
		c0,1,0.2,1.8,0.7,2.4s1.2,0.8,2.1,0.8c0.5,0,0.9-0.1,1.5-0.2v-2.2h-1.8V98z"/>
	<path d="M83.9,102.7h-4.8v-8.6h4.8v1.2h-3.4v2.3h3.2v1.2h-3.2v2.7h3.4V102.7z"/>
</g>
</svg>
