<?xml version="1.0" encoding="utf-8"?>
<!-- Generator: Adobe Illustrator 22.0.1, SVG Export Plug-In . SVG Version: 6.00 Build 0)  -->
<svg version="1.1" id="Layer_1" xmlns="http://www.w3.org/2000/svg" xmlns:xlink="http://www.w3.org/1999/xlink" x="0px" y="0px"
	 viewBox="0 0 200 400" style="enable-background:new 0 0 200 400;" xml:space="preserve">
<style type="text/css">
	.st0{fill:none;stroke:#00B8EA;stroke-width:0.3409;stroke-miterlimit:10;}
	.st1{fill:none;stroke:#00B8EA;stroke-width:0.6817;stroke-miterlimit:10;}
	.st2{fill:none;stroke:#00B8EA;stroke-width:1.3635;stroke-miterlimit:10;}
	.st3{fill:none;stroke:#00B8EA;stroke-width:0.5113;stroke-miterlimit:10;}
	.st4{fill:#052951;}
	.st5{fill:none;stroke:#00B8EA;stroke-width:0.6817;stroke-linecap:round;stroke-miterlimit:10;}
	.st6{fill:none;stroke:#00B8EA;stroke-width:0.5113;stroke-linecap:round;stroke-miterlimit:10;}
	.st7{fill:none;stroke:#00B8EA;stroke-width:1.3635;stroke-linecap:round;stroke-miterlimit:10;}
</style>
<g id="cirkel_1_">
	<path class="st0" d="M150.4,342.9c-3.2,10.2-10.9,19.1-20.5,23.6c-6.8,3.2-15,4.3-22.5,3.6c-3.1-0.3-6-1.6-8.6-2.3
		c-9.8-2.8-17.1-10-22.1-19.8c-4.1-8-4-15.9-3-24.7c1-8.7,5.3-16.6,12.1-22.1c4.1-3.3,7.1-5.6,12.2-8.1c2-1,5.5-1.5,7.8-2
		c1.8-0.4,3.6-0.6,5.5-0.7c5.5-0.2,9.7,0,14.6,2.3c2.2,1,3.9,1.7,6,2.9c6.2,3.4,11.3,7.6,14.8,14.1c1.4,2.5,3.1,4.8,4,7.5
		c0.7,2.1,0.9,4.3,1.1,6.5C152.1,330.6,152.4,336.2,150.4,342.9z"/>
	<path class="st1" d="M108.7,368.4c-10.2-0.8-20.2-6.2-26.4-14.2c-4.4-5.7-7.2-13.1-8.1-20.3c-0.4-2.9,0.2-5.9,0.4-8.6
		c0.6-9.8,5.7-18.1,13.9-24.9c6.6-5.5,14-7.1,22.5-8c8.3-0.9,16.7,1.5,23.3,6.7c4,3.2,6.7,5.5,10.2,9.7c1.4,1.7,2.6,4.8,3.5,6.9
		c0.8,1.6,1.3,3.3,1.8,5c1.3,5.1,2.1,9,1,14.1c-0.5,2.3-0.8,4-1.4,6.3c-1.9,6.5-4.7,12.1-10,16.8c-2.1,1.8-3.8,4-6.2,5.3
		c-1.8,1.1-3.8,1.8-5.9,2.4C120.6,367.4,115.4,368.9,108.7,368.4z"/>
	<g>
		<path class="st2" d="M151.5,343.4c-3.3,10.5-11.3,19.8-21.3,24.4c-7.1,3.3-15.5,4.4-23.3,3.7c-3.2-0.3-6.2-1.6-8.9-2.4
			c-10.2-2.9-17.7-10.3-22.9-20.5c-4.2-8.2-4.1-16.5-3.1-25.6c1-9,5.5-17.2,12.6-22.9c4.3-3.4,7.4-5.8,12.6-8.4
			c2.1-1.1,5.7-1.6,8.1-2.1c1.9-0.4,3.8-0.6,5.7-0.7c5.7-0.2,10,0,15.1,2.3c2.3,1.1,4,1.8,6.3,3c6.4,3.5,11.7,7.8,15.3,14.6
			c1.4,2.6,3.2,5,4.1,7.8c0.7,2.2,1,4.5,1.1,6.7C153.3,330.7,153.7,336.5,151.5,343.4z"/>
	</g>
</g>
<g id="cirkel2_1_">
	<path id="linje1_5_" class="st1" d="M76.2,276.8c-9,0.5-18.3-3-24.8-9.3c-4.5-4.5-7.8-10.6-9.5-16.8c-0.7-2.5-0.5-5.2-0.7-7.5
		c-0.7-8.6,2.9-16.5,9.2-23.4c5.1-5.6,11.4-7.8,18.7-9.7c7.2-1.8,14.8-0.7,21.1,3.1c3.9,2.3,6.5,4,10,7.3c1.4,1.3,2.8,3.9,3.9,5.6
		c0.8,1.3,1.5,2.7,2.1,4.2c1.7,4.3,2.9,7.7,2.5,12.2c-0.2,2.1-0.2,3.6-0.5,5.6c-0.9,5.9-2.7,11.2-6.8,15.9c-1.6,1.8-2.9,3.9-4.8,5.4
		c-1.5,1.1-3.1,2-4.8,2.8C86.5,274.6,82.1,276.5,76.2,276.8z"/>
	<path class="st0" d="M76.3,275.8c-8.7,0.5-17.7-2.9-23.9-9c-4.4-4.3-7.5-10.3-9.2-16.2c-0.7-2.4-0.5-5-0.7-7.3
		c-0.6-8.3,2.8-15.9,8.9-22.6c4.9-5.4,11-7.6,18-9.3c6.9-1.7,14.3-0.7,20.4,3c3.7,2.2,6.3,3.9,9.7,7c1.4,1.3,2.7,3.8,3.8,5.4
		c0.8,1.3,1.5,2.6,2.1,4c1.7,4.2,2.8,7.4,2.4,11.8c-0.2,2-0.2,3.5-0.5,5.5c-0.8,5.7-2.6,10.8-6.6,15.3c-1.5,1.8-2.8,3.8-4.6,5.2
		c-1.4,1.1-3,1.9-4.7,2.7C86.2,273.7,82,275.5,76.3,275.8z"/>
	<path class="st1" d="M45,251.2c-2.3-8-1-17.2,3.4-24.3c3.1-5,8-9.2,13.2-12c2.1-1.1,4.6-1.5,6.7-2.2c7.7-2.4,15.5-0.8,23,3.5
		c6.1,3.5,9.4,8.7,12.6,14.9c3.1,6.1,3.6,13.2,1.5,19.7c-1.3,4-2.3,6.7-4.5,10.5c-0.9,1.5-3,3.3-4.3,4.7c-1,1-2.1,2-3.3,2.8
		c-3.5,2.5-6.3,4.2-10.6,4.8c-1.9,0.3-3.3,0.5-5.2,0.7c-5.5,0.4-10.6-0.1-15.8-2.9c-2-1.1-4.1-1.8-5.9-3.2c-1.3-1.1-2.5-2.4-3.5-3.8
		C49.1,260,46.5,256.4,45,251.2z"/>
</g>
<g id="cirkel3_2_">
	<path id="linje1_4_" class="st1" d="M128.9,182.8c-5.6,5.1-13.6,7.7-21.1,6.9c-5.3-0.5-10.7-2.9-15-6c-1.8-1.3-3.1-3.1-4.4-4.6
		c-5-5.3-6.8-12.3-6.3-20.1c0.4-6.3,3.4-11.1,7.1-16.2c3.7-5,9.3-8.2,15.5-9.1c3.7-0.5,6.4-0.8,10.4-0.5c1.6,0.1,3.9,1.1,5.5,1.6
		c1.2,0.4,2.4,1,3.6,1.6c3.4,1.9,5.9,3.5,8.1,6.7c1,1.4,1.8,2.5,2.6,4c2.6,4.3,4.1,8.7,3.9,14c-0.1,2,0.2,4.1-0.3,6.1
		c-0.4,1.5-1,3-1.7,4.4C134.5,175.9,132.6,179.5,128.9,182.8z"/>
	<path id="linje2_4_" class="st0" d="M128.4,182.1c-5.4,4.9-13.1,7.4-20.4,6.7c-5.1-0.5-10.3-2.8-14.5-5.8c-1.7-1.2-3-3-4.3-4.4
		c-4.8-5.1-6.5-11.9-6.1-19.4c0.4-6.1,3.2-10.8,6.9-15.6c3.6-4.8,9-7.9,14.9-8.8c3.6-0.5,6.2-0.8,10-0.5c1.6,0.1,3.8,1,5.3,1.6
		c1.2,0.4,2.4,0.9,3.5,1.5c3.3,1.8,5.7,3.4,7.8,6.5c0.9,1.4,1.7,2.4,2.5,3.8c2.5,4.2,4,8.4,3.8,13.5c-0.1,2,0.2,3.9-0.3,5.8
		c-0.3,1.5-1,2.9-1.7,4.2C133.8,175.4,132,178.9,128.4,182.1z"/>
	<path id="linje3_4_" class="st1" d="M95,182.4c-5.7-4.1-9.7-10.7-10.6-17.7c-0.6-4.9,0.4-10.3,2.3-14.8c0.8-1.9,2.2-3.4,3.2-4.9
		c3.8-5.6,9.7-8.6,16.9-9.8c5.8-0.9,10.8,0.8,16.1,3.2c5.2,2.4,9.3,6.7,11.4,12.1c1.2,3.3,2,5.6,2.6,9.3c0.2,1.5-0.2,3.8-0.3,5.3
		c-0.1,1.2-0.4,2.4-0.7,3.6c-1,3.5-1.9,6.1-4.4,8.7c-1.1,1.2-1.9,2.1-3,3.2c-3.4,3.2-7,5.5-11.8,6.4c-1.8,0.3-3.7,1-5.5,1
		c-1.4,0-2.9-0.3-4.3-0.7C102.3,186.1,98.7,185.1,95,182.4z"/>
</g>
<g id="cirkel4">
	<path id="linje1_3_" class="st3" d="M122.9,81.3c-6.3-0.2-12.6-3.3-16.7-8.1c-2.9-3.4-4.8-7.9-5.5-12.3c-0.3-1.8,0-3.7,0-5.3
		c0.1-6,3-11.3,7.9-15.7c3.9-3.6,8.5-4.7,13.6-5.5c5.1-0.8,10.3,0.5,14.5,3.5c2.5,1.9,4.3,3.2,6.5,5.7c0.9,1,1.7,2.9,2.4,4.1
		c0.5,1,0.9,2,1.2,3c0.9,3.1,1.5,5.5,1,8.7c-0.2,1.4-0.4,2.5-0.7,3.9c-1,4.1-2.6,7.6-5.7,10.6c-1.2,1.2-2.3,2.5-3.7,3.4
		c-1.1,0.7-2.3,1.2-3.5,1.6C130.2,80.5,127,81.5,122.9,81.3z"/>
	<path id="linje2_3_" class="st0" d="M123,80.6c-6.1-0.2-12.1-3.1-16.1-7.8c-2.8-3.3-4.6-7.6-5.4-11.9c-0.3-1.7,0-3.5,0-5.1
		c0.1-5.8,2.9-10.9,7.6-15.1c3.8-3.4,8.2-4.6,13.2-5.3c4.9-0.8,10,0.4,14,3.4c2.4,1.8,4.1,3.1,6.3,5.5c0.9,1,1.7,2.8,2.3,4
		c0.5,0.9,0.9,1.9,1.2,2.9c0.9,3,1.5,5.3,0.9,8.4c-0.2,1.4-0.4,2.4-0.7,3.8c-0.9,3.9-2.5,7.3-5.5,10.3c-1.2,1.1-2.2,2.4-3.6,3.3
		c-1.1,0.7-2.2,1.2-3.4,1.6C130,79.8,127,80.8,123,80.6z"/>
	<path id="linje3_3_" class="st1" d="M102.7,61.5c-1.1-5.7,0.4-12,3.9-16.7c2.5-3.3,6.2-5.9,10-7.5c1.6-0.7,3.3-0.8,4.8-1.1
		c5.5-1.2,10.8,0.4,15.8,3.9c4,2.8,6,6.7,7.8,11.2c1.8,4.5,1.7,9.4-0.2,13.8c-1.2,2.7-2,4.5-3.8,7.1c-0.7,1-2.3,2.1-3.3,3
		c-0.8,0.7-1.6,1.2-2.5,1.7c-2.6,1.5-4.7,2.5-7.7,2.7c-1.3,0.1-2.3,0.2-3.7,0.2c-3.9,0-7.4-0.8-10.8-3c-1.3-0.9-2.8-1.5-3.9-2.6
		c-0.9-0.8-1.6-1.8-2.2-2.9C105,67.9,103.4,65.3,102.7,61.5z"/>
</g>
<g id="Mobile">
	<g id="iPhone-8-Copy-4" transform="translate(-51.000000, -289.000000)">
		<g id="Group-4" transform="translate(18.000000, 266.000000)">
			<g id="Group">
				<path id="Combined-Shape" class="st4" d="M163.5,64.9l8.4,8.2c0.8,0.8,0.8,2,0,2.8l-17.2,17.8c-0.8,0.8-2,0.8-2.8,0l-8.4-8.2
					l0,0c-0.8-0.8-0.8-2,0-2.8L160.7,65l0,0C161.5,64.2,162.7,64.2,163.5,64.9L163.5,64.9z M160.4,67.4l-13.2,13.7l9.1,8.8
					l13.2-13.7L160.4,67.4z M165.9,71c0.3,0.3,0.8,0.3,1,0s0.3-0.8,0-1c-0.3-0.3-0.8-0.3-1,0C165.6,70.3,165.6,70.8,165.9,71z
					 M149,86.3c-0.2-0.2-0.5-0.2-0.7,0c-0.2,0.2-0.2,0.5,0,0.7l2.1,2c0.2,0.2,0.5,0.2,0.7,0c0.2-0.2,0.2-0.5,0-0.7L149,86.3z"/>
			</g>
		</g>
	</g>
</g>
<g id="Page-1_2_">
	<g id="Atoms" transform="translate(-181.000000, -1713.000000)">
		<g id="Group-6-Copy" transform="translate(181.000000, 1713.000000)">
			<g id="Group-5">
				<path id="Combined-Shape_1_" class="st4" d="M82.3,260.1l3.8,3l-0.6,0.8l0,0c-1.2,1.5-3.4,1.7-4.9,0.5l-29.9-24.1l0,0
					c-1.5-1.2-1.7-3.4-0.5-4.9l0.6-0.8l3.7,3l13.9-17.3l0,0c0.5-0.6,1.3-0.7,1.9-0.2l25.6,20.6c0.6,0.5,0.7,1.3,0.2,1.9L82.3,260.1z
					 M68.6,222.9l-12.8,15.9L81,259.1l12.8-15.9L68.6,222.9z"/>
			</g>
			<path id="Rectangle-6" class="st4" d="M73.9,230.8L73.9,230.8c0,0.4-0.2,0.7-0.6,0.8l-8.2,0.9c-0.4,0-0.7-0.2-0.8-0.6l0,0
				c0-0.4,0.2-0.7,0.6-0.8l8.2-0.9C73.5,230.1,73.9,230.4,73.9,230.8z"/>
			<path id="Rectangle-6-Copy" class="st4" d="M71.4,227.9L71.4,227.9c0,0.4-0.2,0.7-0.6,0.8l-3.4,0.4c-0.4,0-0.7-0.2-0.8-0.6l0,0
				c0-0.4,0.2-0.7,0.6-0.8l3.4-0.4C71,227.2,71.4,227.5,71.4,227.9z"/>
		</g>
	</g>
</g>
<g id="Mobile_1_">
	<g id="iPhone-8-Copy-4_1_" transform="translate(-210.000000, -290.000000)">
		<g id="bike_icon" transform="translate(210.000000, 290.000000)">
			<path id="Shape_19_" class="st4" d="M114.6,334.5l-3.4,2c-0.5,0.3-0.8,1.1-0.4,1.7c0.4,0.7,1.1,0.8,1.7,0.4l3.4-2
				c0.5-0.3,0.8-1.1,0.4-1.7S115.1,334.2,114.6,334.5z"/>
			<path id="Shape_18_" class="st4" d="M121.4,312.7c-1.5,0.9-2.8,2-3.8,3.5c-1-1.1-2-2.1-2.9-3.3c0.8,0.1,1.5,0,2.3-0.5
				c1.5-0.9-1.7-6.3-3.2-5.4c-0.9,0.6-1.4,1.6-1.6,2.6c-0.1-0.1-0.2-0.4-0.3-0.5l-0.5-0.6c-2.3-3-6.6-5.8-13.1-0.8
				c-0.5,0.3-0.6,1.1-0.3,1.6s1.1,0.6,1.6,0.3c5.5-4,8.1-1.7,9.8,0.4l0.5,0.6c0.2,0.3,0.2,0.4,0.5,0.6L94.2,321l-1.5-0.9l0.7-0.4
				c0.8-0.5,1.1-1.6,0.6-2.4c-0.5-0.8-1.6-1.1-2.4-0.6l-4.3,2.6c-0.8,0.5-1.1,1.6-0.6,2.4c0.5,0.8,1.6,1.1,2.4,0.6l1.4-0.8l0.1,0.1
				l2.5,1.7l0.5,7.2c-1.5,0.2-3.2,0.8-4.5,1.6c-6,3.6-7.9,11.1-4.4,16.9c3.5,5.8,11.2,7.7,17,4.2c5.3-3.1,7.4-9.5,5.4-15l4.1-2.4
				c0.4,0.1,0.8-0.1,1.2-0.4c1.1-0.6,1.5-2.2,0.8-3.2c-0.2-0.3-0.3-0.5-0.6-0.7l0.7-16.6c1.2,1.1,2.2,2.4,3.4,3.5
				c-1.6,3.5-1.6,7.8,0.5,11.3c3.5,5.8,11.2,7.7,17,4.2c6-3.6,7.9-11.1,4.4-16.9C134.9,311,127.3,309.1,121.4,312.7z M95.8,324.8
				l13.1,8.5c0,0.4,0.1,0.7,0.2,1l-3,1.8c-2.2-3.7-5.9-5.6-10-5.8L95.8,324.8z M102.6,338l-5.8,3.5l-0.5-7.2
				C98.8,334.6,101.3,335.9,102.6,338z M99.6,349.7c-4.1,2.4-9.2,1.1-11.6-2.8c-2.3-3.9-1-9.1,3-11.5c0.9-0.6,1.8-0.9,2.8-1.1
				l0.5,9.2c0,0.4,0.3,0.8,0.6,0.9s0.9,0.2,1.1,0.1l7.3-4.4C104.5,343.8,103,347.7,99.6,349.7z M110.2,331.2
				C110.1,331.3,110.1,331.3,110.2,331.2l-13.8-8.7l14.6-8.7L110.2,331.2z M132,330.4c-4.1,2.4-9.2,1.1-11.6-2.8
				c-1.2-2-1.4-4.3-0.9-6.4c2.5,2,5.2,3.5,8.5,4.1c0.2,0.1,0.6,0,0.8-0.1c0.3-0.2,0.5-0.5,0.5-0.7c0.2-0.6-0.2-1.3-0.9-1.5
				c-2.9-0.6-5.7-2.1-7.9-4.1c0.8-1.2,1.7-2.1,2.9-2.8c4.1-2.4,9.2-1.1,11.6,2.8C137.3,322.8,136,328,132,330.4z"/>
		</g>
	</g>
</g>
<g id="Mobile_2_">
	<g id="iPhone-8-Copy-4_2_" transform="translate(-305.000000, -290.000000)">
		<g id="Group_1_" transform="translate(277.000000, 266.000000)">
			<path id="Combined-Shape_2_" class="st4" d="M125.8,167.8h23.1c1.2,0,2.2,1,2.2,2.2v28.3c0,1.2-1,2.2-2.2,2.2h-23.1l0,0
				c-1.2,0-2.2-1-2.2-2.2V170l0,0C123.6,168.8,124.6,167.8,125.8,167.8L125.8,167.8z M125.3,171.2v24.4h24.2v-24.4H125.3z
				 M135.9,197.4c-0.3,0-0.6,0.3-0.6,0.6s0.3,0.6,0.6,0.6h4c0.3,0,0.6-0.3,0.6-0.6s-0.3-0.6-0.6-0.6H135.9z M137.7,170.2
				c0.4,0,0.7-0.3,0.7-0.7s-0.3-0.7-0.7-0.7s-0.7,0.3-0.7,0.7S137.3,170.2,137.7,170.2z"/>
		</g>
	</g>
</g>
<g id="streg">
	<g>
		<path class="st1" d="M109,74.7c-3.7,5.8-5.3,9.7-8,16.4c-2.2,5.3-2.5,13.4-1.9,18.3c0.7,6.3,1.7,9.3,5.5,14.5
			c0.2,0.3,6.6,9.1,5.6,8.6"/>
	</g>
	<g>
		<path class="st3" d="M109.6,75.3c-3.7,5.8-4.2,9.4-6.9,16c-3.1,7.5-2.8,10.6-1.9,18.3c0.7,6.3,2.5,9.4,6.3,14.6
			c0.2,0.3,6.5,9.1,5.5,8.6"/>
	</g>
</g>
<g id="streg_1_">
	<path class="st2" d="M76.1,209.5c7.7-2,30.7-12.2,30.7-19.8"/>
	<path class="st3" d="M78.5,209.2c7.5-1.2,30.7-10.9,30-19.1"/>
</g>
<g id="streg_2_">
	<path class="st2" d="M76.1,277c0.7,6.8,10.1,12.2,13.6,17"/>
	<path class="st3" d="M77.1,277.4c2,7.5,8.6,7.9,14.3,15.7"/>
</g>
<g id="streg_3_">
	<path class="st5" d="M125.8,34c0-3.9,0.4-6.7,3.3-9.5c2.1-2,4.3-4,6.6-6.3c2.1-2.1,6.5-6.1,7.5-8.2"/>
	<path class="st6" d="M127.3,34.7c0-3.9,0.2-7.3,3.1-10.1c2.1-2,6-5.6,8.1-7.7c1.8-1.8,5.1-5.7,4.8-6.8"/>
</g>
<path id="pil" class="st5" d="M139.1,10.1c1.9-1.2,2.9-2.1,5-2.7c0.3-0.1,0.6-0.2,0.8-0.2c0.1,2.3,0,3.2-0.1,4c-0.2,1.1-1,1.7-1,2.4
	"/>
<g id="streg_4_">
	<path class="st7" d="M154.5,397c-4.7-2.6-3.8-9.4-4.8-13.6c-0.8-3.2-4.6-7.3-6.8-8.9c-1.7-1.2-7.5-7.5-8.9-8.9"/>
	<path class="st6" d="M155.5,396c-4.7-2.6-3.4-12.3-4.8-15c-1.4-2.8-7-8.4-8.9-10.2c-1.4-1.4-5.6-5.9-6.1-6.1"/>
</g>
<g>
	<path d="M32.7,114h-1.9l-3.1-4.5l-1,0.8v3.7h-1.6v-10h1.6v4.8c0.4-0.5,0.9-1.1,1.3-1.6l2.7-3.2h1.9c-1.7,2.1-3,3.5-3.8,4.4
		L32.7,114z"/>
	<path d="M40.2,114l-1-2.8h-3.8l-1,2.8h-1.7l3.7-10h1.8l3.7,10H40.2z M38.8,109.8l-0.9-2.7c-0.1-0.2-0.2-0.5-0.3-0.9
		s-0.2-0.7-0.2-0.9c-0.1,0.6-0.3,1.2-0.5,1.8l-0.9,2.6H38.8z"/>
	<path d="M51.6,114h-2l-4.9-8h-0.1l0,0.4c0.1,0.8,0.1,1.6,0.1,2.3v5.2h-1.5v-10h2l4.9,7.9h0c0-0.1,0-0.5-0.1-1.1c0-0.7,0-1.2,0-1.5
		V104h1.5V114z"/>
	<path d="M66,108.9c0,1.6-0.5,2.9-1.4,3.8c-0.9,0.9-2.2,1.3-4,1.3h-2.8v-10H61c1.6,0,2.8,0.4,3.7,1.3S66,107.4,66,108.9z M64.3,109
		c0-2.4-1.1-3.6-3.4-3.6h-1.4v7.3h1.2C63.1,112.6,64.3,111.4,64.3,109z"/>
	<path d="M73.8,114h-5.7v-10h5.7v1.4h-4v2.7h3.8v1.4h-3.8v3.1h4V114z"/>
	<path d="M79.4,114h-1.6v-8.6h-2.9V104h7.5v1.4h-2.9V114z"/>
	<path d="M15.4,120.8h3c1.4,0,2.4,0.2,3,0.6s0.9,1,0.9,1.9c0,0.6-0.2,1.1-0.5,1.5s-0.7,0.6-1.3,0.7v0.1c0.7,0.1,1.2,0.4,1.5,0.8
		c0.3,0.4,0.5,0.9,0.5,1.6c0,0.9-0.3,1.6-0.9,2.1c-0.6,0.5-1.5,0.8-2.6,0.8h-3.6V120.8z M17.1,124.9h1.6c0.7,0,1.2-0.1,1.5-0.3
		c0.3-0.2,0.5-0.6,0.5-1.1c0-0.5-0.2-0.8-0.5-1s-0.9-0.3-1.6-0.3h-1.4V124.9z M17.1,126.3v3.2h1.7c0.7,0,1.2-0.1,1.5-0.4
		c0.3-0.3,0.5-0.7,0.5-1.2c0-0.5-0.2-0.9-0.5-1.2s-0.9-0.4-1.6-0.4H17.1z"/>
	<path d="M30.3,130.8h-5.7v-10h5.7v1.4h-4v2.7h3.8v1.4h-3.8v3.1h4V130.8z"/>
	<path d="M36,130.8h-1.6v-8.6h-2.9v-1.4h7.5v1.4H36V130.8z"/>
	<path d="M46.6,130.8l-1-2.8h-3.8l-1,2.8h-1.7l3.7-10h1.8l3.7,10H46.6z M45.2,126.6l-0.9-2.7c-0.1-0.2-0.2-0.5-0.3-0.9
		s-0.2-0.7-0.2-0.9c-0.1,0.6-0.3,1.2-0.5,1.8l-0.9,2.6H45.2z"/>
	<path d="M49.7,130.8v-10h1.6v8.6h4.2v1.4H49.7z"/>
	<path d="M62.9,130.8h-5.7v-10h5.7v1.4h-4v2.7h3.8v1.4h-3.8v3.1h4V130.8z"/>
	<path d="M74.5,128.1c0,0.9-0.3,1.6-1,2.1s-1.5,0.8-2.7,0.8s-2.1-0.2-2.8-0.5v-1.5c0.5,0.2,0.9,0.4,1.5,0.5s1,0.2,1.4,0.2
		c0.6,0,1.1-0.1,1.4-0.4s0.5-0.6,0.5-1c0-0.4-0.1-0.7-0.4-1s-0.9-0.6-1.8-0.9c-0.9-0.4-1.6-0.8-1.9-1.3s-0.6-1-0.6-1.7
		c0-0.8,0.3-1.5,0.9-2s1.4-0.7,2.4-0.7c1,0,1.9,0.2,2.9,0.6l-0.5,1.3c-0.9-0.4-1.7-0.6-2.4-0.6c-0.5,0-0.9,0.1-1.2,0.3
		c-0.3,0.2-0.4,0.5-0.4,0.9c0,0.3,0.1,0.5,0.2,0.7c0.1,0.2,0.3,0.4,0.5,0.5s0.7,0.4,1.4,0.6c0.7,0.3,1.3,0.6,1.6,0.9
		s0.6,0.6,0.8,0.9S74.5,127.6,74.5,128.1z"/>
	<path d="M76.4,130.8v-10H78v10H76.4z"/>
	<path d="M84.8,125.4h3.7v5c-0.6,0.2-1.2,0.3-1.7,0.4s-1.2,0.1-1.8,0.1c-1.5,0-2.7-0.4-3.5-1.3c-0.8-0.9-1.2-2.2-1.2-3.8
		c0-1.6,0.5-2.9,1.4-3.8c0.9-0.9,2.2-1.4,3.8-1.4c1,0,2,0.2,3,0.6l-0.6,1.4c-0.8-0.4-1.6-0.6-2.4-0.6c-1.1,0-1.9,0.3-2.5,1
		s-0.9,1.6-0.9,2.7c0,1.2,0.3,2.1,0.8,2.8c0.6,0.6,1.4,1,2.4,1c0.5,0,1.1-0.1,1.7-0.2v-2.6h-2.1V125.4z"/>
	<path d="M91.5,127.8v-0.4c0-0.5,0.1-0.9,0.3-1.3s0.5-0.7,1-1c0.5-0.4,0.9-0.8,1-1s0.2-0.5,0.2-0.8c0-0.4-0.1-0.7-0.4-0.9
		S93,122,92.5,122c-0.4,0-0.8,0.1-1.2,0.2s-0.7,0.3-1.1,0.4l-0.6-1.2c0.9-0.5,1.9-0.8,3-0.8c0.9,0,1.6,0.2,2.1,0.7s0.8,1,0.8,1.8
		c0,0.3-0.1,0.6-0.2,0.9c-0.1,0.3-0.3,0.5-0.5,0.8s-0.6,0.6-1,0.9c-0.4,0.3-0.7,0.6-0.9,0.8s-0.2,0.5-0.2,0.9v0.3H91.5z M91.2,129.9
		c0-0.7,0.3-1,1-1c0.3,0,0.6,0.1,0.8,0.3c0.2,0.2,0.3,0.4,0.3,0.8c0,0.3-0.1,0.6-0.3,0.8c-0.2,0.2-0.4,0.3-0.7,0.3s-0.6-0.1-0.7-0.3
		C91.3,130.5,91.2,130.3,91.2,129.9z"/>
</g>
<g>
	<path d="M113.5,278.3c0,0.9-0.3,1.6-1,2.1s-1.5,0.8-2.7,0.8s-2.1-0.2-2.8-0.5v-1.5c0.5,0.2,0.9,0.4,1.5,0.5c0.5,0.1,1,0.2,1.4,0.2
		c0.6,0,1.1-0.1,1.4-0.4c0.3-0.2,0.5-0.6,0.5-1c0-0.4-0.1-0.7-0.4-1s-0.9-0.6-1.8-0.9c-0.9-0.4-1.6-0.8-1.9-1.3s-0.6-1-0.6-1.7
		c0-0.8,0.3-1.5,0.9-2s1.4-0.7,2.4-0.7c1,0,1.9,0.2,2.9,0.6l-0.5,1.3c-0.9-0.4-1.7-0.6-2.4-0.6c-0.5,0-0.9,0.1-1.2,0.3
		c-0.3,0.2-0.4,0.5-0.4,0.9c0,0.3,0.1,0.5,0.2,0.7c0.1,0.2,0.3,0.4,0.5,0.5s0.7,0.4,1.4,0.6c0.7,0.3,1.3,0.6,1.6,0.9
		s0.6,0.6,0.8,0.9S113.5,277.8,113.5,278.3z"/>
	<path d="M121.1,281h-5.7v-10h5.7v1.4h-4v2.7h3.8v1.4H117v3.1h4V281z"/>
	<path d="M123.2,281v-10h1.6v8.6h4.2v1.4H123.2z"/>
	<path d="M136.5,271h1.7l-3.5,10H133l-3.5-10h1.7l2.1,6.2c0.1,0.3,0.2,0.7,0.3,1.1c0.1,0.5,0.2,0.8,0.2,1c0.1-0.3,0.2-0.7,0.3-1.2
		s0.2-0.8,0.3-1L136.5,271z"/>
	<path d="M141.2,277v4h-1.6v-10h2.8c1.3,0,2.2,0.2,2.9,0.7s0.9,1.2,0.9,2.2c0,1.2-0.6,2.1-1.9,2.7l2.8,4.4h-1.9l-2.4-4H141.2z
		 M141.2,275.7h1.1c0.8,0,1.3-0.1,1.7-0.4s0.5-0.7,0.5-1.3c0-0.6-0.2-1-0.6-1.2s-0.9-0.4-1.7-0.4h-1.1V275.7z"/>
	<path d="M148.5,281v-10h1.6v10H148.5z"/>
	<path d="M158.5,278.3c0,0.9-0.3,1.6-1,2.1s-1.5,0.8-2.7,0.8s-2.1-0.2-2.8-0.5v-1.5c0.5,0.2,0.9,0.4,1.5,0.5c0.5,0.1,1,0.2,1.4,0.2
		c0.6,0,1.1-0.1,1.4-0.4c0.3-0.2,0.5-0.6,0.5-1c0-0.4-0.1-0.7-0.4-1s-0.9-0.6-1.8-0.9c-0.9-0.4-1.6-0.8-1.9-1.3s-0.6-1-0.6-1.7
		c0-0.8,0.3-1.5,0.9-2s1.4-0.7,2.4-0.7c1,0,1.9,0.2,2.9,0.6l-0.5,1.3c-0.9-0.4-1.7-0.6-2.4-0.6c-0.5,0-0.9,0.1-1.2,0.3
		c-0.3,0.2-0.4,0.5-0.4,0.9c0,0.3,0.1,0.5,0.2,0.7c0.1,0.2,0.3,0.4,0.5,0.5s0.7,0.4,1.4,0.6c0.7,0.3,1.3,0.6,1.6,0.9
		s0.6,0.6,0.8,0.9S158.5,277.8,158.5,278.3z"/>
	<path d="M160.4,281v-10h1.6v10H160.4z"/>
	<path d="M172.3,281h-1.9l-3.1-4.5l-1,0.8v3.7h-1.6v-10h1.6v4.8c0.4-0.5,0.9-1.1,1.3-1.6l2.7-3.2h1.9c-1.7,2.1-3,3.5-3.8,4.4
		L172.3,281z"/>
	<path d="M182.5,276c0,1.6-0.4,2.9-1.2,3.8c-0.8,0.9-2,1.4-3.5,1.4c-1.5,0-2.7-0.4-3.5-1.3c-0.8-0.9-1.2-2.2-1.2-3.8
		s0.4-2.9,1.2-3.8c0.8-0.9,2-1.3,3.5-1.3c1.5,0,2.6,0.4,3.4,1.3S182.5,274.4,182.5,276z M174.9,276c0,1.2,0.2,2.2,0.7,2.8
		c0.5,0.6,1.2,1,2.2,1c1,0,1.7-0.3,2.2-0.9c0.5-0.6,0.7-1.6,0.7-2.8c0-1.2-0.2-2.2-0.7-2.8c-0.5-0.6-1.2-1-2.2-1c-1,0-1.7,0.3-2.2,1
		C175.2,273.8,174.9,274.8,174.9,276z"/>
	<path d="M156.6,292.8c0,1.7-0.3,3-0.8,3.9c-0.6,0.8-1.4,1.3-2.6,1.3c-1.1,0-2-0.4-2.5-1.3s-0.9-2.1-0.9-3.8c0-1.8,0.3-3.1,0.8-3.9
		c0.6-0.8,1.4-1.3,2.6-1.3c1.1,0,2,0.4,2.5,1.3S156.6,291.1,156.6,292.8z M151.5,292.8c0,1.4,0.1,2.3,0.4,2.9
		c0.3,0.6,0.7,0.9,1.3,0.9s1.1-0.3,1.4-0.9c0.3-0.6,0.4-1.6,0.4-2.9c0-1.3-0.1-2.3-0.4-2.9c-0.3-0.6-0.7-0.9-1.4-0.9
		s-1.1,0.3-1.3,0.9C151.6,290.5,151.5,291.4,151.5,292.8z"/>
	<path d="M160,296.3c-0.2,0.8-0.6,1.9-1.2,3.3h-1.2c0.3-1.2,0.5-2.4,0.7-3.4h1.6L160,296.3z"/>
	<path d="M161.5,294.7v-1.4h3.5v1.4H161.5z"/>
	<path d="M178.1,297.8h-1.9l-3.1-4.5l-1,0.8v3.7h-1.6v-10h1.6v4.8c0.4-0.5,0.9-1.1,1.3-1.6l2.7-3.2h1.9c-1.7,2.1-3,3.5-3.8,4.4
		L178.1,297.8z"/>
	<path d="M181,293.8v4h-1.6v-10h2.8c1.3,0,2.2,0.2,2.9,0.7s0.9,1.2,0.9,2.2c0,1.2-0.6,2.1-1.9,2.7l2.8,4.4H185l-2.4-4H181z
		 M181,292.5h1.1c0.8,0,1.3-0.1,1.7-0.4s0.5-0.7,0.5-1.3c0-0.6-0.2-1-0.6-1.2s-0.9-0.4-1.7-0.4H181V292.5z"/>
</g>
</svg>
