<svg xmlns="http://www.w3.org/2000/svg" viewBox="0 0 376.81 753.33">
  <title>mobil_pink</title>
  <g id="knapper">
    <g>
      <g>
        <path d="M833.5,321.5c.83,0,2.24.27,3-.08,1.21-.54,1-1.73,1-2.81,0-1.92.51-3.65.5-5.6,0-4.18,0-8.35,0-12.53V288.76c0-2.08,0-4.17,0-6.26,0-.93.14-2.16-.46-3s-2-.5-3-.52" transform="translate(-464.37 -5.67)" fill="#e10e49"/>
        <path d="M833.5,323c2.92.17,5-.13,5.52-3.3,1-5.9.48-12.35.48-18.32,0-6.42.39-13,0-19.38-.21-3.48-1.48-4.67-5-4.5-1.92.09-1.93,3.09,0,3,3.12-.15,2,5.33,2,7.48v12.5c0,3.2,1.68,19.8-3,19.52-1.93-.11-1.92,2.89,0,3Z" transform="translate(-464.37 -5.67)"/>
      </g>
      <g>
        <path d="M835,240c2.18,0,2.74-.37,3.25-2.5a17.91,17.91,0,0,0,.75-4.6V192.77c0-3.38.5-6.51.5-9.89V166.51c0-2,.27-4.11-.25-6s-.25-4-.25-5.89v-6.15c0-2,.1-3.94,0-5.9-.1-2.24-2.15-2.2-4-2.57" transform="translate(-464.37 -5.67)" fill="#e10e49"/>
        <path d="M835,241.5c7.54-.34,5.5-12,5.5-17.11,0-11.6-.56-23.36.13-34.94a203,203,0,0,0-.06-30.6c-.5-5.31.84-11-.06-16.28-.51-3-2.35-3.54-5.11-4-1.89-.32-2.7,2.57-.8,2.9,4.35.75,2.91,8.23,2.9,11.64,0,3.56.42,6.87.57,10.39a227.14,227.14,0,0,1-.32,24.34c-.55,8.52-.25,17.11-.25,25.64,0,3.29,1.74,24.85-2.5,25-1.92.09-1.93,3.09,0,3Z" transform="translate(-464.37 -5.67)"/>
      </g>
      <g>
        <path d="M470.85,305.83v25.81a27.5,27.5,0,0,1,0,4.8,18.12,18.12,0,0,0-.51,3.84c0,1.31,0,2.62,0,3.93v3.34c0,1.92-.45,3.66-.49,5.55-.05,2.53.34,5.27-.09,7.77a19,19,0,0,0-.38,3.7c0,1.43-.49,2.62-.47,4,0,2.34-.48,4.36-.48,6.69v27.18c0,1.29-.14,2.65,0,3.93.14,1.61.52,3.06.51,4.7,0,2.58,0,5.16,0,7.74v101c0,6.77-.27,13.6,0,20.36.05,1.49.5,2.8.48,4.3s0,2.95,0,4.42v8.73c0,1.47,0,3,0,4.42,0,1.82-.47,3.48-.48,5.28,0,3,0,6.08,0,9.12v11.81c0,4.15-.48,8.16-.48,12.31a57.68,57.68,0,0,1,0,7.08c-.07.55-.31,1-.39,1.53a23.92,23.92,0,0,0-.11,4v13a60.89,60.89,0,0,0,.37,9.93,41.63,41.63,0,0,1,.11,6.61,34.51,34.51,0,0,1-.37,4.88c-.36,2.5.22,5.09-.22,7.59-.46,2.68-.33,5.36-.74,8.07a39.65,39.65,0,0,0-.08,4.36c-.06,1.47-.48,2.82-.52,4.29-.11,4.45-.46,8.77-.46,13.25,0,2.79-.13,5.6,0,8.38a12.08,12.08,0,0,0,.64,3.28,9.2,9.2,0,0,1,.34,3c0,3.76,0,7.52,0,11.28v-1C466,722,468,734,475,744c6,8,17,10,25.75,10.67l-1,.08c.82,0,1.52.2,2.32.19h2.21a7.79,7.79,0,0,1,1.19.21c.36.06.72,0,1.08.09s.78,0,1.18.11a6.08,6.08,0,0,0,1.28.18l-.33.08h23.54c.81,0,1.64-.05,2.44,0,1,0,1.68.4,2.61.51.62.08,1.3-.07,1.93,0a6,6,0,0,1,1.54.38,8.92,8.92,0,0,0,2.37.11c2.72,0,5.44,0,8.16,0h7.6a31.63,31.63,0,0,1,5.33,0,19,19,0,0,0,3.7.51c5,0,9.9,0,14.86,0h8a16.75,16.75,0,0,0,3.47-.11,11.79,11.79,0,0,1,4.91.12,57,57,0,0,0,8.58.46c3.31,0,6.41-1,9.68-.95,6.12,0,12.73.61,18.71-.37,3.05-.51,6.42-.11,9.52-.11h4.72c.66,0,1.33,0,2,0a17.74,17.74,0,0,0,2.78-.51,33.25,33.25,0,0,1,5.28,0h4.41c2.94,0,5.56,1,8.49,1h-1.61c24.11-.34,48.18-.19,72.28-.83l-1.66.18h1.18a5.41,5.41,0,0,0,1.08-.18c.36-.07.74.06,1.1,0a4.31,4.31,0,0,1,1-.2c1.78,0,3.56,0,5.34,0h9.25l-.48.08C777,757,792,756,808,755c6,0,11-3,15-6,10-10,11-25,9.8-39.33l.15-1.28c-.85-14.48,0-29-.26-43.48l.28,3.24a6.41,6.41,0,0,1,.13-1.58,7.25,7.25,0,0,0,.21-1.73c0-1.07,0-2.14,0-3.21a19.44,19.44,0,0,1,.38-2.77,24.08,24.08,0,0,0,.14-3.51v-2.47c0-1-.18-1.94-.17-2.92v-4.43a5.74,5.74,0,0,1,.18-1.1c0-.35,0-.68.12-1a2.28,2.28,0,0,0,0-.51c0-.54.14-1,.17-1.54.06-.9,0-1.81,0-2.71V628.48c0-1,0-2,0-3.06a7.27,7.27,0,0,1,.18-1.24,8,8,0,0,0,0-1.2v-3.73a9.21,9.21,0,0,0-.18-1.59,16.57,16.57,0,0,1,0-2.54v-2l-.1.92c0-8.65.39-17.3.39-26l.22.32c0-1.25-.17-2.43-.17-3.68V572.4l-.24,1.12q0-19.23,0-38.45l-.19.79v-4.32c0-.93,0-1.86,0-2.78,0-.73.2-1.42.19-2.16v-8.13c0-.76,0-1.52,0-2.28s.21-1.46.2-2.21c0-1.51,0-3,0-4.54v-8.5c0-.41,0-.84,0-1.26s-.18-.68-.21-1.06c-.06-.66,0-1.36,0-2v-4.68a10,10,0,0,1,.1-2.26,9.31,9.31,0,0,0,.3-2c0-.63-.17-1.2-.2-1.81a10.35,10.35,0,0,0-.15-2c-.36-1.48-.32-3-.62-4.48a29,29,0,0,1,.14-4.5,22.82,22.82,0,0,0,0-3.88V468.5a15.22,15.22,0,0,1,.18-1.92,27.13,27.13,0,0,0,.22-3.61c0-1.35.37-2.67.39-4,0-1.09,0-2.19,0-3.29s.12-2.23,0-3.3a19.66,19.66,0,0,0-.39-2,9.37,9.37,0,0,1,0-1.06,8.79,8.79,0,0,0-.19-.89c-.09-.74,0-1.52,0-2.26,0-.53-.21-1-.2-1.51a12,12,0,0,0,0-2.32,7.33,7.33,0,0,1-.21-1.5,19.63,19.63,0,0,0-.15-3.84,22.14,22.14,0,0,1,0-4c0-.71,0-1.42,0-2.13s-.2-1.1-.2-1.69c0-1.19.07-2.41,0-3.6,0-.57-.21-1.07-.21-1.65s0-1.22,0-1.83,0-1.09,0-1.62a11.06,11.06,0,0,0-.36-1.59,19.06,19.06,0,0,1,0-3.38l-.19,3V347.9c0-2.94,0-5.88,0-8.81,0-2.14.51-4.06.5-6.21,0-4.59,0-9.18,0-13.76,0-2.64-.5-5.21-.5-7.87V264c0-4.64-.31-9.39,0-14,.09-1.39.53-2.51.52-4,0-1,0-2.09,0-3.13,0-2.16,0-4.32,0-6.48a13.33,13.33,0,0,1,.53-3.37,15.26,15.26,0,0,0,0-3V210.39c0-2,0-4,0-6.07,0-2.33.51-4.5.5-6.83,0-4.16,0-8.33,0-12.49V161.26c0-3.67.42-7.64,0-11.29a26.26,26.26,0,0,1-.52-2.86,8.75,8.75,0,0,0-.38-2.22c-.43-1.82-.11-4-.11-5.89v-.5a45.31,45.31,0,0,1,.46-5.95,46.1,46.1,0,0,0,0-5.76V88.5a42.29,42.29,0,0,1,.53-4.4c.26-2.71.47-5.31.47-8.1,0-3.14.5-6.13.5-9.25a23.51,23.51,0,0,1,.39-5.11A28.13,28.13,0,0,0,835.5,56V48c0-2.74-.52-5.23-.5-8a39,39,0,0,0-.51-4.29,11.75,11.75,0,0,0-.22-2.21,16.33,16.33,0,0,1-.73-2.21,18.57,18.57,0,0,0-2.67-7.78c-1-1.55-1.81-3.64-3.22-4.92-1-.92-2.53-1.38-3.65-2.2s-2.09-2.17-3.23-3.16a17.26,17.26,0,0,0-4-2.25c-.57-.25-1.24-.32-1.79-.58-.72-.33-1-.74-1.79-.9-1.3-.27-2.6-.7-3.92-.95A17.59,17.59,0,0,0,805.52,8c-1.7,0-3.23-.48-4.89-.51-5.64-.11-11.29,0-16.93,0a33.84,33.84,0,0,0-7.49,1c-2.18.47-5,0-7.21,0h1c-1.48-.94-3.75-.5-5.41-.5h-3.71c-3.09,0-6.18,0-9.27,0-1.61,0-3,.53-4.62.51s-3.38,0-5.06,0c-1.91,0-3.66.44-5.54.51s-3.53,0-5.29,0c-5.74,0-11.47,0-17.21,0a41.67,41.67,0,0,0-4.77.53c-1.32.13-2.75,0-4.09,0H660.14a44.29,44.29,0,0,0-4.52.53c-3,.28-6,.47-9,.47H640a14.73,14.73,0,0,1-4-.51,16,16,0,0,0-3-.5c-9.61-.47-19.38,0-29,0h.23C569,10,533,10,498,10h5c-6.33,0-11.87.31-17.56,3.43a41.54,41.54,0,0,0-13.26,11.25C464.59,35.08,466,49.41,466,61.47l.07-1.11C467,84,468,109,469,133a66,66,0,0,1,1,14c1,14,1,27,1,41-3,42,0,84-.15,126.36" transform="translate(-464.37 -5.67)" fill="#e10e49"/>
        <path d="M469.35,305.83c0,13.39-.25,26.71-.48,40.05-.2,11.58-1.91,23.05-1.91,34.64,0,27.36.48,54.67.48,82V506c0,7.07,0,14.15-.07,21.22-.08,6.77.54,13.47.54,20.21,0,25.64-1.4,51.26-1.43,76.87,0,7.24.83,14.43.31,21.65-.48,6.71-.89,13.47-1.24,20.19-.39,7.45-1,14.87-1,22.35a44.28,44.28,0,0,0,.7,8.71c.81,4.47.29,9.38.29,13.91a1.5,1.5,0,0,0,3,0v-1c0-1.95-2.86-1.9-3,0-.88,12,1,25.1,8.42,34.91,6.25,8.21,17.13,10.3,26.81,11.11v-3l-1,.08a1.5,1.5,0,0,0,0,3c3,.26,5.92.32,8.86.73v-2.89l-.33.07a1.51,1.51,0,0,0,.4,3c27.43,0,54.61,1.7,82.06,1.44,6.77-.07,13.64.9,20.42.2,7.23-.75,14.38-.06,21.61-.66,6.55-.54,13-.12,19.55-.49,3.21-.18,6.29-.52,9.53-.49,3.87,0,7.59.74,11.43,1v-3h-1.61v3c24.1-.33,48.19-.22,72.28-.83v-3l-1.66.18c-1.88.2-2,3,0,3,6.28,0,12.6-.4,18.91-.4l-.4-2.94-.48.07c-1.77.29-1.17,2.83.4,3,14.83,1.18,29.62.49,44.44-.43,11.1-.69,20-4.92,25.08-15.27,5-10.16,4.22-20.8,4.09-31.74-.19-14.89.14-29.84-.11-44.76h-3l.28,3.24a1.5,1.5,0,0,0,3,0c1.5-18.27,1.2-36.74,1.2-55.08,0-2-2.8-1.88-3,0l-.1.92h3c.08-8.65.37-17.3.39-26l-2.79.76.22.32c.79,1.13,2.87.84,2.79-.76-.24-5.32-.17-10.64-.17-16,0-1.65-2.57-2.08-2.94-.4l-.25,1.12,2.95.4q0-19.23,0-38.45a1.5,1.5,0,0,0-2.94-.4l-.2.79,3,.4c0-15,.19-29.95.19-44.92a1.5,1.5,0,0,0-3,0v1h3c0-2.75.32-5.33,0-8.12a58.77,58.77,0,0,1-.48-9c.31-6.35.82-12.79.83-19.15,0-13.35-2.4-26.85-2-40.19.06-1.94-2.88-1.92-3,0l-.19,3h3V365.55c0-8.52-.12-17.06,0-25.58.12-8,.94-16,.33-24-1.28-16.88-.29-34.12-.33-51.05,0-15,1-29.76,1-44.72,0-16,.5-32,.5-48.07,0-7.9.81-16.17-.34-24-.9-6.13-.19-11.63-.09-17.76.25-15.65-1.08-31.53.53-47.11,1.53-14.81,2.2-30.32.75-45.16-.66-6.74-2.34-13.66-6.45-19.21-1.92-2.58-5.17-4-7.53-6.22a23.18,23.18,0,0,0-7.48-4.11C800.36,2.85,784,7.43,769,7v3h1c1.79,0,1.91-2.36.4-2.95-2.48-1-5-.57-7.67-.55-3.7,0-7.42-.16-11.12,0-6.84.29-13.64,1-20.51,1-13.74-.08-27.36.5-41.1.5H667.4c-7,0-13.84.94-20.81,1-6.55.06-12.84-1.09-19.37-1.19C619.48,7.68,611.74,8,604,8a1.5,1.5,0,0,0,0,3h.23V8c-35.41.49-70.82.5-106.23.5a1.5,1.5,0,0,0,0,3h5v-3c-13.08.05-24.93,4.92-32.55,16.05-7.33,10.72-6,24.62-5.95,36.92a1.5,1.5,0,0,0,3,0l.07-1.11h-3q1,24.36,1.95,48.72c.65,16.13,1.89,32.14,2.56,48.26s.06,32.21-.52,48.38c-.59,16.75-.44,33.51-.11,50.26.37,19.46.95,38.91.9,58.38a1.5,1.5,0,0,0,3,0c.08-33.92-1.8-67.83-1-101.75.39-16.3,1.36-32.47.93-48.79-.4-15.73-1.82-31.34-2.46-47q-1.15-28.2-2.26-56.41a1.5,1.5,0,0,0-3,0l-.07,1.11h3c-.05-10.85-1.29-22.86,4-32.8C477.72,16.83,490.23,11.54,503,11.5a1.5,1.5,0,0,0,0-3h-5v3c35.41,0,70.82,0,106.23-.5a1.5,1.5,0,0,0,0-3H604v3c7.74,0,15.48-.32,23.22-.19,6,.1,11.72,1.2,17.72,1.19,6.87,0,13.64-1,20.5-1H688c13.43,0,26.77-.49,40.19-.5,6.75,0,13.59-.05,20.31-.62,3.52-.29,7-.37,10.48-.38,3.24,0,7.54-.73,10.58.45L770,7h-1a1.5,1.5,0,0,0,0,3c14,.41,28.63-3.44,42.51.63a29.14,29.14,0,0,1,7.3,3c1.63,1.06,2.73,2.74,4.28,3.89,1.88,1.38,3.58,2.08,5,4.14,4,5.78,4.95,13.08,5.44,19.93,1.07,15-.11,30-1.39,45-1.25,14.46.15,29.29-.09,43.8-.09,5.34-1.08,10.46-.24,15.8,1.25,7.93.67,16,.67,24,0,15.52-.5,31-.5,46.48,0,14.35-1.35,28.66-1.06,43,.32,16.24.06,32.51.06,48.75,0,8.68,1.06,17.38.42,26.07s-.42,17.46-.42,26.2V418.5c0,1.95,2.88,1.91,3,0l.19-3h-3c-.23,7.06.57,14.39.83,21.48.23,6.23,1.07,12.49,1.14,18.71s-.52,12.83-.83,19.15a39.35,39.35,0,0,0,.28,7.89c.45,3.17.11,6.06.15,9.21a1.5,1.5,0,0,0,3,0v-1h-3c0,15-.19,29.94-.19,44.92a1.5,1.5,0,0,0,2.94.39l.2-.78-3-.4q0,19.23,0,38.45c0,1.66,2.57,2.09,2.94.4l.25-1.12-3-.4c0,5.32-.07,10.64.17,16l2.8-.76-.22-.32a1.52,1.52,0,0,0-2.8.76c0,8.65-.31,17.3-.39,26,0,2,2.81,1.88,3,0l.1-.92h-3c0,18.34.3,36.81-1.2,55.08h3l-.28-3.24c-.16-1.89-3-2-3,0,.23,13.51-.47,27,.11,40.51.45,10.23,1.25,21-2.17,30.81-1.94,5.6-5.24,10.76-10.38,13.87-5.75,3.48-11.86,3.48-18.36,3.87-13.24.79-26.46,1.19-39.7.14l.4,2.95.48-.08c1.7-.27,1.25-3-.4-3-6.31,0-12.63.39-18.91.4v3l1.66-.18c1.88-.2,2-3,0-3-24.09.61-48.18.5-72.28.83a1.5,1.5,0,0,0,0,3h1.61a1.5,1.5,0,0,0,0-3c-6.77-.39-13.15-1.44-19.94-.62-6.32.76-12.75-.18-19.11.47-6.81.7-13.69-.39-20.48.44-7.73.95-15.28.09-23,.19-27.44.35-54.63-1.44-82.06-1.44l.4,2.95.33-.08c1.37-.31,1.5-2.68,0-2.89-3.23-.45-6.42-.56-9.66-.84v3l1-.08a1.5,1.5,0,0,0,0-3c-9.43-.78-19.87-2.9-25.42-11.37-6.13-9.36-7.62-20.7-6.81-31.65h-3v1h3c0-14-1.64-27.65-.18-41.67,1.19-11.42,2.26-23.56,1.3-35-.54-6.41-.14-13-.16-19.43,0-6.23.31-12.6.62-18.84.67-13.37.81-26.91.82-40.28,0-12.7-.49-25.33-.48-38q0-22.7,0-45.4c0-27.06-.48-54.11-.48-81.12,0-13.41.7-26.73,1.57-40.07,1-15.12.82-30.23.82-45.42a1.5,1.5,0,0,0-3,0Z" transform="translate(-464.37 -5.67)"/>
      </g>
      <g>
        <path d="M477.78,321.85V343a19,19,0,0,1,0,3.92,12.7,12.7,0,0,0-.49,3.14c0,1.07,0,2.14,0,3.21V356c0,1.57-.43,3-.47,4.54-.05,2.07.32,4.3-.09,6.34a12.81,12.81,0,0,0-.36,3c0,1.17-.48,2.14-.46,3.3,0,1.92-.46,3.56-.47,5.47v22.21a31.26,31.26,0,0,0,0,3.21,35.35,35.35,0,0,1,.49,3.84c0,2.11,0,4.22,0,6.33v82.52c0,5.53-.27,11.11,0,16.64.06,1.21.49,2.29.48,3.51s0,2.41,0,3.61v7.14c0,1.2,0,2.41,0,3.61,0,1.49-.46,2.85-.48,4.32,0,2.48,0,5,0,7.45v9.65c0,3.39-.47,6.67-.47,10.06a39.84,39.84,0,0,1,0,5.78c-.07.45-.3.83-.39,1.26A17.53,17.53,0,0,0,475,573v10.63a42.34,42.34,0,0,0,.36,8.12,28.64,28.64,0,0,1,.1,5.4,23.13,23.13,0,0,1-.36,4c-.34,2,.22,4.16-.2,6.2s-.33,4.38-.72,6.59a28.41,28.41,0,0,0-.08,3.57c-.06,1.2-.46,2.3-.5,3.5-.1,3.64-.45,7.17-.45,10.84,0,2.27-.11,4.57,0,6.84a8.62,8.62,0,0,0,.61,2.69,6.55,6.55,0,0,1,.34,2.47c0,3.07,0,6.15,0,9.22v-.78c-1,9.68.94,19.48,7.7,27.66,5.79,6.53,16.42,8.17,24.87,8.72l-1,.06c.79,0,1.47.16,2.25.16H510a8.46,8.46,0,0,1,1.14.17c.35.05.7,0,1.05.07s.76,0,1.13.1a8.54,8.54,0,0,0,1.25.14l-.32.07H537c.78,0,1.58,0,2.36,0s1.61.32,2.52.42c.6.06,1.25-.06,1.85,0a6.25,6.25,0,0,1,1.49.31,10.27,10.27,0,0,0,2.29.09h15.22a35.42,35.42,0,0,1,5.15,0,22,22,0,0,0,3.57.41h22.06a18.71,18.71,0,0,0,3.35-.09,13.74,13.74,0,0,1,4.74.1,67.11,67.11,0,0,0,8.29.38c3.19,0,6.18-.8,9.34-.78,5.91,0,12.29.5,18.07-.31,2.94-.41,6.2-.08,9.2-.08H653a21,21,0,0,0,2.69-.42,37.61,37.61,0,0,1,5.09,0H665c2.84,0,5.37.78,8.21.78h-1.56c23.28-.28,46.52-.16,69.8-.68l-1.61.15H741a5.11,5.11,0,0,0,1-.14c.34-.06.71.05,1.05,0a6.81,6.81,0,0,1,.94-.17c1.71,0,3.44,0,5.16,0h8.92l-.46.07c15.75,1.13,30.24.31,45.69-.5,5.79,0,10.62-2.46,14.48-4.91,9.66-8.17,10.62-20.43,9.46-32.14l.15-1c-.82-11.83,0-23.68-.25-35.53l.27,2.65a4.63,4.63,0,0,1,.12-1.29,5.25,5.25,0,0,0,.21-1.42c0-.87,0-1.75,0-2.62a11.56,11.56,0,0,1,.37-2.27,17,17,0,0,0,.13-2.86v-2c0-.81-.18-1.58-.17-2.39s0-1.47,0-2.2c0-.47,0-.94,0-1.42a5.49,5.49,0,0,1,.17-.9c.06-.28.06-.55.12-.84a2,2,0,0,0,.05-.42c0-.44.13-.83.16-1.26,0-.73,0-1.47,0-2.2v-8.31c0-.83,0-1.67,0-2.5a4.36,4.36,0,0,1,.17-1,5.47,5.47,0,0,0,0-1v-3a6.17,6.17,0,0,0-.17-1.3,11.12,11.12,0,0,1,0-2.08v-1.68l-.1.76c.05-7.07.38-14.14.38-21.21l.21.26c0-1-.16-2-.16-3v-10l-.24.91q0-15.71,0-31.42l-.19.64v-3.53c0-.75,0-1.51,0-2.27,0-.6.19-1.16.19-1.77,0-2.21,0-4.42,0-6.64v-1.86c0-.62.2-1.19.19-1.81,0-1.23,0-2.47,0-3.71v-6.94c0-.34,0-.69,0-1s-.18-.56-.21-.86c-.05-.54,0-1.12,0-1.66v-3.82a6.71,6.71,0,0,1,.09-1.85,6.29,6.29,0,0,0,.29-1.67c0-.51-.17-1-.2-1.47a7.56,7.56,0,0,0-.13-1.65c-.35-1.21-.32-2.46-.61-3.66a21.94,21.94,0,0,1,.14-3.68,16,16,0,0,0,0-3.17v-2a10.2,10.2,0,0,1,.17-1.56,19.46,19.46,0,0,0,.21-3c0-1.09.36-2.17.38-3.27,0-.89,0-1.79,0-2.69a22,22,0,0,0,0-2.69,16.07,16.07,0,0,0-.37-1.67,4.93,4.93,0,0,1,0-.86c0-.25-.15-.48-.18-.73a14.26,14.26,0,0,1,0-1.85c0-.42-.2-.79-.19-1.23a9.28,9.28,0,0,0,0-1.9,4.86,4.86,0,0,1-.2-1.22A14.29,14.29,0,0,0,828,429a15.43,15.43,0,0,1,0-3.26c0-.58,0-1.16,0-1.74s-.21-.9-.2-1.38c0-1,.06-2,0-2.95,0-.46-.2-.87-.19-1.34v-1.5c0-.44,0-.89,0-1.33a7.94,7.94,0,0,0-.34-1.29,12.81,12.81,0,0,1,0-2.77l.33,1.07v-57.7c0-2.4,0-4.8,0-7.2,0-1.75.49-3.32.49-5.08,0-3.75,0-7.49,0-11.24,0-2.16-.49-4.26-.49-6.44V286.26c0-3.79-.29-7.67,0-11.45.08-1.14.5-2.05.5-3.25,0-.85,0-1.71,0-2.56,0-1.76,0-3.53,0-5.29a9.7,9.7,0,0,1,.5-2.76,10.13,10.13,0,0,0,0-2.46v-16c0-1.65,0-3.31,0-5,0-1.9.49-3.68.48-5.59,0-3.4,0-6.8,0-10.2V202.3c0-3-.48-4.8,0-9.23a19.66,19.66,0,0,1-.5-2.33,6,6,0,0,0-.37-1.82c-.42-1.49-.1-3.29-.1-4.81v1c0-.76,0-1.47.1-2.18.18-2,.38-5.35.38-7.39v-30.3a31.11,31.11,0,0,1,0-3.74c-.51-4.15,0-3.72,0-6,0-2.91-.48-7-.58-10a8.08,8.08,0,0,1,.31-2.82c.5-1.54.2-3.35.2-5v-6.51c0-2.24-.5-4.28-.48-6.55a26.48,26.48,0,0,0-.5-3.51,7.32,7.32,0,0,0-.21-1.8,14.35,14.35,0,0,1-.7-1.81A13.6,13.6,0,0,0,824,91.13c-1-1.27.25-3-1.11-4-1-.75-2.44-1.13-3.52-1.8s-2-1.77-3.12-2.58a17.45,17.45,0,0,0-3.84-1.84c-.56-.21-1.2-.26-1.73-.47a7.66,7.66,0,0,0-1.74-.74c-1.25-.22-2.51-.57-3.78-.78a20,20,0,0,0-3.64-.44c-1.64,0-3.11-.4-4.72-.42-5.45-.09-10.9,0-16.35,0a39.24,39.24,0,0,0-7.24.78c-2.1.38-4.8,0-7,0h.45c-1.43-.77-3.62-.4-5.23-.4h-3.58c-3,0-6,0-8.94,0-1.56,0-2.92.43-4.47.41s-3.26,0-4.89,0c-1.84,0-3.53.35-5.34.41s-3.42,0-5.11,0c-5.54,0-11.08,0-16.62,0-1.64,0-3,.29-4.6.43-1.29.12-2.66,0-4,0H660.57c-1.57,0-2.85.31-4.36.43-2.91.23-5.75.39-8.72.39-2.12,0-4.24,0-6.35,0a16.94,16.94,0,0,1-3.87-.42,20,20,0,0,0-2.9-.41c-9.28-.38-18.72,0-28,0h.22c-34,.41-68.78.41-102.58.41h4.83c-6.11,0-11.46.26-17,2.8a39.11,39.11,0,0,0-12.8,9.2c-7.33,8.5-6,20.21-6,30.06l.06-.9c.91,19.32,1.87,39.75,2.84,59.36a46.14,46.14,0,0,1,1,11.44c1,11.44.54,22.45,1,33.51-2.9,34.32,0,68.65-.15,103.26" transform="translate(-464.37 -5.67)" fill="#f2f2f2"/>
        <path d="M476.28,321.85v16.23c0,5.1-.46,10.07-.46,15.14,0,9.94-1.85,19.74-1.85,29.68,0,22.06.47,44.08.47,66.17v36c0,11.82.45,23.67.46,35.44,0,21.07-1.32,42.11-1.39,63.14,0,5.77.68,11.35.16,17.11-.54,6-.64,12.08-1.26,18.11-.57,5.45-.76,10.93-.79,16.41a32.11,32.11,0,0,0,.69,6.51c.66,3.62.27,7.62.28,11.29a1.5,1.5,0,0,0,3,0v-.78c0-2-2.84-1.9-3,0-.87,10.25,1.27,21.51,8.62,29.21,6.4,6.72,16.67,8,25.45,8.67v-3l-1,.06a1.5,1.5,0,0,0,0,3c3,.22,6,.29,8.95.64l-.4-2.94-.32.06c-1.69.33-1.26,3,.4,3,26.13,0,52.12,1,78.28,1.17,6.35,0,12.89.76,19.23.31,7.35-.52,14.65-.19,22-.66a348.45,348.45,0,0,1,39.45,0v-3h-1.56v3c23.27-.27,46.54-.18,69.8-.68v-3l-1.61.15c-1.89.17-2,3,0,3,6.07,0,12.17-.33,18.26-.33l-.39-2.94-.47.06c-1.76.24-1.18,2.84.4,3a338.81,338.81,0,0,0,39.93-.2c9.94-.51,19.38-1.74,25.67-10.35,5.54-7.59,6.32-17.22,5.72-26.29-.86-12.89,0-25.87-.29-38.79h-3L826,618a1.5,1.5,0,0,0,3,0c1.45-14.91,1.16-30,1.16-45,0-2-2.77-1.86-3,0l-.1.76h3c.08-7.07.35-14.14.38-21.21l-2.56,1.06.21.26a1.51,1.51,0,0,0,2.56-1.06c-.24-4.34-.16-8.69-.16-13a1.51,1.51,0,0,0-3-.4l-.24.92,3,.39q0-15.71,0-31.42a1.51,1.51,0,0,0-3-.4l-.19.64,2.95.4c0-12.23.19-24.47.19-36.71a1.5,1.5,0,0,0-3,0v.81a1.5,1.5,0,0,0,3,0c.27-5.25-.5-10.3-.32-15.55s1-10.77.73-16.1c-.22-4.69-1-9.38-1.18-14.08-.24-5.45-1-11.34-.75-16.75l-3,.4.34,1.06a1.5,1.5,0,0,0,2.94-.39V362.79c0-7.7.5-15.38.48-23.05,0-7.15-.48-14.24-.48-21.39,0-15.81-.32-31.67.48-47.43.71-13.75,1-27.77,1-41.57,0-8.69.06-17.39,0-26.08,0-3.1,0-6.23-.06-9.32-.07-3.33-1-6.43-.9-9.84h-3v1a1.5,1.5,0,0,0,3,0c.29-12.28.48-24.51.48-36.8,0-5.66.18-11.39-.2-17-.51-7.8.46-15.54-.12-23.39-.52-7.06-2.23-12.28-4.63-18.85-1-2.73-1-2.82-3.79-4.43-2.54-1.49-4.4-3.52-7.18-4.65-15.28-6.25-32-2.21-47.87-2.6v3h.45a1.5,1.5,0,0,0,.4-2.94c-2.42-.79-4.91-.48-7.42-.46-3.57,0-7.17-.13-10.73,0-6.32.22-12.63.86-19,.82-13.85-.09-27.64.4-41.49.4H666.64c-6.42,0-12.74.76-19.15.82s-12.42-.89-18.71-1c-7.47-.11-14.95.13-22.42.15a1.5,1.5,0,0,0,0,3h.22v-3c-34.19.4-68.39.41-102.58.41a1.5,1.5,0,0,0,0,3h4.83v-3c-11.86,0-23.56,3.44-31.32,13-7,8.64-6,20.11-5.91,30.51a1.5,1.5,0,0,0,3,0l.06-.9h-3c1.59,33.9,3.74,67.65,4.68,101.55.24,8.64-.91,17.41-1.09,26.08s-.12,17.5,0,26.26c.32,17.89,1,35.78,1,53.68a1.5,1.5,0,0,0,3,0c.05-17.57-.64-35.14-1-52.71-.17-9.08-.24-18.16-.05-27.23.18-8.67,1.33-17.44,1.09-26.08-.94-33.9-3.09-67.66-4.68-101.55a1.5,1.5,0,0,0-3,0l-.06.9h3c-.05-9.37-1.2-19.91,4.71-27.9,7-9.42,18.35-12.62,29.52-12.66a1.5,1.5,0,0,0,0-3H504v3c34.19,0,68.39,0,102.58-.41a1.5,1.5,0,0,0,0-3h-.22v3c7.16,0,14.33-.23,21.49-.16,6.07,0,12,1,18,1,6.31,0,12.54-.82,18.84-.82h21.82c13.59,0,27.11-.43,40.69-.41,6.21,0,12.5-.07,18.69-.5,3.38-.23,6.72-.3,10.12-.31,3.16,0,7.16-.64,10.2.35l.4-3h-.45a1.5,1.5,0,0,0,0,3c15.22.38,31-3.34,45.76,2,2.28.82,3.6,2.16,5.51,3.46,1,.68,2.73,1.2,3.51,2,1,1,3,6.07,3.46,7.48,2.32,6.64,2.42,13.85,2.48,20.81,0,3.63-.59,7.17-.45,10.77.13,3.18.61,6.34.49,9.52-.21,5.77,0,11.61,0,17.41,0,10.49-.23,20.9-.48,31.37h3v-1a1.5,1.5,0,0,0-3,0c-.23,5.41.7,10.94.91,16.39.29,7.62.06,15.28.05,22.9,0,14-.73,28.1-1,42.07-.25,15.45-.49,30.94-.49,46.44,0,7.11.45,14.19.47,21.27,0,7.57-.46,15.07-.47,22.64v56.71l3-.4-.34-1.07a1.5,1.5,0,0,0-2.94.4c-.4,10.43,1.3,21.09,1.94,31.5.32,5.06-.58,10.35-.74,15.43-.17,5.23.59,10.31.32,15.55h3v-.81h-3c0,12.24-.19,24.47-.19,36.71a1.51,1.51,0,0,0,3,.4l.19-.64-2.95-.4q0,15.7,0,31.42a1.51,1.51,0,0,0,2.95.4l.24-.91-2.95-.4c0,4.35-.08,8.7.16,13l2.56-1.06-.21-.26c-.86-1-2.56-.15-2.56,1.06,0,7.07-.3,14.14-.38,21.21,0,2,2.78,1.86,3,0l.1-.76h-3c0,15,.29,30.1-1.16,45h3l-.27-2.65c-.19-1.88-3-2-3,0,.23,11.89,0,23.77.23,35.66.2,8.68.88,17.62-3.67,25.48-6.36,11-18.13,11-29.4,11.52a308.29,308.29,0,0,1-35.19,0l.4,2.94.46-.06c1.71-.23,1.25-3-.4-3-6.09,0-12.19.32-18.26.33v3l1.61-.15c1.89-.17,2-3,0-3-23.26.5-46.53.41-69.8.68a1.5,1.5,0,0,0,0,3h1.56a1.5,1.5,0,0,0,0-3,343.84,343.84,0,0,0-39.45,0c-7,.46-14-.08-21,.56-6.64.61-13.53-.17-20.17-.21-26.15-.15-52.14-1.17-78.28-1.17l.4,2.94.32-.06c1.8-.35,1.13-2.76-.4-3-3-.35-5.95-.42-8.95-.64v3l1-.06a1.5,1.5,0,0,0,0-3c-8-.57-17.46-1.7-23.33-7.79-6.84-7.1-8.54-17.66-7.74-27.09h-3v.78h3c0-11.23-1.62-22.14-.29-33.41,1.07-9.09,2.29-18.95,1.54-28.1-.82-10.17-.14-20.38.17-30.52.32-10.81.88-21.7.89-32.5,0-11.27-.48-22.47-.46-33.75q0-18.48,0-37c0-22.26-.47-44.53-.47-66.75,0-11.8,1.31-23.38,1.85-35.12.52-11.35.46-22.69.46-34.1a1.5,1.5,0,0,0-3,0Z" transform="translate(-464.37 -5.67)"/>
      </g>
      <g>
        <path d="M643.18,734.86a7.83,7.83,0,0,1-2.17-.28c-.75-.17-1.55.11-2.28-.05-.94-.2-1.16-.74-2.23-.72-.79,0-1.59,0-2.38,0h-4.88c-1.65,0-3.21-.35-4.88-.35a33.3,33.3,0,0,1-8.27-1.12,9.33,9.33,0,0,1-4.26-2.35,12.49,12.49,0,0,1-1.9-2c-.28-.46-.27-1-.54-1.48-.18-.3-.47-.53-.64-.85a7.17,7.17,0,0,1-.34-4.37c.34-1.41.23-2.84.58-4.26.87-3.53,3.79-5.66,7-6.89.82-.32,1.67-.4,2.45-.77a4,4,0,0,1,2.16-.35,16.21,16.21,0,0,0,3.83-.28,20.46,20.46,0,0,1,4.08-.41c1.33,0,2.48-.68,3.78-.72,2.69-.07,5.4,0,8.09,0h4c1.37,0,2.6.86,4,.7l-.28-.06C661,709,676,703,686,713c4,5,6,15-1,19-14,7-29,3-43.15,2.86" transform="translate(-464.37 -5.67)" fill="#e10e49"/>
        <path d="M643.18,733.36c-2.67-.16-5.22-.91-7.87-1-3.66-.19-7.29-.07-10.95-.36-4.15-.32-9.59-.33-12.48-4-2.35-3-2.43-7-1.45-10.52,2.09-7.59,12-6.78,18.09-7.6,6.8-.92,13.12-.59,19.89,0,1.68.14,2.05-2.6.4-3l-.29-.06-.39,2.95c12.26.44,36-7,39.68,10.6,4.22,20.24-35.21,13.17-46,13-1.93,0-1.93,3,0,3,12.29.25,52.18,7.57,49.12-15.21-2.86-21.2-28.57-13.83-42.84-14.34-1.67-.06-2.07,2.59-.4,3l.28.06.4-3c-4.61-.4-9-.75-13.68-.74-4.32,0-8.5,1.18-12.81,1.43-6.79.41-13.42,3.43-14.64,10.75s1.4,13.67,9.23,15.67c4.61,1.16,9.64,1.26,14.36,1.33,4.23.06,8.1.8,12.31,1.05,1.93.11,1.92-2.89,0-3Z" transform="translate(-464.37 -5.67)"/>
      </g>
      <path d="M727.24,28.67c-2.91-.47-4.92-1.09-7.61.51a9.12,9.12,0,0,0-4.6,5.5c-.9,2.67-1.6,4.91-.4,7.64A9.46,9.46,0,0,0,719.77,47c4.24,1.62,10.76,0,12.83-4.36,2.28-4.79-1-13.16-6.68-13.69-1.92-.17-1.91,2.83,0,3,4.11.39,5.83,8.63,2.61,10.92-2.57,1.82-6,2.42-8.79.7-3.19-2-2.92-4.92-1.82-8.12a6.19,6.19,0,0,1,3.23-3.71c1.94-1,3.23-.54,5.29-.21,1.89.31,2.7-2.58.8-2.89Z" transform="translate(-464.37 -5.67)"/>
      <path d="M726.06,35a2.16,2.16,0,0,0-1-.68,3.55,3.55,0,0,0-.64-.1c-.12,0-.28-.07-.09,0a2.23,2.23,0,0,0-2.33.39,3.12,3.12,0,0,0,0,4.56c1.09,1.08,3.24,1.5,4.41.34a2.66,2.66,0,0,0,.7-2.27,2.09,2.09,0,0,0-.56-1.2,2.65,2.65,0,0,0-.46-.38s-.31-.26-.13-.1a1.54,1.54,0,0,0-2.12,0,1.51,1.51,0,0,0,0,2.12,4.45,4.45,0,0,0,.48.38c.18.14.11.17,0,0a1.8,1.8,0,0,1-.2-.51c0-.09,0-.06,0,.1l.15-.28.26-.17c.13,0,.14,0,0,0a.56.56,0,0,1-.17,0l-.17-.06s-.34-.21-.11-.06c0,0-.13-.18-.11-.13s-.06-.29,0,0a.18.18,0,0,1,0,.12c.11-.1.14-.15.08-.16a.39.39,0,0,0-.3.09c-.16,0-.59,0-.31.11a2.78,2.78,0,0,0,.5.11,1.51,1.51,0,0,0,.47,0c-.19.06-.68-.46-.36-.09a1.51,1.51,0,0,0,2.12,0,1.54,1.54,0,0,0,0-2.12Z" transform="translate(-464.37 -5.67)" fill="#353535"/>
      <path d="M576.52,36.17a3.24,3.24,0,0,0-1.82.2,2.06,2.06,0,0,0-1,2.05,2.69,2.69,0,0,0,.64,1.93,3.09,3.09,0,0,0,1.54.69,3.37,3.37,0,0,0,1.78.08,2.19,2.19,0,0,0,1.44-1.89,3,3,0,0,0-.26-1.87,2,2,0,0,0-2-1,1.54,1.54,0,0,0-1.5,1.5c0,.74.66,1.6,1.5,1.5.16,0,.17,0,0,0a.87.87,0,0,1-.52-.28s-.32-.59-.23-.55a1.13,1.13,0,0,1,0,.26c0,.28-.07.08,0,0-.08.27,0,.2.19-.23l.43-.26c.22,0,.27,0,.15,0s-.07,0,.14,0c-.2-.06-.42-.09-.62-.14L576.2,38c-.12,0-.12,0,0,0a.57.57,0,0,1,.28.18c.11.12.33.42.25.59a1.23,1.23,0,0,0,0-.33,1.83,1.83,0,0,0,0-.33c.31,1.19-1.7,1-.83,1l.64.05a1.5,1.5,0,0,0,0-3Z" transform="translate(-464.37 -5.67)" fill="#353535"/>
      <path d="M577.62,33.59c-1.35,0-2.79-.22-4,.54a4.83,4.83,0,0,0-2.29,3.12,5.1,5.1,0,0,0,3.49,5.8c1.31.38,2.95.7,4.2,0a4.4,4.4,0,0,0,2-3.11,5.16,5.16,0,0,0-.45-3.52,5.28,5.28,0,0,0-1.07-1.6c-.54-.51-1.23-.6-1.82-1-1.59-1.09-3.1,1.51-1.51,2.59.5.35,1.14.44,1.51.91a2.46,2.46,0,0,1,.49,1.54,2.39,2.39,0,0,1-.42,1.41c-.5.46-1.49.08-2.09-.09a2.09,2.09,0,0,1-1.35-2.44c.45-1.49,2.2-1.14,3.35-1.12,1.93,0,1.93-3,0-3Z" transform="translate(-464.37 -5.67)"/>
      <path d="M724.08,31.19c-3,0-5.18,1.36-5.83,4.36-.68,3.16,1.28,5,4.19,5.79,2.76.76,5.17.09,6-2.76,1-3.31-.31-5-2.65-7.18l-.67,2.5c2.12-.62,2.75,3,2.4,4.3a3.89,3.89,0,0,1-3.77,2.61c-1.21,0-2.76-.11-3.58-1.15-.35-.44-.1-.14-.24-.9a6.15,6.15,0,0,1,0-3.1l-3-.4c0,2.11-1,4.18-.1,6.28.76,1.81,2.95,3.11,4.77,3.62,4.08,1.14,9.16-1.72,9.14-6.2a1.5,1.5,0,0,0-3,0c0,1.26-1.12,2.37-2.17,3a4.37,4.37,0,0,1-4.49-.28c-2.63-1.55-1.13-4-1.15-6.43a1.51,1.51,0,0,0-2.95-.4c-.8,2.42-.35,5.89,1.73,7.51a8.54,8.54,0,0,0,8.06.89,6.78,6.78,0,0,0,3.62-7.76c-.58-2.83-3-5.39-6.06-4.49a1.51,1.51,0,0,0-.66,2.51c.81.74,2,1.4,2.18,2.6a1.92,1.92,0,0,1-2,2.44c-1,0-2.61-.71-2.75-1.71-.25-1.79,1.38-2.68,2.94-2.66,1.93,0,1.93-3,0-3Z" transform="translate(-464.37 -5.67)"/>
      <path d="M659.74,44.92c4.8,0,9.57.16,14.36.36,4.12.17,10,1.14,13.29-2.11,2.59-2.55.94-6.62-1.63-8.59C683,32.47,677,32.93,673.52,33c-6,.13-12,.64-18.08.74-5.45.09-10.93-.92-16.39-.43-5.13.46-10.08,0-15.23.2-3.77.14-10.55-1-13,2.68-2.12,3.18.62,7.81,3.85,9,2.08.74,4.62.08,6.73-.22a65,65,0,0,1,10.79-.43c1.93,0,1.93-3,0-3-2.1,0-4.18-.38-6.28-.24-2.62.18-5.46,1.25-8.07,1.11a4.29,4.29,0,0,1-3.17-.86l.67-4.38c.74-.91,4.19-.71,5.27-.7,2.06,0,4.1-.13,6.16-.16s4.39.35,6.56.46c2.63.12,4.84-.39,7.49-.55,4.49-.26,9.09.44,13.57.55a128.8,128.8,0,0,0,15.22-.33,37.75,37.75,0,0,1,6.64-.21c1.92.13,5.17-.42,6.86.3,1.87.8,2.91,3.14,1.81,4.74s-4.76,1.18-6.5,1.18-3.19-.13-4.8-.2q-6.93-.31-13.88-.31a1.5,1.5,0,0,0,0,3Z" transform="translate(-464.37 -5.67)"/>
      <path d="M632.39,44.52c5,.54,10.12-.13,15.15.25,4.7.36,9.2.65,13.92.56,1.93,0,1.93-3,0-3-4.7.09-9.25-.26-13.92-.56-5-.32-10.14.29-15.15-.25-1.92-.21-1.9,2.8,0,3Z" transform="translate(-464.37 -5.67)"/>
      <path d="M505.7,89.24c-1.2,2.49-4.16,4.86-6.05,6.86-2,2.15-4.54,3.71-6.51,5.91-4.36,4.89-8.3,10.21-12.8,15-.8.85-.32,2.72,1.06,2.56l.6-.07c1.89-.22,1.92-3.23,0-3l-.6.07,1.06,2.56c4.59-4.88,8.67-10.26,13.1-15.27,2.22-2.5,5.06-4.52,7.36-7,1.83-2,4.17-3.58,5.38-6.06.83-1.73-1.76-3.26-2.6-1.52Z" transform="translate(-464.37 -5.67)"/>
      <path d="M520.6,87.55c-3.85,1.4-5.55,5.28-8.47,7.91-4.55,4.11-9.92,6.83-14.08,11.42-4.48,5-8.83,10-13.7,14.54-4,3.7-7.92,7.36-10.35,12.28-.6,1.22.72,3,2.06,2.05a7.89,7.89,0,0,1,2.34-1.3c1.84-.56,1.06-3.46-.8-2.9a10,10,0,0,0-3.06,1.61l2,2.05c2.43-4.92,6.5-8.47,10.42-12.18,4.2-4,8.06-8.27,11.89-12.58s8.11-7.27,12.62-10.68a33.21,33.21,0,0,0,4.59-4c1.67-1.84,2.79-4.4,5.29-5.3,1.8-.66,1-3.56-.8-2.9Z" transform="translate(-464.37 -5.67)"/>
      <path d="M538.6,86.55c-4.72,2-9,7.09-12.87,10.35-5.73,4.77-9.92,10.92-15.6,15.65-6,5-11.13,10.67-16.37,16.47-2.33,2.58-4.6,5-7.13,7.45-1.46,1.38-3.18,4.39-5,5.08s-1,3.57.8,2.9c3.32-1.24,6.72-6,9.19-8.49,5.43-5.49,10-11.89,15.7-17.14,2.58-2.39,5.54-4.36,8-6.88,2.72-2.8,4.82-6.07,7.68-8.75,2.7-2.53,5.65-4.82,8.47-7.21,2.2-1.85,5.33-5.44,8-6.53,1.76-.73,1-3.64-.8-2.9Z" transform="translate(-464.37 -5.67)"/>
      <path d="M549.94,88.94c-6.53,6.27-14.17,10.76-21.29,16.26-3.34,2.57-6.54,5.19-9.95,7.66-1.75,1.27-3.36,2.53-4.07,4.64a1.51,1.51,0,0,0,1.85,1.84,4.1,4.1,0,0,0,3-2.94c.7-1.8-2.2-2.58-2.9-.8l-.87.85,1.84,1.85c.89-2.65,4.76-4.08,6.86-5.7,3.59-2.75,6.88-5.74,10.63-8.3a130.07,130.07,0,0,0,17-13.24c1.4-1.34-.73-3.46-2.12-2.12Z" transform="translate(-464.37 -5.67)"/>
      <path d="M562.94,90.94c-3.38,2.67-7.5,4-10.79,6.79-3.09,2.65-6.22,4.31-9.13,7.23-6.08,6.09-13.64,10.56-19.76,16.66l2.12,2.12.68-.68a1.5,1.5,0,0,0-2.12-2.12l-.68.68a1.5,1.5,0,0,0,2.12,2.12c6.11-6.08,13.71-10.53,19.76-16.66,2.69-2.72,5.76-4.29,8.63-6.71,3.48-2.93,7.72-4.49,11.29-7.31,1.52-1.19-.62-3.3-2.12-2.12Z" transform="translate(-464.37 -5.67)"/>
      <path d="M550.94,108.94c-9,8.7-20.8,14-29,23.54-8.75,10.27-20.92,17.2-30.1,27.09l2.56,1.06.07-.63c.22-1.92-2.78-1.9-3,0l-.07.63c-.15,1.31,1.73,2,2.56,1.06,9.18-9.89,21.35-16.82,30.1-27.09,8.13-9.54,20-14.85,29-23.54,1.39-1.35-.73-3.47-2.12-2.12Z" transform="translate(-464.37 -5.67)"/>
      <path d="M593.55,92.6c-.52,1.84-3.18,2.72-4.54,3.9-1.86,1.61-3,4.11-5.41,5-1.78.7-1,3.6.8,2.9,3.08-1.21,4.36-3.86,6.78-5.86,2-1.62,4.5-2.52,5.27-5.19a1.51,1.51,0,0,0-2.9-.8Z" transform="translate(-464.37 -5.67)"/>
      <path d="M608.94,91.94c-1.73,1.68-5.54,3.19-5.44,6.06.07,1.93,3.07,1.93,3,0,0-.27-.16.19,0-.11a3.47,3.47,0,0,1,.39-.47,13.51,13.51,0,0,1,1.33-1.18,31.3,31.3,0,0,0,2.8-2.18c1.39-1.35-.74-3.47-2.12-2.12Z" transform="translate(-464.37 -5.67)"/>
      <path d="M787.94,435.94c-2.1,1.73-4.58,2.93-6.76,4.57-2,1.5-4,1.79-6,3.11-2.2,1.47-4.11,3.7-6.23,5.34a56.11,56.11,0,0,1-9.81,5.55c-9.76,4.82-18.86,11.33-27.25,18.1-2.26,1.82-5,2.4-7.32,4.08s-4,3.59-6.07,5.25c-5.47,4.34-11.57,7.7-17.12,11.9-10.52,7.93-22.93,13.47-32.93,22.07-5,4.32-9.31,9.24-14.83,13-5.2,3.53-11,8.47-16.72,10.9-4.92,2.09-8.15,5.53-12.64,8.32-6,3.69-11.69,7.46-17.3,11.64-9.4,7-17.84,14.85-26.57,22.58A169.07,169.07,0,0,1,549,603.77c-6,3.25-10.78,8.87-16.2,12.94-5,3.76-10.26,7-14.2,12a59.41,59.41,0,0,1-15.5,14.24,42.33,42.33,0,0,0-6.62,4.53c-2.66,2.48-4.5,5.68-7.18,8.16l2.12,2.12,2-1.29a1.51,1.51,0,0,0-.8-2.9,6.35,6.35,0,0,0-3.33,2.07,1.5,1.5,0,0,0,2.12,2.12c2.33-2.16,4-4.79,6.14-7.08s4.54-3.55,7.05-5.14c5-3.14,9.49-6.34,13.21-10.95,1.66-2.05,3.14-4.25,4.93-6.19,2.34-2.53,5.22-4.22,8-6.25a177.21,177.21,0,0,0,13.8-11.25,37.27,37.27,0,0,1,9.08-6c2.53-1.24,4.1-2.82,6.42-4.41,5.2-3.57,10.74-6.42,15.75-10.36a159.82,159.82,0,0,0,13.5-12.1c1.88-1.85,4.1-3,6.15-4.62,2.23-1.76,4.15-3.9,6.3-5.75a167.89,167.89,0,0,1,17-12.72c2.78-1.83,5.77-3.33,8.54-5.18s5-4.6,8-6.13c2.29-1.15,4.63-1.74,6.8-3.12s4.31-3.43,6.62-4.95c5.09-3.37,10.14-6.46,14.57-10.69,4.89-4.67,9.55-9,15.31-12.59,6.31-3.94,13-7.61,19.09-11.85,5-3.49,9.9-7.11,14.95-10.55,2.26-1.53,4.47-3.12,6.62-4.79,2.76-2.13,5.44-5.27,8.52-6.9,11-5.84,20.19-14.59,31.39-20.39,3.44-1.78,7.07-3.18,10.23-5.45,2.32-1.67,4.34-3.76,6.64-5.43,2-1.46,4.15-2,6.18-3.45,2.58-1.85,5.39-3.42,7.84-5.44,1.49-1.23-.64-3.34-2.12-2.12Z" transform="translate(-464.37 -5.67)"/>
      <path d="M798.45,446.6c-1.44-5.75-11.93,3.93-13.9,5-4.37,2.51-6.71,7-10.74,10-4.73,3.5-10.61,5-15.1,8.75-2,1.64-3.62,3.67-5.56,5.36-2.51,2.19-5.5,3.72-8,5.95-2.06,1.83-3.83,4-5.82,5.87-2.46,2.38-5.3,4.26-7.76,6.63-9.58,9.25-19.28,18.3-28.92,27.5-4.34,4.15-9.73,7-14,11.11-1.94,1.9-3.69,3.86-5.78,5.62s-4.85,2.73-7,4.57c-4.29,3.6-9.08,6.33-13.51,9.77-4.69,3.66-8.48,8.38-13,12.22-4.74,4-9.34,8-13.81,12.33s-9.18,7.48-13.85,11.26c-5.35,4.34-10.91,8.42-16.57,12.35-5.44,3.77-10.67,7.69-16.05,11.54-5.65,4-11.69,7.46-17.27,11.64-5.88,4.41-11.57,9.07-17.41,13.53-5.13,3.91-10.57,7-15.36,11.36a51.24,51.24,0,0,1-8.73,6.49c-2.77,1.57-5,3.79-7.72,5.31a1.51,1.51,0,0,0,.76,2.8l1.69-.07c1.92-.08,1.93-3.08,0-3l-1.69.07.75,2.79c2.12-1.18,3.62-3.06,5.72-4.29a70.67,70.67,0,0,0,6.75-4.24c4.71-3.53,8.85-7.43,13.81-10.67,10.5-6.87,19.73-15.57,30.1-22.64,9.74-6.63,19.47-13.21,29-20.08,9.17-6.57,18.79-13.08,26.94-20.89,4.06-3.9,8.2-7.58,12.46-11.26,4.56-3.95,8.63-8.17,13-12.26,7.88-7.32,18.13-11.52,25.92-18.95a56.74,56.74,0,0,1,6.36-5.73c2-1.41,4-2.69,5.89-4.27,5.14-4.33,9.64-9.33,14.4-14.07,4-4,8.59-7.2,12.68-11.05,2.27-2.13,4.28-4.52,6.54-6.66,2.48-2.37,5.32-4.23,7.77-6.63,2.69-2.65,5.08-5.49,8.15-7.73a62.65,62.65,0,0,0,6.77-5.16c3-2.81,5.37-5.3,9.21-7a53.55,53.55,0,0,0,7.1-3.76,38.78,38.78,0,0,0,6.38-4.88c2.42-2.43,3.95-5,7-6.87,1-.62,9.8-5.56,9.48-6.84.47,1.87,3.37,1.08,2.9-.8Z" transform="translate(-464.37 -5.67)"/>
      <path d="M791.94,471.94c-2,2.19-4.69,3.27-7.3,4.6a52.64,52.64,0,0,0-8,5.38c-6,4.61-11.42,9.76-17.13,14.71-5.89,5.09-12.2,10.09-17.78,15.5a128.48,128.48,0,0,1-18,15.07c-5.56,3.74-10.5,8.12-16.18,11.73-6.15,3.91-11.34,9.07-17.25,13.33-5.58,4-10.2,9-15.47,13.44-5.5,4.58-10.86,9.34-16.23,14.07-6.68,5.88-13.18,12-19.85,17.9-3.36,3-7.26,5.19-10.77,8-3.11,2.48-5.7,5.52-8.65,8.16-1.16,1,.07,2.87,1.46,2.51l.51-.14a1.46,1.46,0,0,0,1.05-1l.11-.74c.27-1.89-2.62-2.71-2.9-.8l.43-.17,1.46,2.5c2.46-2.19,4.64-4.68,7.1-6.86,3-2.66,6.54-4.6,9.69-7.05,6.26-4.88,12.13-10.61,18-16,5.19-4.8,10.72-9,15.79-13.95,5.29-5.12,11.11-10.4,16.85-15,11.07-8.9,22.71-16.92,34-25.54,5.76-4.4,11.91-8,17.08-13.17,5.46-5.44,11.42-10.16,17.09-15.38,6.55-6,13.08-12.24,20.13-17.66a60.19,60.19,0,0,1,9-6.18c2.87-1.46,5.68-2.68,7.91-5.07,1.32-1.41-.8-3.54-2.12-2.12Z" transform="translate(-464.37 -5.67)"/>
      <path d="M795.45,495.4l-.43.17-1.46-2.51c-4.85,4.31-11.38,6-16.59,9.71A145.9,145.9,0,0,0,761.72,515c-9.14,8.65-19,15.83-29.26,23-9.89,6.93-19.49,13.48-28.28,21.83-4.89,4.66-9.81,9.32-14.83,13.85-5.21,4.7-9.83,10.26-15.73,14.13l2.06,2,.62-1.14c.91-1.7-1.68-3.22-2.6-1.52l-.61,1.15c-.68,1.25.74,2.91,2,2.05,5.2-3.41,9.21-8.05,13.72-12.27,5.17-4.82,10.41-9.58,15.57-14.4,4.7-4.4,9.3-8.74,14.41-12.68s11.06-7.45,16.42-11.38c9.46-6.94,19-13.18,27.46-21.48a110.07,110.07,0,0,1,18-14.47c4.87-3.07,10.53-4.67,14.92-8.57a1.51,1.51,0,0,0-1.46-2.51l-.51.14a1.45,1.45,0,0,0-1.05,1.05l-.11.73c-.27,1.89,2.62,2.7,2.9.8Z" transform="translate(-464.37 -5.67)"/>
      <path d="M796.7,516.24c-1.16,2.27-5.07,4.19-7.25,5.23a27.5,27.5,0,0,0-7.82,5.71c-3,2.92-7,4.6-10.43,7a59.85,59.85,0,0,0-8.15,7.61c-5.55,5.76-11,11.51-16.86,17-2.74,2.58-5.89,4.6-8.8,7a118.47,118.47,0,0,0-9.13,8.8c-2.62,2.64-5.61,4.51-8.5,6.81-3.1,2.47-5.59,5.62-8.44,8.37-6.12,5.91-13.2,9.82-20,14.8-6.38,4.68-11.77,10.74-18.38,15-6.36,4.09-11.86,9.57-17.31,14.75-3.23,3.07-7.33,4.81-10.71,7.69-3.58,3.07-6.65,6.56-10.36,9.51A119,119,0,0,0,624.45,661c-.68.68-7.67,7.16-8.75,7l.9,2.21a25.19,25.19,0,0,1,1.7-2.39c1.16-1.55-1.45-3-2.6-1.52a28.59,28.59,0,0,0-1.69,2.39,1.5,1.5,0,0,0,.89,2.2c2,.36,3-.2,4.51-1.54,2.17-1.94,4.59-3.63,6.68-5.68,6.41-6.31,13.08-12.3,19.71-18.36,3.13-2.86,7-4.5,10.21-7.19s5.74-5.77,8.93-8.36c3.58-2.9,7-5.84,10.88-8.38,3.44-2.28,6.11-5.25,9.19-8,6.44-5.69,14.1-9.36,20.7-14.67,6.43-5.18,11.61-11.88,18.3-16.65,7.13-5.08,12.67-12,19.69-17.25a61.85,61.85,0,0,0,7.43-6.67c3-3.14,6.65-5.65,9.49-8.89,3.19-3.61,6.2-7.36,9.83-10.57s8.44-5.1,12.19-8.3c2-1.71,3.46-3.78,5.79-5.11,1.61-.91,3.42-1.44,5-2.42,2-1.2,4.77-2.95,5.86-5,.88-1.72-1.71-3.24-2.6-1.52Z" transform="translate(-464.37 -5.67)"/>
      <path d="M799,539.5c-2.42,0-3.61,1-5.34,2.5-2.74,2.35-5.81,4.27-8.5,6.67-6.09,5.42-11.25,11.84-17.29,17.32s-11.8,10.65-17.38,16.39a51,51,0,0,1-8.7,7.61c-2.3,1.52-4.39,4.5-6.84,5.46l1.69,2.21.66-.9c1.13-1.57-1.47-3.07-2.6-1.52l-.65.9a1.52,1.52,0,0,0,1.69,2.21c2.66-1.05,4-3.31,6.32-5s4.49-2.71,6.46-4.57c5.44-5.14,10.25-10.95,15.87-15.91s11.14-10.2,16.46-15.68a71.34,71.34,0,0,1,8.76-8.27c1.83-1.34,7.35-6.47,9.39-6.45a1.5,1.5,0,0,0,0-3Z" transform="translate(-464.37 -5.67)"/>
      <path d="M805,553.5c-5.93-.17-10.46,7.93-15.07,10.71-8.36,5-15,12.66-22.29,19.11-4,3.53-7.84,7.33-12,10.72-3.65,3-7.8,5.29-11.11,8.75a55.24,55.24,0,0,1-10.49,8.11c-4.12,2.61-7.62,6.38-12.16,8.25l1.46,2.51.68-.6c1.45-1.28-.68-3.4-2.12-2.12l-.68.6c-1.07,1,.06,3.08,1.46,2.51,3.55-1.47,6.27-3.77,9.28-6.1,3.32-2.57,7-4.74,10.45-7.13s6.16-5.94,9.67-8.48a125.67,125.67,0,0,0,10.47-8.53c7.54-6.8,14.91-13.88,22.53-20.57,3.18-2.8,7-4.41,10.1-7.22,2.34-2.12,6.38-7.62,9.78-7.52,1.93.06,1.93-2.94,0-3Z" transform="translate(-464.37 -5.67)"/>
      <path d="M795.55,610.6c-1,2.71-4.24,3.92-6.35,5.65-2.41,2-4.64,4.26-7,6.33-4.65,4.13-9.23,8.37-13.78,12.6-4.09,3.81-7.85,7.79-12.26,11.27a164.59,164.59,0,0,0-14.9,13.15,1.5,1.5,0,0,0,2.13,2.12l.65-.66a1.5,1.5,0,0,0-2.12-2.12l-.66.66,2.13,2.12a176.38,176.38,0,0,1,16.3-14.24c4.75-3.73,8.63-8.21,13-12.34,5-4.71,10.32-9.12,15.39-13.78,3.33-3.07,8.65-5.55,10.33-10,.68-1.81-2.21-2.59-2.9-.8Z" transform="translate(-464.37 -5.67)"/>
      <path d="M794.6,628.55c-2.39.91-3.8,2.75-5.37,4.69-2.42,3-5.46,5.15-8.29,7.7-3.16,2.85-6.63,5.29-9.92,8s-6.29,6.19-9.7,8.41l2.2,1.69-.12.43c1.9-.27,1.09-3.16-.8-2.9l-.74.11a1.49,1.49,0,0,0-1.05,1l-.18.52a1.52,1.52,0,0,0,2.2,1.7c2.89-1.88,5.14-4.71,7.84-6.87,2.9-2.32,5.83-4.58,8.77-6.86s5.46-4.67,8.19-7c2.48-2.1,4.71-6.6,7.77-7.76,1.78-.69,1-3.59-.8-2.9Z" transform="translate(-464.37 -5.67)"/>
      <path d="M789.24,645.7c-4.49,1.92-5.66,7.47-9.92,9.62l2.26,1.3,0-.31-.44,1.06-.16.13a1.5,1.5,0,0,0,0-3,2.13,2.13,0,0,0-2.42,2.12,1.51,1.51,0,0,0,2.26,1.29c4.29-2.17,5.54-7.75,9.92-9.61,1.77-.76.24-3.34-1.52-2.6Z" transform="translate(-464.37 -5.67)"/>
      <path d="M802.55,662.6c-.36,1.2-1.7,2.14-2.48,3.09a5.55,5.55,0,0,0-1.59,3.95,1.5,1.5,0,0,0,3,0l0-.64c.07-1.93-2.93-1.93-3,0l0,.64h3c-.11-1.25,1-2.21,1.8-3a8.47,8.47,0,0,0,2.17-3.19c.56-1.85-2.33-2.64-2.9-.8Z" transform="translate(-464.37 -5.67)"/>
    </g>
  </g>
</svg>
