<?xml version="1.0" encoding="utf-8"?>
<!-- Generator: Adobe Illustrator 22.0.1, SVG Export Plug-In . SVG Version: 6.00 Build 0)  -->
<svg version="1.1" id="Layer_1" xmlns="http://www.w3.org/2000/svg" xmlns:xlink="http://www.w3.org/1999/xlink" x="0px" y="0px"
	 viewBox="0 0 200 400" style="enable-background:new 0 0 200 400;" xml:space="preserve">
<style type="text/css">
	.st0{fill:#EDEDED;}
	.st1{fill:#AEEAF7;}
	.st2{fill:#00B8EA;}
	.st3{fill:none;stroke:#E10E49;stroke-width:0.3563;stroke-miterlimit:10;}
	.st4{fill:none;stroke:#E10E49;stroke-width:0.7127;stroke-miterlimit:10;}
	.st5{fill:none;stroke:#E10E49;stroke-width:0.5345;stroke-miterlimit:10;}
	.st6{fill:none;stroke:#E10E49;stroke-width:1.4254;stroke-miterlimit:10;}
	.st7{clip-path:url(#SVGID_2_);}
	.st8{clip-path:url(#SVGID_4_);fill:#FFFFFF;}
	.st9{clip-path:url(#SVGID_4_);fill:none;stroke:#CCCCCC;stroke-width:5.894658e-02;stroke-miterlimit:10;}
	.st10{clip-path:url(#SVGID_4_);fill:#022951;}
	.st11{clip-path:url(#SVGID_4_);fill:#F8E71C;}
	.st12{clip-path:url(#SVGID_4_);fill:#6E7A7F;}
	.st13{fill:none;stroke:#E10E49;stroke-width:0.7127;stroke-linecap:round;stroke-miterlimit:10;}
	.st14{fill:none;stroke:#E10E49;stroke-width:0.5345;stroke-linecap:round;stroke-miterlimit:10;}
	.st15{fill:#052951;}
</style>
<g id="regne_pris">
	<path class="st0" d="M106.3,158.3l-31.6,15.9c-1.9,1-4.3,0.2-5.3-1.7l0,0c-1-1.9-0.2-4.3,1.7-5.3l31.6-15.9c1.9-1,4.3-0.2,5.3,1.7
		l0,0C109,155,108.2,157.4,106.3,158.3z"/>
	<path class="st1" d="M95,163.9l-20.6,10.3c-1.8,0.9-4,0.2-4.9-1.6l-0.2-0.4c-0.9-1.8-0.2-4,1.6-4.9l20.5-10.3
		c1.9-0.9,4.2-0.2,5.2,1.7v0C97.6,160.6,96.9,163,95,163.9z"/>
	<circle class="st2" cx="94.9" cy="159.3" r="3.9"/>
	<path class="st0" d="M111.6,168.9L80,184.8c-1.9,1-4.3,0.2-5.3-1.7l0,0c-1-1.9-0.2-4.3,1.7-5.3l31.6-15.9c1.9-1,4.3-0.2,5.3,1.7v0
		C114.3,165.5,113.5,167.9,111.6,168.9z"/>
	<path class="st1" d="M88.2,180.6l-8.5,4.3c-1.8,0.9-4,0.2-4.9-1.6l-0.2-0.4c-0.9-1.8-0.2-4,1.6-4.9l8.4-4.2
		c1.9-0.9,4.2-0.2,5.2,1.7l0,0C90.8,177.3,90.1,179.6,88.2,180.6z"/>
	<circle class="st2" cx="87" cy="176.9" r="3.9"/>
</g>
<g id="cirkel_4_">
	<path class="st3" d="M118.4,180.7c-3,7.6-9.4,14-17,17c-5.4,2.1-11.7,2.4-17.4,1.5c-2.3-0.4-4.5-1.5-6.5-2.3
		c-7.4-2.7-12.5-8.6-15.8-16.4c-2.7-6.3-2.2-12.4-1-19.1c1.2-6.6,5-12.5,10.5-16.3c3.4-2.3,5.8-3.9,9.8-5.5c1.6-0.7,4.3-0.9,6.1-1.1
		c1.4-0.2,2.8-0.3,4.2-0.2c4.2,0.2,7.4,0.5,11.1,2.5c1.6,0.9,2.9,1.5,4.5,2.5c4.6,2.9,8.2,6.4,10.6,11.6c0.9,2,2.1,3.9,2.6,6
		c0.4,1.6,0.5,3.3,0.5,5C120.5,171.4,120.4,175.7,118.4,180.7z"/>
	<path class="st4" d="M85.2,197.9c-7.8-1.2-15.1-5.8-19.5-12.3c-3.1-4.6-4.8-10.5-5.1-16c-0.2-2.3,0.5-4.5,0.8-6.6
		c1-7.5,5.4-13.5,12-18.3c5.3-3.8,11.1-4.7,17.7-4.9c6.4-0.3,12.7,2,17.5,6.4c2.9,2.7,4.8,4.6,7.2,8c1,1.4,1.7,3.8,2.3,5.5
		c0.5,1.3,0.8,2.6,1.1,3.9c0.7,4,1.1,7,0,10.9c-0.5,1.7-0.8,3-1.4,4.7c-1.8,4.9-4.3,9-8.6,12.3c-1.7,1.3-3.2,2.8-5.1,3.7
		c-1.5,0.7-3,1.2-4.6,1.5C94.3,197.9,90.2,198.7,85.2,197.9z"/>
	<path class="st4" d="M119.3,181.2c-3.1,7.9-9.7,14.5-17.6,17.6c-5.6,2.1-12.1,2.5-18.1,1.6c-2.4-0.4-4.7-1.6-6.7-2.4
		c-7.6-2.8-13-8.9-16.4-17c-2.8-6.5-2.3-12.8-1-19.7c1.3-6.8,5.2-12.9,10.9-16.9c3.5-2.4,6-4,10.1-5.7c1.7-0.7,4.4-0.9,6.3-1.2
		c1.5-0.2,2.9-0.3,4.4-0.2c4.4,0.2,7.7,0.5,11.5,2.6c1.7,0.9,3,1.6,4.6,2.6c4.7,3,8.5,6.6,10.9,12c0.9,2.1,2.2,4,2.7,6.2
		c0.4,1.7,0.5,3.5,0.5,5.2C121.4,171.5,121.3,176,119.3,181.2z"/>
</g>
<g id="cirkel_3_">
	<path class="st3" d="M94.7,96.7c-4.1,3.7-9.9,5.6-15.4,5c-3.9-0.4-7.8-2.1-11-4.4c-1.3-0.9-2.2-2.3-3.2-3.3
		c-3.6-3.9-4.9-9-4.6-14.7c0.3-4.6,2.4-8.1,5.2-11.8c2.7-3.6,6.8-6,11.3-6.6c2.7-0.4,4.6-0.6,7.6-0.4c1.2,0.1,2.8,0.8,4,1.2
		c0.9,0.3,1.8,0.7,2.6,1.2c2.5,1.4,4.3,2.5,5.9,4.9c0.7,1,1.3,1.8,1.9,2.9c1.9,3.2,3,6.3,2.9,10.2c-0.1,1.5,0.1,3-0.2,4.4
		c-0.3,1.1-0.7,2.2-1.3,3.2C98.8,91.7,97.4,94.3,94.7,96.7z"/>
	<path class="st5" d="M69.5,97c-4.3-3.1-7.3-8.1-8-13.3c-0.5-3.7,0.3-7.7,1.8-11.2c0.6-1.4,1.7-2.6,2.4-3.7
		c2.8-4.2,7.3-6.5,12.8-7.4c4.4-0.7,8.1,0.6,12.1,2.4c4,1.8,7,5.1,8.6,9.1c0.9,2.5,1.5,4.2,1.9,7c0.2,1.1-0.1,2.8-0.3,4
		c-0.1,0.9-0.3,1.8-0.5,2.7c-0.8,2.6-1.5,4.6-3.3,6.5c-0.8,0.9-1.4,1.6-2.3,2.4c-2.6,2.4-5.3,4.2-8.9,4.8c-1.4,0.3-2.8,0.7-4.2,0.7
		c-1.1,0-2.2-0.2-3.2-0.5C75,99.7,72.3,99,69.5,97z"/>
	<path class="st4" d="M95.1,97.3c-4.2,3.8-10.3,5.8-15.9,5.2c-4-0.4-8.1-2.2-11.4-4.5c-1.3-1-2.3-2.4-3.3-3.5
		c-3.7-4-5.1-9.3-4.7-15.2c0.3-4.8,2.5-8.4,5.4-12.2c2.8-3.7,7-6.2,11.7-6.9c2.8-0.4,4.8-0.6,7.8-0.4c1.2,0.1,2.9,0.8,4.1,1.2
		c0.9,0.3,1.8,0.7,2.7,1.2c2.6,1.4,4.5,2.6,6.1,5c0.7,1.1,1.3,1.9,2,3c1.9,3.3,3.1,6.6,3,10.5c-0.1,1.5,0.1,3.1-0.2,4.6
		c-0.3,1.1-0.8,2.2-1.3,3.3C99.3,92.1,97.9,94.8,95.1,97.3z"/>
</g>
<g id="cirkel_2_">
	<path class="st3" d="M128.2,311.7c-8.3,7.4-20,11.3-31,10.2c-7.8-0.8-15.7-4.2-22.1-8.8c-2.6-1.9-4.5-4.6-6.5-6.7
		c-7.3-7.8-10-18.1-9.2-29.6c0.6-9.3,4.9-16.4,10.5-23.7c5.5-7.3,13.7-12.1,22.7-13.3c5.5-0.8,9.4-1.2,15.3-0.7
		c2.4,0.2,5.7,1.6,8.1,2.4c1.8,0.6,3.6,1.4,5.3,2.3c5,2.8,8.7,5.1,11.9,9.8c1.4,2.1,2.6,3.6,3.9,5.8c3.8,6.4,6.1,12.8,5.7,20.5
		c-0.1,3,0.2,6-0.5,8.9c-0.5,2.2-1.5,4.4-2.5,6.4C136.4,301.6,133.7,306.8,128.2,311.7z"/>
	<path class="st4" d="M77.3,312.3c-8.7-6.2-14.8-16.3-16.1-26.9c-0.9-7.5,0.6-15.6,3.6-22.6c1.2-2.8,3.4-5.2,4.9-7.5
		c5.7-8.5,14.8-13.2,25.7-14.9c8.8-1.4,16.4,1.1,24.5,4.8c8,3.6,14.2,10.2,17.3,18.4c1.9,5,3.1,8.5,3.9,14.1
		c0.3,2.3-0.3,5.7-0.5,8.1c-0.2,1.8-0.6,3.7-1.1,5.4c-1.6,5.3-3,9.2-6.7,13.2c-1.7,1.8-2.8,3.2-4.6,4.9c-5.2,4.9-10.7,8.4-18,9.7
		c-2.8,0.5-5.6,1.5-8.4,1.5c-2.2,0-4.4-0.5-6.5-1C88.4,317.8,83,316.3,77.3,312.3z"/>
	<path class="st6" d="M129,312.8c-8.6,7.7-20.7,11.7-32.1,10.5c-8.1-0.8-16.3-4.4-22.9-9.1c-2.7-1.9-4.7-4.8-6.7-7
		c-7.6-8.1-10.3-18.7-9.5-30.6c0.6-9.6,5.1-17,10.9-24.6c5.7-7.5,14.2-12.5,23.5-13.8c5.7-0.8,9.7-1.2,15.8-0.8
		c2.5,0.2,5.9,1.6,8.4,2.5c1.9,0.6,3.7,1.5,5.5,2.4c5.2,2.9,9,5.3,12.3,10.2c1.5,2.2,2.7,3.7,4,6c3.9,6.6,6.3,13.3,6,21.3
		c-0.1,3.1,0.2,6.2-0.5,9.2c-0.5,2.3-1.5,4.5-2.6,6.6C137.4,302.4,134.6,307.8,129,312.8z"/>
</g>
<g id="credit_1_">
	<g>
		<defs>
			<path id="SVGID_1_" d="M76.7,67.6l18.5,9.4c1.2,0.6,1.7,2.1,1.1,3.3l-6.1,12.1c-0.6,1.2-2.1,1.7-3.4,1.1l-18.5-9.4
				c-1.2-0.6-1.7-2.1-1.1-3.3l6.2-12.2C74,67.5,75.5,67,76.7,67.6z"/>
		</defs>
		<use xlink:href="#SVGID_1_"  style="overflow:visible;fill:#022951;"/>
		<clipPath id="SVGID_2_">
			<use xlink:href="#SVGID_1_"  style="overflow:visible;"/>
		</clipPath>
		<g class="st7">
			<defs>
				<path id="SVGID_3_" d="M76.9,67.8l18,9.2c1.3,0.7,1.9,2.3,1.2,3.7l-5.9,11.6c-0.7,1.3-2.3,1.9-3.7,1.2l-18-9.2
					c-1.3-0.7-1.9-2.3-1.2-3.7L73.3,69C73.9,67.6,75.6,67.1,76.9,67.8z"/>
			</defs>
			<clipPath id="SVGID_4_">
				<use xlink:href="#SVGID_3_"  style="overflow:visible;"/>
			</clipPath>
			<path class="st8" d="M86.6,93.4l-18.2-9.3c-1.3-0.6-1.8-2.2-1.1-3.5l6-11.8c0.6-1.3,2.2-1.8,3.5-1.1L95,77
				c1.3,0.6,1.8,2.2,1.1,3.5l-6,11.8C89.5,93.6,87.9,94.1,86.6,93.4"/>
			<path class="st9" d="M86.6,93.4l-18.2-9.3c-1.3-0.6-1.8-2.2-1.1-3.5l6-11.8c0.6-1.3,2.2-1.8,3.5-1.1L95,77
				c1.3,0.6,1.8,2.2,1.1,3.5l-6,11.8C89.5,93.6,87.9,94.1,86.6,93.4z"/>
			
				<rect x="80.9" y="64.8" transform="matrix(0.4535 -0.8913 0.8913 0.4535 -23.6338 116.5995)" class="st10" width="4.8" height="25.6"/>
			
				<rect x="75.1" y="74.2" transform="matrix(0.4535 -0.8913 0.8913 0.4535 -29.7782 111.2461)" class="st11" width="1.4" height="11.4"/>
			
				<rect x="84.5" y="81.2" transform="matrix(0.4535 -0.8913 0.8913 0.4535 -28.9649 122.2475)" class="st11" width="1.4" height="7"/>
			<rect x="91.8" y="82" class="st11" width="1.4" height="1.4"/>
			
				<rect x="73.1" y="77.2" transform="matrix(0.4535 -0.8913 0.8913 0.4535 -32.5137 109.8873)" class="st12" width="0.6" height="8.5"/>
			
				<rect x="72.4" y="78.5" transform="matrix(0.4535 -0.8913 0.8913 0.4535 -33.9881 110.0046)" class="st12" width="0.6" height="8.5"/>
		</g>
		<use xlink:href="#SVGID_1_"  style="overflow:visible;fill:none;stroke:#000000;stroke-width:0.1782;stroke-miterlimit:10;"/>
	</g>
</g>
<g id="streg_12_">
	<g>
		<path class="st6" d="M82.7,200.2c-3,3.5-1.4,9.6-3.8,13.8c-1.9,3.4-2.7,8.9-2.7,12.3c0,4.4,0.5,6.6,2.9,10.6
			c0.1,0.3,2.8,5,2.2,4.6"/>
	</g>
	<g>
		<path class="st5" d="M84.5,200.6c-2.1,2.9,0.1,4.4-3.6,14.3c-1.9,5.2-2.9,5.3-2.9,10.7c0,4.4,0.4,8,2.8,12
			c0.1,0.3,2.9,4.1,2.2,3.7"/>
	</g>
</g>
<g id="streg_11_">
	<path class="st13" d="M83.8,59.5c-2.3-4.7-2.2-7.8-5-13.5c-2.5-5.3-5-13.1-9.3-18.5c-3.7-4.7-5.4-14.6-10.7-18.5"/>
	<path class="st14" d="M81.6,59.5c0.3-4.2-3-10.4-6.8-18.1c-4.8-9.7-9.7-18.2-11-22.5c-1.4-5-5.5-9.4-5-10"/>
</g>
<path id="pil_1_" class="st13" d="M57.5,17.3C56,13.9,55,10.4,54.5,6.8c-0.1-0.5-0.1-0.9-0.2-1.4c3.7,0.3,5.1,0.6,6.3,1
	c1.7,0.5,4.3,1.8,4.7,2.8"/>
<g id="streg_9_">
	<path class="st4" d="M84.5,137.1c2.9-3.2,1.6-7.8,3.6-15.7c2.1-8.2,4.5-18.3,2.9-21.4"/>
	<path class="st4" d="M83.8,137.9c-0.5-1.8,0.6-9.7,3.6-18.5c2.4-7.1,3.2-14.4,2.9-18.5"/>
</g>
<g id="streg_10_">
	<path class="st6" d="M84.8,392.6c10.7-15,19.3-53.9,12.1-69.3"/>
	<path class="st5" d="M86.6,393c14.1-9.6,22-53.2,12.8-69.1"/>
</g>
<g id="Page-1_3_">
	<g id="Atoms_1_" transform="translate(-181.000000, -1713.000000)">
		<g id="Group-6-Copy_1_" transform="translate(181.000000, 1713.000000)">
			<g id="Group-5_1_">
				<path id="Combined-Shape_3_" class="st15" d="M124.8,283.5l6-2.1l0.4,1.2l0,0c0.8,2.4-0.4,5-2.8,5.8l-47.7,16.7l0,0
					c-2.4,0.8-5-0.4-5.8-2.8l-0.4-1.2l6-2.1l-9.6-27.5l0,0c-0.3-0.9,0.2-2,1.1-2.3l40.8-14.3c0.9-0.3,2,0.2,2.3,1.1L124.8,283.5z
					 M73.7,272.9l8.9,25.4l40.2-14l-8.9-25.4L73.7,272.9z"/>
			</g>
			<path id="Rectangle-6_1_" class="st15" d="M86.3,272.5L86.3,272.5c0.5,0.2,0.6,0.8,0.4,1.2l-4.7,9.8c-0.2,0.5-0.8,0.6-1.2,0.4
				l0,0c-0.5-0.2-0.6-0.8-0.4-1.2l4.7-9.8C85.3,272.4,85.8,272.3,86.3,272.5z"/>
			<path id="Rectangle-6-Copy_1_" class="st15" d="M81.3,273.2L81.3,273.2c0.5,0.2,0.6,0.8,0.4,1.2l-2,4.1c-0.2,0.5-0.8,0.6-1.2,0.4
				l0,0c-0.5-0.2-0.6-0.8-0.4-1.2l2-4.1C80.3,273.2,80.8,273,81.3,273.2z"/>
		</g>
	</g>
</g>
<g>
	<path d="M119,340.4h3.2v4.3c-0.5,0.2-1,0.3-1.5,0.4s-1,0.1-1.5,0.1c-1.3,0-2.3-0.4-3-1.2s-1.1-1.9-1.1-3.2c0-1.4,0.4-2.5,1.2-3.2
		s1.9-1.2,3.3-1.2c0.9,0,1.7,0.2,2.5,0.5l-0.5,1.2c-0.7-0.3-1.4-0.5-2.1-0.5c-0.9,0-1.6,0.3-2.2,0.9s-0.8,1.4-0.8,2.4
		c0,1,0.2,1.8,0.7,2.4s1.2,0.8,2.1,0.8c0.5,0,0.9-0.1,1.5-0.2v-2.2H119V340.4z"/>
	<path d="M129.6,345l-0.9-2.4h-3.3l-0.8,2.4h-1.5l3.2-8.6h1.5l3.2,8.6H129.6z M128.5,335.8c0,0.4-0.1,0.7-0.4,1s-0.6,0.4-1,0.4
		s-0.8-0.1-1-0.4s-0.4-0.6-0.4-1c0-0.4,0.1-0.7,0.4-1s0.6-0.4,1-0.4c0.4,0,0.7,0.1,1,0.4S128.5,335.4,128.5,335.8z M128.3,341.4
		l-0.8-2.3c-0.1-0.2-0.1-0.4-0.2-0.7s-0.2-0.6-0.2-0.7c-0.1,0.5-0.3,1-0.5,1.6l-0.8,2.2H128.3z M127.7,335.8c0-0.2-0.1-0.3-0.2-0.5
		s-0.3-0.2-0.4-0.2c-0.2,0-0.3,0.1-0.5,0.2s-0.2,0.3-0.2,0.5c0,0.4,0.2,0.6,0.6,0.6c0.2,0,0.3-0.1,0.4-0.2S127.7,336,127.7,335.8z"
		/>
	<path d="M135.3,345v-8.6h1.4v8.6H135.3z"/>
	<path d="M146.1,345h-1.7l-4.2-6.8h0l0,0.4c0.1,0.7,0.1,1.4,0.1,2v4.5H139v-8.6h1.7l4.2,6.8h0c0-0.1,0-0.4,0-1s0-1,0-1.3v-4.5h1.3
		V345z"/>
	<path d="M155.3,340.6c0,1.4-0.4,2.5-1.2,3.2s-1.9,1.1-3.4,1.1h-2.4v-8.6h2.6c1.4,0,2.4,0.4,3.2,1.1S155.3,339.3,155.3,340.6z
		 M153.9,340.7c0-2.1-1-3.1-2.9-3.1h-1.2v6.2h1C152.8,343.8,153.9,342.8,153.9,340.7z"/>
	<path d="M166,339c0,0.9-0.3,1.6-0.9,2.1s-1.4,0.7-2.5,0.7h-0.9v3.2h-1.4v-8.6h2.5c1.1,0,1.9,0.2,2.4,0.7S166,338.2,166,339z
		 M161.7,340.6h0.7c0.7,0,1.2-0.1,1.6-0.4s0.5-0.6,0.5-1.2c0-0.5-0.2-0.9-0.5-1.1s-0.8-0.4-1.4-0.4h-1V340.6z"/>
	<path d="M173,345l-0.9-2.4h-3.3L168,345h-1.5l3.2-8.6h1.5l3.2,8.6H173z M171.9,335.8c0,0.4-0.1,0.7-0.4,1s-0.6,0.4-1,0.4
		s-0.8-0.1-1-0.4s-0.4-0.6-0.4-1c0-0.4,0.1-0.7,0.4-1s0.6-0.4,1-0.4c0.4,0,0.7,0.1,1,0.4S171.9,335.4,171.9,335.8z M171.8,341.4
		l-0.8-2.3c-0.1-0.2-0.1-0.4-0.2-0.7s-0.2-0.6-0.2-0.7c-0.1,0.5-0.3,1-0.5,1.6l-0.8,2.2H171.8z M171.1,335.8c0-0.2-0.1-0.3-0.2-0.5
		s-0.3-0.2-0.4-0.2c-0.2,0-0.3,0.1-0.5,0.2s-0.2,0.3-0.2,0.5c0,0.4,0.2,0.6,0.6,0.6c0.2,0,0.3-0.1,0.4-0.2S171.1,336,171.1,335.8z"
		/>
	<path d="M109.9,354.7l2-3.9h1.5l-2.9,5.2v3.3h-1.4v-3.3l-2.8-5.3h1.5L109.9,354.7z"/>
	<path d="M121.8,359.4H120l-4.2-6.8h0l0,0.4c0.1,0.7,0.1,1.4,0.1,2v4.5h-1.3v-8.6h1.7l4.2,6.8h0c0-0.1,0-0.4,0-1s0-1,0-1.3v-4.5h1.3
		V359.4z"/>
	<path d="M131,355c0,1.4-0.4,2.5-1.2,3.2s-1.9,1.1-3.4,1.1H124v-8.6h2.6c1.4,0,2.4,0.4,3.2,1.1S131,353.7,131,355z M129.5,355.1
		c0-2.1-1-3.1-2.9-3.1h-1.2v6.2h1C128.5,358.2,129.5,357.2,129.5,355.1z"/>
	<path d="M132.8,359.4v-8.6h1.4v7.4h3.6v1.2H132.8z"/>
	<path d="M139.3,359.4v-8.6h1.4v8.6H139.3z"/>
	<path d="M150.1,359.4h-1.7l-4.2-6.8h0l0,0.4c0.1,0.7,0.1,1.4,0.1,2v4.5H143v-8.6h1.7l4.2,6.8h0c0-0.1,0-0.4,0-1s0-1,0-1.3v-4.5h1.3
		V359.4z"/>
	<path d="M155.9,354.8h3.2v4.3c-0.5,0.2-1,0.3-1.5,0.4s-1,0.1-1.5,0.1c-1.3,0-2.3-0.4-3-1.2s-1.1-1.9-1.1-3.2c0-1.4,0.4-2.5,1.2-3.2
		s1.9-1.2,3.3-1.2c0.9,0,1.7,0.2,2.5,0.5l-0.5,1.2c-0.7-0.3-1.4-0.5-2.1-0.5c-0.9,0-1.6,0.3-2.2,0.9s-0.8,1.4-0.8,2.4
		c0,1,0.2,1.8,0.7,2.4s1.2,0.8,2.1,0.8c0.5,0,0.9-0.1,1.5-0.2V356h-1.8V354.8z"/>
	<path d="M166,357.1c0,0.8-0.3,1.4-0.8,1.8s-1.3,0.7-2.3,0.7s-1.8-0.2-2.4-0.5v-1.3c0.4,0.2,0.8,0.3,1.2,0.4s0.8,0.2,1.2,0.2
		c0.6,0,1-0.1,1.2-0.3s0.4-0.5,0.4-0.8c0-0.3-0.1-0.6-0.4-0.8s-0.7-0.5-1.5-0.8c-0.8-0.3-1.3-0.7-1.7-1.1s-0.5-0.9-0.5-1.5
		c0-0.7,0.3-1.3,0.8-1.7s1.2-0.6,2-0.6c0.8,0,1.6,0.2,2.4,0.5l-0.4,1.1c-0.8-0.3-1.4-0.5-2-0.5c-0.5,0-0.8,0.1-1,0.3
		s-0.4,0.5-0.4,0.8c0,0.2,0,0.4,0.1,0.6s0.2,0.3,0.5,0.4s0.6,0.3,1.2,0.6c0.6,0.3,1.1,0.5,1.4,0.7s0.5,0.5,0.6,0.8
		S166,356.7,166,357.1z"/>
	<path d="M167.1,358.7c0-0.3,0.1-0.5,0.2-0.7s0.4-0.2,0.6-0.2c0.3,0,0.5,0.1,0.7,0.2s0.2,0.4,0.2,0.6c0,0.3-0.1,0.5-0.2,0.7
		s-0.4,0.2-0.6,0.2s-0.5-0.1-0.6-0.2S167.1,358.9,167.1,358.7z"/>
	<path d="M177.7,355c0,1.4-0.4,2.5-1.2,3.2s-1.9,1.1-3.4,1.1h-2.4v-8.6h2.6c1.4,0,2.4,0.4,3.2,1.1S177.7,353.7,177.7,355z
		 M176.2,355.1c0-2.1-1-3.1-2.9-3.1h-1.2v6.2h1C175.2,358.2,176.2,357.2,176.2,355.1z"/>
	<path d="M186.1,359.4h-1.6l-2.7-3.9l-0.8,0.7v3.2h-1.4v-8.6h1.4v4.1c0.4-0.5,0.8-0.9,1.1-1.4l2.3-2.7h1.6c-1.5,1.8-2.6,3-3.2,3.8
		L186.1,359.4z"/>
</g>
<g>
	<path d="M116,193.4h2.5c1.2,0,2,0.2,2.6,0.5s0.8,0.9,0.8,1.6c0,0.5-0.1,0.9-0.4,1.2s-0.6,0.5-1.1,0.6v0.1c0.6,0.1,1,0.3,1.3,0.7
		s0.4,0.8,0.4,1.4c0,0.8-0.3,1.4-0.8,1.8s-1.3,0.7-2.2,0.7H116V193.4z M117.4,197h1.3c0.6,0,1-0.1,1.3-0.3s0.4-0.5,0.4-0.9
		c0-0.4-0.1-0.7-0.4-0.9s-0.8-0.3-1.4-0.3h-1.2V197z M117.4,198.1v2.7h1.5c0.6,0,1-0.1,1.3-0.3s0.4-0.6,0.4-1.1c0-0.4-0.2-0.8-0.5-1
		s-0.8-0.3-1.4-0.3H117.4z"/>
	<path d="M128.8,202h-4.8v-8.6h4.8v1.2h-3.4v2.3h3.2v1.2h-3.2v2.7h3.4V202z"/>
	<path d="M132,198.6v3.4h-1.4v-8.6h2.4c1.1,0,1.9,0.2,2.5,0.6s0.8,1,0.8,1.9c0,1.1-0.6,1.8-1.7,2.3l2.4,3.8h-1.6l-2.1-3.4H132z
		 M132,197.4h1c0.7,0,1.1-0.1,1.4-0.4s0.4-0.6,0.4-1.1c0-0.5-0.2-0.8-0.5-1s-0.8-0.3-1.4-0.3H132V197.4z"/>
	<path d="M143.2,202h-4.8v-8.6h4.8v1.2h-3.4v2.3h3.2v1.2h-3.2v2.7h3.4V202z"/>
	<path d="M148.5,197.4h3.2v4.3c-0.5,0.2-1,0.3-1.5,0.4s-1,0.1-1.5,0.1c-1.3,0-2.3-0.4-3-1.2s-1.1-1.9-1.1-3.2c0-1.4,0.4-2.5,1.2-3.2
		s1.9-1.2,3.3-1.2c0.9,0,1.7,0.2,2.5,0.5l-0.5,1.2c-0.7-0.3-1.4-0.5-2.1-0.5c-0.9,0-1.6,0.3-2.2,0.9s-0.8,1.4-0.8,2.4
		c0,1,0.2,1.8,0.7,2.4s1.2,0.8,2.1,0.8c0.5,0,0.9-0.1,1.5-0.2v-2.2h-1.8V197.4z"/>
	<path d="M160.9,202h-1.7l-4.2-6.8h0l0,0.4c0.1,0.7,0.1,1.4,0.1,2v4.5h-1.3v-8.6h1.7l4.2,6.8h0c0-0.1,0-0.4,0-1s0-1,0-1.3v-4.5h1.3
		V202z"/>
	<path d="M122.9,212c0,1.4-0.4,2.5-1.2,3.2s-1.9,1.1-3.4,1.1H116v-8.6h2.6c1.4,0,2.4,0.4,3.2,1.1S122.9,210.7,122.9,212z
		 M121.5,212.1c0-2.1-1-3.1-2.9-3.1h-1.2v6.2h1C120.4,215.2,121.5,214.2,121.5,212.1z"/>
	<path d="M124.8,216.4v-8.6h1.4v8.6H124.8z"/>
	<path d="M135.6,216.4h-1.7l-4.2-6.8h0l0,0.4c0.1,0.7,0.1,1.4,0.1,2v4.5h-1.3v-8.6h1.7l4.2,6.8h0c0-0.1,0-0.4,0-1s0-1,0-1.3v-4.5
		h1.3V216.4z"/>
	<path d="M146.6,210.4c0,0.9-0.3,1.6-0.9,2.1s-1.4,0.7-2.5,0.7h-0.9v3.2H141v-8.6h2.5c1.1,0,1.9,0.2,2.4,0.7
		S146.6,209.6,146.6,210.4z M142.4,212h0.7c0.7,0,1.2-0.1,1.6-0.4s0.5-0.6,0.5-1.2c0-0.5-0.2-0.9-0.5-1.1s-0.8-0.4-1.4-0.4h-1V212z"
		/>
	<path d="M149.8,213v3.4h-1.4v-8.6h2.4c1.1,0,1.9,0.2,2.5,0.6s0.8,1,0.8,1.9c0,1.1-0.6,1.8-1.7,2.3l2.4,3.8h-1.6l-2.1-3.4H149.8z
		 M149.8,211.8h1c0.7,0,1.1-0.1,1.4-0.4s0.4-0.6,0.4-1.1c0-0.5-0.2-0.8-0.5-1s-0.8-0.3-1.4-0.3h-0.9V211.8z"/>
	<path d="M156,216.4v-8.6h1.4v8.6H156z"/>
	<path d="M164.6,214.1c0,0.8-0.3,1.4-0.8,1.8s-1.3,0.7-2.3,0.7s-1.8-0.2-2.4-0.5v-1.3c0.4,0.2,0.8,0.3,1.2,0.4s0.8,0.2,1.2,0.2
		c0.6,0,1-0.1,1.2-0.3s0.4-0.5,0.4-0.8c0-0.3-0.1-0.6-0.4-0.8s-0.7-0.5-1.5-0.8c-0.8-0.3-1.3-0.7-1.7-1.1s-0.5-0.9-0.5-1.5
		c0-0.7,0.3-1.3,0.8-1.7s1.2-0.6,2-0.6c0.8,0,1.6,0.2,2.4,0.5l-0.4,1.1c-0.8-0.3-1.4-0.5-2-0.5c-0.5,0-0.8,0.1-1,0.3
		s-0.4,0.5-0.4,0.8c0,0.2,0,0.4,0.1,0.6s0.2,0.3,0.5,0.4s0.6,0.3,1.2,0.6c0.6,0.3,1.1,0.5,1.4,0.7s0.5,0.5,0.6,0.8
		S164.6,213.7,164.6,214.1z"/>
</g>
<g>
	<path d="M129.2,69h-1.6l-2.7-3.9l-0.8,0.7V69h-1.4v-8.6h1.4v4.1c0.4-0.5,0.8-0.9,1.1-1.4l2.3-2.7h1.6c-1.5,1.8-2.6,3-3.2,3.8
		L129.2,69z"/>
	<path d="M137.9,64.7c0,1.4-0.3,2.5-1,3.3s-1.7,1.2-3,1.2c-0.8,0-1.5-0.2-2.1-0.5l-0.6,0.8l-0.8-0.6l0.6-0.8
		c-0.7-0.8-1.1-1.9-1.1-3.4c0-1.4,0.3-2.5,1-3.3s1.7-1.1,3-1.1c0.8,0,1.5,0.2,2.1,0.5l0.5-0.8l0.8,0.5l-0.6,0.8
		C137.5,62.2,137.9,63.3,137.9,64.7z M131.3,64.7c0,0.9,0.2,1.6,0.5,2.1l3.4-5c-0.4-0.2-0.8-0.3-1.4-0.3c-0.8,0-1.5,0.3-1.9,0.8
		S131.3,63.7,131.3,64.7z M136.4,64.7c0-0.9-0.2-1.6-0.5-2.1l-3.4,5c0.4,0.2,0.8,0.4,1.4,0.4c0.8,0,1.5-0.3,1.9-0.8
		S136.4,65.8,136.4,64.7z"/>
	<path d="M139.7,60.4h2.5c1.2,0,2,0.2,2.6,0.5s0.8,0.9,0.8,1.6c0,0.5-0.1,0.9-0.4,1.2s-0.6,0.5-1.1,0.6v0.1c0.6,0.1,1,0.3,1.3,0.7
		s0.4,0.8,0.4,1.4c0,0.8-0.3,1.4-0.8,1.8s-1.3,0.7-2.2,0.7h-3.1V60.4z M141.1,64h1.3c0.6,0,1-0.1,1.3-0.3s0.4-0.5,0.4-0.9
		c0-0.4-0.1-0.7-0.4-0.9s-0.8-0.3-1.4-0.3h-1.2V64z M141.1,65.1v2.7h1.5c0.6,0,1-0.1,1.3-0.3s0.4-0.6,0.4-1.1c0-0.4-0.2-0.8-0.5-1
		s-0.8-0.3-1.4-0.3H141.1z"/>
	<path d="M120.2,79.1c0,1.4-0.3,2.5-1,3.3s-1.7,1.2-3,1.2c-1.3,0-2.3-0.4-3-1.2s-1-1.9-1-3.3s0.3-2.5,1-3.3s1.7-1.1,3-1.1
		c1.3,0,2.3,0.4,3,1.2S120.2,77.7,120.2,79.1z M113.6,79.1c0,1.1,0.2,1.9,0.6,2.4s1.1,0.8,1.9,0.8c0.8,0,1.5-0.3,1.9-0.8
		s0.6-1.3,0.6-2.4c0-1.1-0.2-1.8-0.6-2.4s-1-0.8-1.9-0.8c-0.8,0-1.5,0.3-1.9,0.8S113.6,78.1,113.6,79.1z"/>
	<path d="M129.2,83.4h-1.7l-4.2-6.8h0l0,0.4c0.1,0.7,0.1,1.4,0.1,2v4.5H122v-8.6h1.7l4.2,6.8h0c0-0.1,0-0.4,0-1s0-1,0-1.3v-4.5h1.3
		V83.4z"/>
	<path d="M131.4,83.4v-8.6h1.4v7.4h3.6v1.2H131.4z"/>
	<path d="M137.9,83.4v-8.6h1.4v8.6H137.9z"/>
	<path d="M148.7,83.4H147l-4.2-6.8h0l0,0.4c0.1,0.7,0.1,1.4,0.1,2v4.5h-1.3v-8.6h1.7l4.2,6.8h0c0-0.1,0-0.4,0-1s0-1,0-1.3v-4.5h1.3
		V83.4z"/>
	<path d="M155.8,83.4H151v-8.6h4.8V76h-3.4v2.3h3.2v1.2h-3.2v2.7h3.4V83.4z"/>
</g>
</svg>
