<svg xmlns="http://www.w3.org/2000/svg" viewBox="0 0 794.3 579.58">
  <title>tablet_yellow</title>
  <g id="knapper">
    <g>
      <path d="M899.15,670.39c-1.13,0-2.25,0-3.38,0a27.56,27.56,0,0,0-3,.5c-2.35.29-4.73,0-7.1.33-8.39,1.13-43.94.58-47.24.58s-6.74,0-10.11,0c-1.47,0-26.19-.47-33-.47q-22.87,0-45.75,0c-2.39,0-31.78-.46-34.87-.46H669c-2,0-4.08-.14-6.08,0-1.82.11-3.43.5-5.28.49s-3.52,0-5.28,0-68.18-.29-71.19-.48c-3.47-.22-7,0-10.5,0H549.33c-4.84,0-9.6.46-14.46.46H490.53c-4.61,0-9.22,0-13.83,0-3.79,0-7.52-.46-11.33-.46H440.9c-1.82,0-3.49-.5-5.27-.47-3.9.05-15.46-.37-17.41-.45-1.08-.05-72.29,0-74.43,0a39.5,39.5,0,0,1-5.44,0c-.9-.11-1.65-.45-2.59-.49-.72,0-1.46.12-2.17,0-1-.11-2-.44-3-.59-1.29-.18-2.62-.2-3.9-.4a18.27,18.27,0,0,1-6.16-2.17,31,31,0,0,0-3.57-1.74,9.35,9.35,0,0,1-2.22-1.63c-1.53-1.22-3.34-2.19-4.78-3.47a38.71,38.71,0,0,1-5.36-5.27,44.08,44.08,0,0,1-3.73-6.61,18.82,18.82,0,0,1-2.31-8c0-1-.41-1.76-.48-2.76,0-.75,0-1.55,0-2.31,0-4.31-.41-25-.48-25.86-.1-1.21-.66-31.58-.47-33.33a26.63,26.63,0,0,0,.49-3.24c0-1.21,0-2.43,0-3.64v-27l.93,3.26v-18.5c0-1.73,0-3.47,0-5.2,0-1.89-.48-3.61-.46-5.51,0-3.51,0-7,0-10.54V487.11c0-1.06-.12-2.21,0-3.27.08-.8.26-5.64.53-7.25a56.21,56.21,0,0,0,.42-9.28c0-3.49-.93-32.21-.93-37.92V364.75l.38,4.43V321.91c0-4.89.91-36.2.91-46.37v-134c0-6.06-.69-11,3.2-16.07,1.86-2.42,2.89-5.13,5-7.31,1-1.07,2.08-2.16,3.16-3.19,1.46-1.39,2.92-1.73,4.62-2.7,2.74-1.56,4.82-3.61,7.94-4.36s6.59-1.93,9.81-2.56c2.81-.55,31.57-.86,37.5-.86H392.5l-3.42.1h14.37a34.16,34.16,0,0,1,5,.5,17.61,17.61,0,0,0,2.62,0h3.39c.74,0,1.47,0,2.21,0,1,0,1.93-.35,2.91-.37a12.9,12.9,0,0,1,2.71.14,8.11,8.11,0,0,0,1.21,0c.51,0,1,.19,1.46.19,1.63,0,3.26,0,4.88,0h2.31c.94,0,1.81.19,2.75.18h10.9c1.2,0,2.32.19,3.52.19,2,0,4,0,5.94,0h4.92c.43,0,.86,0,1.29,0s.9.17,1.36.19c.95,0,1.91,0,2.86,0a12.34,12.34,0,0,1,2.58,0,16.14,16.14,0,0,0,3.34.14,40.37,40.37,0,0,0,7.47-.4c2.23-.42,4.46.3,6.69,0a11.66,11.66,0,0,1,1.46-.2c.37,0,.74,0,1.11,0h9.2c1.14,0,2.28,0,3.42,0a3.78,3.78,0,0,1,.67,0,14.16,14.16,0,0,0,2,.14c1.24,0,2.48,0,3.72,0,.73,0,1.37.14,2.09.19,1.16.07,2.35,0,3.52,0l-3.39-.15c.56,0,19.59-.58,20.13-.58,1.2,0,4.67.07,5.25.17a8.34,8.34,0,0,0,1,0c.35,0,6.72.16,7,.19a10.26,10.26,0,0,0,1.24,0h19.29a10.45,10.45,0,0,1,2.5.14c.47.11,9.7,0,10.58,0s4.79-.1,5.14-.17a11.54,11.54,0,0,1,1.86,0h9.44a10.91,10.91,0,0,0,1.4,0h11.55c.29,0,1.55.15,1.89.2s1,0,1.53,0h12.54c1.11,0,2.22,0,3.33,0,.61,0,1.16-.19,1.77-.18h5.26a11.66,11.66,0,0,1,2,0,9,9,0,0,0,1.47.19c2.14,0,4.29,0,6.43,0h3.54c.71,0,1.44,0,2.15,0,.34,0,.63.16,1,.2s.65,0,1,0c1.36,0,8.5-.15,9.86-.15l-5-.28h4.44c.63,0,1.26,0,1.89,0,.38,0,.74-.09,1.12-.09H682c.39,0,.78.09,1.18.09a9.57,9.57,0,0,1,1.07,0c.18,0,2.44-.08,2.72-.08h1c.52,0,2.74-.15,3.34-.18.36,0,3.29-.09,4-.09.92,0,4.69.21,5.09.18l-.63.09c.57,0,3-.09,3.35-.09.6,0,1.17-.18,1.76-.18s1.18,0,1.77,0h1.74c.6,0,2.85-.09,3.35-.09.27,0,1.36-.09,1.65-.09.68,0,3.52.07,3.79.09,1.09.08,8.86.18,9.26.26a5.07,5.07,0,0,0,1,0h3c.2,0,4.18-.27,4.83-.27a4.39,4.39,0,0,0,1,0v0a2.89,2.89,0,0,1,.72,0,1.27,1.27,0,0,0,.44.07c.39,0,.74.16,1.11.18.79,0,1.6,0,2.39,0h16.72c.2,0,.39,0,.58,0s.52.09.81.09.47.09.71.1.37-.26.63-.28.36.1.62.25.37-.14.63-.07L760,105a16.08,16.08,0,0,0,3-.16,3.24,3.24,0,0,1,.62,0,2.28,2.28,0,0,0,.77-.14c.39-.1.81,0,1.2-.06a13.91,13.91,0,0,1,2.5-.07h1.1c.5,0,1,.09,1.47.09h4.48c.26,0,.47.08.72.09s.73.09,1.12.09h5.05a9.84,9.84,0,0,1,1.33,0c.17,0,.31.08.49.09H786c.38,0,.77,0,1.15,0s.46-.09.71-.09a2.56,2.56,0,0,0,.62-.07c.5-.1,1,.06,1.52,0a6.5,6.5,0,0,1,1.32-.07,7,7,0,0,1,1.37.07,11.53,11.53,0,0,0,1.44,0c.24,0,.46.09.7.09s.54,0,.8,0H797c.77,0,1.55,0,2.33,0,.25,0,.46.09.71.09h.63c.27,0,.49.08.75.09s.57,0,.85,0h9.68c.34,0,.65,0,1,.08s.73,0,1.11.08a7.6,7.6,0,0,0,1.35,0c.54,0,1.08,0,1.62,0a8.15,8.15,0,0,0,.86-.16,2.69,2.69,0,0,1,.73-.11l-1.2.37c.47.06.77-.17,1.21-.25a7.34,7.34,0,0,1,1,0c.85,0,1.57-.27,2.43-.27,1.41,0,2.81,0,4.21,0h3.55a10.12,10.12,0,0,1,1.57.29c.85.14,1.69-.09,2.54.12a9.36,9.36,0,0,0,2.43.14c3.29,0,6.47-.27,9.76-.27,1.8,0,3.63-.08,5.43,0,.78,0,1.48.26,2.27.27s1.77.28,2.72.28c3.18,0,6.24.27,9.42.27.73,0,1.47,0,2.2,0a4.74,4.74,0,0,0,1.24-.21c.49-.12,1,0,1.47-.08a7.13,7.13,0,0,1,1.17-.26c.36,0,.72,0,1.08,0h8c.81,0,1.68.08,2.49,0s1.74-.28,2.69-.28H891a26.48,26.48,0,0,0,3.45,0,12.43,12.43,0,0,1,1.62-.26h20.12a18.89,18.89,0,0,1,3.36.28c.8.13,7.12.54,7.92.44l.36-.19c.16-.19.72-.09.95-.09h4.39c.19,0,.35.09.53.1s.57,0,.84,0a10.06,10.06,0,0,1,1.12.19,17.46,17.46,0,0,0,2.17,0c.35,0,.72,0,1.07,0s.38-.09.58-.1a5.86,5.86,0,0,1,.59,0c.33,0,.62-.1,1-.09s.59-.1.9-.09c.57,0,1.14,0,1.71,0h3.12l-.26.1c28.47,1.68,57.47-1.32,85,0h5.69c1.48,0,3-.13,4.5,0,.74,0,1.36.28,2.12.28a11.76,11.76,0,0,1,2.14.06,13.07,13.07,0,0,0,2.43.21,11.72,11.72,0,0,1,2.37.06,18.15,18.15,0,0,0,3.84.21,14.38,14.38,0,0,1,3.7.47c.59.15,1.15.39,1.74.54a19.36,19.36,0,0,0,2.1.61l0,.12C1069,110,1074,115,1079,120c16.5,14.5,6,130,7,170,1,11,2,21,2.26,32.38v-1.23c0,1.85-.61,15.3-.61,18.41,0,2.77,0,5.54,0,8.31,0,3,0,44.55,0,46.21,0,1.33,0,2.66,0,4v23.19c0,2.73-.36,5.81.14,8.5.24,1.33.58,44.6.44,45.72-.33,2.72,0,5.71,0,8.47v16.11c0,2.41,0,4.81,0,7.21,0,1-.58,4.65-.63,5.68-.11,2.68-.59,5.16-.59,7.88v20.07c0,2.67,0,5.34,0,8,0,2.42.63,4.57.61,7,0,4.08,0,8.17,0,12.26,0,2.15-.37,8.4-.56,9.54a20.33,20.33,0,0,0,0,3.22c0,4.28.48,9-.48,13-.5,2.13-.14,4.71-.14,6.91v18.89a58.2,58.2,0,0,1-.61,11.37c-.83,4.21-1.38,8.46-1.87,12.76a6.67,6.67,0,0,1-.82,3.16,19.94,19.94,0,0,0-1.14,2.32,21.91,21.91,0,0,1-3.55,6c-1.65,1.93-3.23,3.84-5.06,5.65-1,1-1.77,2.38-2.92,3.14-.94.62-2,.93-2.92,1.62a29.31,29.31,0,0,1-11,5.47,113,113,0,0,1-11.24,1.86c-1.44.2-7.67.59-9.37.69-4.64.27-9.38,0-14,0H1010.4a22.19,22.19,0,0,1-5.29-.31c-2.29-.54-26.41-.92-30.36-.92H958.54c-2,0-22.25-1.23-25.37-1.23-1.54,0-33.7-1.22-40.26-1.22" transform="translate(-295.74 -95.77)" fill="#f9e464"/>
      <path d="M899.15,668.89c-6.42,0-12.83,1-19.25,1.24-5.63.24-11.27.27-16.9.29-9.88,0-19.76-.13-29.65-.14-28,0-56-.32-84-.46-44.6-.23-89.14,0-133.73-.19-61.39-.34-122.77.39-184.13-.78-15.87-.3-31.7-.44-47.58-.44-17.64,0-35.86,1.2-53.35-1-9-1.14-17.2-5.87-23.44-12.54-5.68-6.06-7.49-14.28-7.57-22.31q-.12-12.6-.52-25.18c-.55-18.22.07-36.28.07-54.47V541.53l-2.95.4.93,3.26a1.51,1.51,0,0,0,2.95-.4c0-18.58-.38-37.1-.47-55.69-.05-10.61,1-21.1.7-31.74-.6-21.56-.7-43.09-.7-64.67V364.75h-3l.38,4.43c.16,1.89,3,2,3,0,0-41.69.91-83.35.91-125V158.67q0-10.18,0-20.36c0-6.78,2.39-11.61,6.21-17.1,5.84-8.41,18-13.62,28-14.57,18.88-1.8,38.53-.68,57.46-.68v-3l-3.42.1a1.5,1.5,0,0,0,0,3c20.76,0,41.4.74,62.18.9,5.23.05,10.46,0,15.69.14,5.42.13,10.88-.34,16.27-.15,9.75.36,19.9.37,29.67.2a1.5,1.5,0,0,0,0-3L509.5,104v3c11.06-.06,22-.4,33.11-.22,17.31.28,34.6,0,51.91,0v-3H592.9v3c22.22-.14,44.39.36,66.6.21a1.5,1.5,0,0,0,0-3l-5-.28v3c15.3,0,30.6-.22,45.89-.18l-.4-3-.63.09c-1.69.24-1.26,3,.4,2.95,12.18-.24,24.34-.13,36.52-.38l-1.45-1.1v0a1.52,1.52,0,0,0,1.45,1.1q9.09.26,18.23.27c2.84,0,5.46.54,7.52,0,1.7-.41,1.25-2.85-.39-2.94l-1.61-.09v3c5.07,0,10.08-.54,15.17-.36,4.44.16,8.87.34,13.3.11,10.07-.51,20.52,1.56,30.5.11l-.8-2.9-1.2.37c-1.53.48-1.35,3.15.4,2.95a73.2,73.2,0,0,1,14.65-.24c6.88.58,13.79-.49,20.66.11,12,1,23.91-.14,36-.14,19.46,0,38.75.17,58.14.17l-.4-3-.26.1a1.51,1.51,0,0,0,.4,2.95c28.34,1.57,56.69-1.26,85,0v-3h-2a1.5,1.5,0,0,0,0,3c5.51,0,11,0,16.45.33,2,.11,4,.32,6.06.44,1.28.08,2.57,0,3.85.09a15.84,15.84,0,0,1,3.77.91c.88.65,1.24.55,1.08-.32.32.1,4.21,2.3,3.7,2.07a33.26,33.26,0,0,1,7.59,5.11c2.71,2.32,5.79,4.84,7.72,7.89,5.87,9.3,5.8,23.41,6.41,33.94,2,34.77-.26,69.72-1.34,104.48-.23,7.57-.44,15.15-.43,22.73,0,12.64,2,25.23,2.33,37.89a1.5,1.5,0,0,0,3,0v-1.23a1.5,1.5,0,0,0-3,0c-.63,53.68-1.32,107.45,0,161.11a305.35,305.35,0,0,1-.85,33.83c-1.21,13.8.12,27.73.26,41.51.1,10-.39,19.91-.48,29.86,0,2.77-.62,5.38-.83,8.12-.24,3,.09,6.16.09,9.19,0,6.86.3,13.8,0,20.66a106.83,106.83,0,0,1-1.46,10.69c-.49,3.31-.45,7-1.61,10.13-2.21,6-6.71,11.61-11.38,15.91-9,8.31-21.8,9.39-33.44,10.06-18.13,1-36.34-.78-54.48-1.08-8.74-.15-17.51.2-26.24-.18-7.58-.33-15.16-.91-22.75-1.14-13.54-.41-27.08-1.19-40.62-1.23a1.5,1.5,0,0,0,0,3c27.74.09,55.44,2.26,83.17,2.46,16.48.12,32.88,1,49.34,1.26,10.4.16,21.38,0,31.53-2.62,10.53-2.72,20.73-11.36,25.63-21,2.56-5.07,2.91-9.09,3.75-14.75a137.65,137.65,0,0,0,1.59-20.8c0-6.25-.23-12.54-.12-18.78,0-2.77.71-5.46.83-8.22.16-3.55-.26-7.12-.09-10.67,1.15-23.18-1.18-46.36,1.07-69.52,1.09-11.19-.29-22.65.14-33.88.2-5.24,0-10.53,0-15.78-.1-13.3-.61-26.62-.56-39.9.12-32.75.23-65.48.61-98.22h-3v1.23h3c-.31-11.52-2.13-23-2.3-34.49-.09-5.84,0-11.69.16-17.53.38-15.57,1.05-31.12,1.54-46.68.51-16.51.91-33,.64-49.55-.22-13-.6-26.34-3.08-39.18-.86-4.45-1.94-9.21-4.34-13.12-1.5-2.44-3.75-4.38-5.8-6.32a53.59,53.59,0,0,0-6.47-5.37c-.75-.51-6.65-3.48-6.47-2.79a1.49,1.49,0,0,0-1.05-1c-10.7-2.73-22-2.48-33-2.48v3h2a1.5,1.5,0,0,0,0-3c-28.35-1.26-56.7,1.57-85,0l.4,3,.26-.11c1.49-.58,1.4-2.94-.4-2.94-19.33,0-37.66-.07-57.35-.17-12.3-.06-24.46,1.2-36.75.14-6.66-.58-13.37.58-20-.1a71,71,0,0,0-15.29.23l.4,3,1.2-.37a1.51,1.51,0,0,0-.8-2.9c-5.45.8-11.67.18-17.17,0-4.38-.15-8.76-.34-13.15-.14-4.21.19-8.46-.06-12.68-.18-5.09-.14-10.11.34-15.17.36a1.5,1.5,0,0,0,0,3l1.61.09-.4-2.95c-1,.24-5.81-.14-7.57-.14-5.81,0-11.6-.11-17.39-.27l1.45,1.1v0a1.5,1.5,0,0,0-1.44-1.1c-12.18.25-24.34.14-36.52.38l.4,2.94.63-.08c1.7-.25,1.24-2.95-.4-2.95-15.29,0-30.59.18-45.89.18a1.5,1.5,0,0,0,0,3l5,.28v-3c-22.21.15-44.38-.35-66.6-.21a1.5,1.5,0,0,0,0,3h1.62a1.5,1.5,0,0,0,0-3c-17.31,0-34.6.3-51.91,0-11.07-.19-22,.16-33.11.22a1.5,1.5,0,0,0,0,3l3.39.15v-3c-9.58.17-19.25-.18-28.83-.13q-16.38.08-32.8-.06c-20.78-.16-41.41-.9-62.18-.9v3l3.42-.1a1.5,1.5,0,0,0,0-3c-18.49,0-37.06-.26-55.54.59a35.19,35.19,0,0,0-7.47,1.1,68,68,0,0,0-8,2.26c-2.88,1.14-5.33,3.2-8.05,4.67-8.06,4.37-15.08,14.44-15.53,23.7-.68,14.1,0,28.41,0,42.54v44.86c0,24.56.21,49.11-.35,73.66-.56,24.29-.56,48.55-.56,72.84h3l-.38-4.43c-.16-1.89-3-2-3,0v56.07c0,10.78.28,21.53.58,32.29.28,10.2-.14,20.08-.57,30.26-.85,20.43.46,41,.46,61.42l2.95-.4-.94-3.26a1.5,1.5,0,0,0-2.94.4c0,18-.63,35.85-.31,53.82.13,7.42.36,14.84.51,22.25.25,12.53-1.07,25.12,6.11,36.13,8.14,12.48,23.59,17.45,37.69,17.81,6.48.17,13-.12,19.52-.13,18.9,0,37.8-.13,56.7,0,9.62.07,19.23.93,28.82.93,21.44,0,42.84.46,64.28.46,28.65,0,57.26-.53,85.91-.32,46.77.35,93.47-.54,140.24.14,27.71.4,55.43,0,83.14.5,20.33.33,40.83.87,61.15,0,6.41-.28,12.85-1.28,19.25-1.24a1.5,1.5,0,0,0,0-3Z" transform="translate(-295.74 -95.77)"/>
    </g>
    <rect x="40.76" y="69.73" width="716" height="446" fill="#f2f2f2" stroke="#000" stroke-miterlimit="10" stroke-width="3"/>
    <g>
      <path d="M667.5,643.5c2-3,25.28-1.68,27.18-1.68h12.63a17.1,17.1,0,0,1,5.16.3,27.08,27.08,0,0,1,3.3,1.38c1.44.69,1.84,1.77,2.65,3,1.12,1.69,1.17,3.37,1.17,5.41,0,.91-1.44,4.36-2.45,5.17s-4.78,1.66-5.82,1.91a28.92,28.92,0,0,1-7,.63c-2.3,0-4.4.43-6.72.43H687.06c-1.39,0-8.59-.78-9.43-.83a31.13,31.13,0,0,1-6.35-1,14.13,14.13,0,0,1-3.85-2c-1.89-1.72-1.66-4.16-1.66-6.48,0-2.59.09-4.16,1.69-6.34" transform="translate(-295.74 -95.77)" fill="#f9e464"/>
      <path d="M668.56,644.56c1.62-1.81,6.75-1.37,8.93-1.45,3.85-.14,7.72-.08,11.57,0,2.48.07,5,.18,7.42.18,6.54,0,18.82-2.46,21.12,5.53s-6.58,9.08-12.36,9.27c-6.23.2-12.44.66-18.69.41-3.16-.12-6.33-.53-9.48-.84-2.52-.26-5.59-.34-7.72-1.94-3.26-2.43-2.5-8.56-.59-11.57,1-1.63-1.56-3.14-2.59-1.51-2.19,3.44-3.1,9.52-.93,13.22s7.53,4.39,11.41,4.76c10.89,1,22.28,1.76,33.14.15,3.91-.59,8.05-1.26,10-5a10.57,10.57,0,0,0-1.57-12.26c-4.1-4.28-11-3.23-16.31-3.23-4,0-8,0-12-.16-4.95-.15-9.94-.26-14.9.07-2.56.18-6.69.11-8.57,2.21-1.29,1.43.83,3.56,2.12,2.12Z" transform="translate(-295.74 -95.77)"/>
    </g>
    <g>
      <path d="M392.8,102.46a11.16,11.16,0,0,0,0-2.58c-.25-.92-1.19-.45-2-.66a19.2,19.2,0,0,0-4.81-.3c-3.57,0-17.28,0-18.24,0h-2.92c-1.88,0-3.62-.39-5.48-.4-1,0-1.6-.23-1.91.86a12.17,12.17,0,0,0-.08,3.08" transform="translate(-295.74 -95.77)" fill="#f9e464"/>
      <path d="M394.3,102.46c.34-4.94-2.21-4.93-6.64-5-4.27-.12-8.58,0-12.85,0-3.92,0-7.88.15-11.78-.09-5.09-.32-7.35-.76-7.13,5.14.08,1.92,3.08,1.93,3,0-.12-3.16,1.55-2.3,4.13-2.14,1.72.1,3.45.1,5.17.09h15.74c1.71,0,3.41,0,5.11.12,2.37.18,2.4-.29,2.25,1.92-.13,1.92,2.87,1.91,3,0Z" transform="translate(-295.74 -95.77)"/>
    </g>
    <g>
      <path d="M425.45,103.82a7.71,7.71,0,0,0,0-1.27,4.19,4.19,0,0,1-.16-.72c0-.21,0-.43,0-.64a2.78,2.78,0,0,1,.13-1.38,2.75,2.75,0,0,1,1.3-1c.39-.12,5-.47,5.56-.46s.91,0,1.37,0,9.43.3,9.95.3l.62-.13a16.12,16.12,0,0,0,2-.07,23.29,23.29,0,0,1,3.55-.29c1.1-.07,2.07-.41,3.21-.4,5.39,0,10.78,0,16.17,0h14.35c2.67,0,5.39-.14,8.06,0a2.43,2.43,0,0,1,2.66,2.07,20,20,0,0,1,.47,4.23" transform="translate(-295.74 -95.77)" fill="#f9e464"/>
      <path d="M427,103.82c0-3,.28-3.67,3.47-3.87,1.52-.09,3-.11,4.55-.07a93.88,93.88,0,0,0,10.74.09c8.11-.76,16.16-.73,24.31-.73,4.19,0,8.38,0,12.57,0,1.88,0,3.85-.21,5.73-.07,4,.32,4.68.9,4.85,4.86.09,1.92,3.09,1.93,3,0-.11-2.7-.06-6.18-2.89-7.45-3.54-1.59-9.6-.34-13.39-.34-11.42,0-22.81-.23-34.18.73-4.58.38-9.19-.27-13.78-.12-2,.07-5-.16-6.67,1.06-2.07,1.48-1.3,3.72-1.31,5.91a1.5,1.5,0,0,0,3,0Z" transform="translate(-295.74 -95.77)"/>
    </g>
    <path d="M1032.21,129.05c-1.92,0-3.94.42-4.83,2.34a7.88,7.88,0,0,0,0,6.05c1.25,2.2,4.35,2.37,6.57,2.4,3,0,3.81-2.13,4.1-4.73.52-4.68-6.57-7.68-8.8-3.07-2,4.24,4.9,7.08,6.42,3.07,1.42-3.74-5.76-5.69-5.34-.86.16,1.91,3.16,1.93,3,0-.08-.94-1.07,0-.5.13.15,0,.15-.41.1-.45s-.78.24-1-.12c-.65-1,1.36-1.12,1.92-.87a1.8,1.8,0,0,1,1.17,2.21c-.08.55-.09,1.17-.54,1.5s-1.23.19-1.79.15c-1-.06-2.48-.16-2.8-1.27a5.73,5.73,0,0,1,.12-2.6c.33-1,1.33-.86,2.2-.88,1.92-.05,1.93-3.05,0-3Z" transform="translate(-295.74 -95.77)"/>
    <path d="M535.27,506.36l-.4.72c-.81.86-.31,2.69,1.06,2.56,2.9-.28,5.12-1.57,7.74-2.74,4.35-1.95,9.17-2.81,13.6-4.63,3.56-1.46,6.61-3.68,10-5.47,3.77-2,7.77-3.39,11.49-5.52,7.52-4.29,15.1-8.49,22.46-13,7.2-4.46,13.9-10.75,21.76-13.94,7.07-2.87,12.52-7.37,19-11.23,7.88-4.68,15.32-10,23-14.94,7-4.51,14.56-8,21.46-12.72s14.86-7.91,22.07-12.28c15.22-9.23,29.71-19.65,45.15-28.56,15.93-9.19,32.26-17.56,47.83-27.38,15.8-9.95,31.1-20.58,47.57-29.44,15.56-8.37,31.26-17,47.25-24.5,9-4.22,17.68-9.05,26.47-13.68a318.5,318.5,0,0,1,29.24-13.07c9.17-3.7,18.3-7.5,27.34-11.5,4.6-2,9.15-4.18,13.75-6.2,2.85-1.25,5.75-2.3,7.85-4.7a1.52,1.52,0,0,0-.66-2.51c-2.21-.58-3.25.08-4.06,2.15-.7,1.8,2.2,2.57,2.89.79l.37-.05-.66-2.5c-2.11,2.42-5.3,3.34-8.14,4.62-4,1.8-8,3.66-12,5.45-9.07,4-18.22,7.84-27.42,11.56-15.88,6.41-30.73,14-45.91,21.88-15.36,8-30.79,16-46.28,23.73-16,8-31,17.18-45.93,26.92-30.1,19.65-62.08,36-92.42,55.29-7.42,4.71-14.42,9.75-22.26,13.78-7.11,3.65-13.44,8.14-20.31,12.12-7.52,4.34-15,8.35-22.24,13.23s-15,8.92-21.93,14.09-14.84,7.41-21.68,12.53a225,225,0,0,1-24.48,15.44c-4,2.28-8,4.66-12.06,6.89s-8.31,3.62-12.22,6a62.17,62.17,0,0,1-14,6.31c-2,.61-4,1.05-5.88,1.8-2.61,1-4.9,2.76-7.78,3L537,509.2a4.07,4.07,0,0,0,1.17-2.05c.55-1.85-2.35-2.64-2.89-.79Z" transform="translate(-295.74 -95.77)"/>
    <path d="M591.23,532.22a10.65,10.65,0,0,0-2.31,2.7c-.84,1.21.83,2.91,2.05,2.05a62.28,62.28,0,0,0,6.83-6.06c3.05-2.9,6.63-5,10-7.47C613.88,519,620,514.6,626,510.05c5.81-4.43,11-9.6,16.43-14.45,5.82-5.19,11.88-10,17.64-15.27,12-11.05,26.11-20.32,39.52-29.61s26.41-17.88,40.76-25.43c30.79-16.2,62.12-31.41,93-47.33,14.74-7.58,29.08-15.46,43.28-24,7-4.22,14.53-7.3,21.59-11.37s13.56-8.2,20.72-11.86c16.79-8.59,33.49-17.17,50.52-25.28,8.22-3.92,15.89-8.8,24-12.8,7.77-3.83,16-7.08,23.92-10.69,1.75-.8.23-3.38-1.51-2.59-7,3.18-13.9,6.29-20.94,9.32-7.34,3.16-14,7.77-21.2,11.34C959,307.38,944.13,314.34,929.48,322c-7.53,3.91-15.25,7.53-22.63,11.71-6.91,3.92-13.41,8-20.58,11.49-14.6,7.1-28,16.63-42.45,24.09-30.92,16-62,31.48-93,47.26-14.33,7.3-28.94,14.56-42,24-12.91,9.34-26,18.3-38.6,28C656.56,479,643.8,490.55,631,502c-6.56,5.86-14,10.51-20.89,15.91-3.6,2.8-7.45,5.23-11.06,8-3.4,2.61-6.07,6-9.57,8.46l2.06,2,1.84-2.09c1.42-1.31-.7-3.43-2.12-2.12Z" transform="translate(-295.74 -95.77)"/>
    <path d="M618.61,596.23c5.84-6.3,14.75-10.44,22.34-14.27a238.68,238.68,0,0,0,24.66-14.46c7.52-5,13.89-11.37,20.71-17.27q11.48-9.9,23-19.73c14.66-12.43,28.15-26.32,44.12-37.08,8.28-5.59,16.77-10.86,25.06-16.42,7.92-5.3,15.33-11.34,23.3-16.56,9.23-6.05,19.73-9.75,29-15.79,4.14-2.7,8.13-5.62,12.35-8.2s8-5.92,12.2-8.13L853.51,426l-1.42,1c-1.76.72-1,3.62.8,2.89a5.66,5.66,0,0,0,2.74-1.81,1.51,1.51,0,0,0-1.82-2.35c-3.56,1.87-6.45,4.75-9.94,6.79-4,2.34-7.84,5-11.68,7.57-8.18,5.55-17.05,9.36-25.71,14s-16.08,11-24.07,16.6c-8.19,5.71-16.66,11-25,16.48-3.92,2.57-7.81,5.17-11.63,7.88-3.39,2.39-6.09,5.33-9.26,8-3.52,2.93-7.23,5.29-10.59,8.45-3.76,3.55-7.41,7.23-11.32,10.63-7.83,6.83-15.86,13.46-23.74,20.25C683.25,548.94,676,556.2,668,562.2A188.56,188.56,0,0,1,640.24,579a136.41,136.41,0,0,0-14.08,7.84c-1.9,1.25-3.81,2.31-5.75,3.48s-2.38,2.17-3.92,3.83c-1.31,1.42.81,3.54,2.12,2.12Z" transform="translate(-295.74 -95.77)"/>
    <path d="M552.93,601.29a83.57,83.57,0,0,1,20.23-18.48c7.36-4.67,13-11.2,20.23-16.22,7.9-5.48,16.13-10.66,23.82-16.43,7.4-5.55,14.28-11.87,21.6-17.56,15.65-12.17,30.38-25.44,46.68-36.79,8.27-5.76,17.28-10.55,25.75-16q13-8.38,25.65-17.38c9.18-6.59,17.69-14.24,27-20.62,4.54-3.11,9.52-5.45,13.93-8.76,3.45-2.58,7.15-6.66,11-8.36,1.76-.78.24-3.37-1.52-2.59-3.44,1.51-6.2,4.68-9.17,6.94a142.09,142.09,0,0,1-12.84,8.31c-8.45,5.14-15.84,12.13-23.79,18-16.52,12.24-33.77,23.47-51.42,34-16.71,10-31.33,23.32-46.36,35.55-7.67,6.24-15.67,12-23.12,18.53-7.68,6.7-16.51,11.95-24.82,17.82-4.34,3.07-8.69,6-12.74,9.47-3.72,3.16-6.55,6.55-10.77,9.11a83,83,0,0,0-21.47,19.32c-1.19,1.5.92,3.64,2.12,2.13Z" transform="translate(-295.74 -95.77)"/>
    <path d="M1032.72,439.63c-3.21.57-6.11,4.27-8.31,6.42-5.38,5.26-10.46,10.64-15.62,16.1s-11.46,10.17-16.94,15.47q-8.48,8.2-17.53,15.79c-6.16,5.14-12.54,10-19.13,14.61-5.56,3.87-11.06,7-15.89,11.8-5.49,5.43-12.34,9.37-18.68,13.7s-13,8.53-19.2,13.24c-6.66,5.1-12.43,11.31-19.48,15.91-3.55,2.31-7.21,4.5-10.81,6.73-3.39,2.1-6.48,4.65-10.12,6.29l1.81,2.36.84-.76c1.42-1.31-.7-3.43-2.13-2.12l-.83.76c-1.34,1.23.37,3,1.82,2.35,6.08-2.73,11.64-7.28,17.32-10.8a117.67,117.67,0,0,0,15.86-12c12-10.56,25.95-18.48,38.89-27.81,5.33-3.84,9.45-8.93,15-12.4a214.32,214.32,0,0,0,18.17-12.79c11.89-9.19,22.17-19.92,33.5-29.7a124.57,124.57,0,0,0,9.6-8.48c2.86-3,5.44-6.3,8.41-9.23,2.58-2.55,5.27-5,7.87-7.53,1.66-1.62,4-4.58,6.32-5,1.9-.34,1.1-3.23-.79-2.89Z" transform="translate(-295.74 -95.77)"/>
    <path d="M1030.4,463.41c-.93,2.23-4.5,3.46-6.27,4.92-2.41,2-4.5,4.28-7,6.22-4.83,3.82-10.1,7-14.95,10.81-5.88,4.59-11.63,9.36-17.49,14-4.43,3.5-8.2,8-12.29,11.9-4.85,4.63-9.45,9.54-14.49,14s-10.58,8.18-15.66,12.52c-4.73,4-9.31,8-14.25,11.75-2.86,2.19-5.7,4.47-8.41,6.84-2.31,2-4.19,4.59-6.9,6.11-1.58.88-.43,3,1.16,2.74a48,48,0,0,0,4.67-1.38,1.5,1.5,0,0,0-.8-2.89c-1.6.41-3,1.11-4.67,1.38l1.16,2.74c4.84-2.71,8.85-7.77,13.2-11.25,5.34-4.27,10.62-8.2,15.69-12.79s11-8.49,16.25-13.05c5.53-4.8,10.53-10.16,15.84-15.2,5.08-4.83,9.68-9.83,15.36-14,5.91-4.35,11.2-9.47,17.15-13.8,5.11-3.71,10.51-7,15.16-11.32A51.39,51.39,0,0,1,1030,468a7.3,7.3,0,0,0,3.3-3.74c.74-1.78-2.16-2.56-2.9-.8Z" transform="translate(-295.74 -95.77)"/>
    <path d="M1039,488.89c-3,.65-5.53,2.89-8.31,4.15a32.29,32.29,0,0,0-7,4.45c-6.7,5.27-14,9.82-20.67,15.09-7,5.47-13.39,11.86-20.78,16.76a181,181,0,0,0-20.84,15.5c-3.49,3.09-7.31,5.43-11,8.2-3.92,2.93-7.35,6.46-11.32,9.31-3.12,2.24-6.66,3.77-9.7,6.11s-5.59,4.7-8.75,6.71c-6.82,4.33-14,8.78-20.28,13.86-3.15,2.54-5.64,5.75-8.94,8.13-2.43,1.76-4.77,3.09-6.35,5.72l2.59,1.51a8.6,8.6,0,0,1,2.5-3.1c1.42-1.32-.7-3.43-2.12-2.13a15.64,15.64,0,0,0-3,3.72,1.5,1.5,0,0,0,2.59,1.51c1.81-3,5.29-4.4,7.87-6.64,3.24-2.82,6-5.93,9.49-8.46,6.48-4.67,13.37-8.74,19.9-13.33,3-2.08,5.46-4.73,8.51-6.7s6.12-3.46,8.95-5.68c3.71-2.92,7.11-6.25,11-9a106.36,106.36,0,0,0,8.82-6.39,208.61,208.61,0,0,1,21.61-16.3c6.65-4.41,12.34-10.08,18.59-15,6.72-5.3,13.74-10,20.63-15.08,2.47-1.81,4.68-4,7.42-5.37s6.47-4,9.39-4.67c1.88-.41,1.09-3.3-.8-2.89Z" transform="translate(-295.74 -95.77)"/>
    <path d="M1023.87,519.2c-3.82,1.22-6.33,4.89-9.46,7.25a152.09,152.09,0,0,1-13.82,9.54c-10.51,6.31-20.06,14-30.1,21-4.76,3.32-10,5.94-14.72,9.29-4.58,3.23-8.76,6.94-13.44,10-4.45,3-8.28,6.8-12.83,9.6a67.07,67.07,0,0,0-13.3,10.36,1.5,1.5,0,0,0,2.12,2.12c.75-.69,1.47-1.4,2.18-2.14a1.5,1.5,0,0,0-2.13-2.12c-.7.74-1.42,1.45-2.17,2.14l2.12,2.12c4.25-4.38,9-7.39,14-10.74,4.25-2.84,8-6.37,12.23-9.23,4.65-3.13,8.8-6.88,13.4-10.06s9.48-5.64,14-8.8c9.27-6.48,18.09-13.61,27.74-19.53a138.34,138.34,0,0,0,12.81-8.33c2-1.54,4.07-3,6-4.56s3.48-4.18,6.12-5c1.83-.59,1-3.48-.8-2.9Z" transform="translate(-295.74 -95.77)"/>
    <path d="M997.56,559.41c-.42,2.75-4.06,4.55-5.93,6.27-3.34,3.08-6.25,6.67-9.36,10a114.26,114.26,0,0,1-8.61,8.3c-3.11,2.64-6.06,5.9-9.38,8.23l2.05,2.05c.39-.68.77-1.38,1.13-2.08.91-1.7-1.68-3.22-2.59-1.51-.36.7-.74,1.39-1.13,2.08-.69,1.22.76,2.95,2,2,3.15-2.21,5.72-5.18,8.7-7.63a112.58,112.58,0,0,0,11.14-10.7,125.62,125.62,0,0,1,9.57-9.87c2.06-1.77,4.81-3.47,5.26-6.36.29-1.88-2.6-2.7-2.9-.79Z" transform="translate(-295.74 -95.77)"/>
    <path d="M1005.53,573.9c-3.41,3.27-7.18,6.13-10.61,9.37-3,2.85-5.25,6.46-8.49,9.07l2.12,2.12c2-1.6,4.59-1.46,6.47-3.28,1.39-1.35-.74-3.47-2.12-2.12-1.73,1.68-4.55,1.72-6.47,3.28-1.5,1.22.63,3.32,2.12,2.12,3.24-2.61,5.47-6.22,8.49-9.07,3.44-3.24,7.2-6.1,10.61-9.37,1.4-1.33-.73-3.45-2.12-2.12Z" transform="translate(-295.74 -95.77)"/>
    <path d="M1016.51,582.14c-.45,2-5.31,2.88-6.92,4.13-2.21,1.72-4.94,4.2-5.49,7.08a1.54,1.54,0,0,0,1.45,1.9c1.73.22,2.51-1,2.54-2.6,0-1.93-3-1.93-3,0l.46-.4,1.45,1.9c.54-2.87,4-5.59,6.54-6.7,2.21-1,5.27-1.84,5.86-4.51.42-1.88-2.47-2.68-2.89-.8Z" transform="translate(-295.74 -95.77)"/>
    <path d="M1032.93,588.46c-.3,1.29-1.58,2-2.59,2.75a10.33,10.33,0,0,0-3.13,3.08c-.7,1.25.76,2.92,2.06,2.06.66-.44,1.4-.73,2.07-1.15a1.5,1.5,0,0,0-1.51-2.59c-.68.42-1.42.71-2.08,1.15l2,2c.74-1.3,2.17-2,3.33-2.93a6.55,6.55,0,0,0,2.69-3.62c.44-1.88-2.45-2.68-2.89-.8Z" transform="translate(-295.74 -95.77)"/>
    <path d="M713.15,500.26a32.09,32.09,0,0,0-7.49,4.56,38.78,38.78,0,0,1-5,3.68c-1.56.84-3.08,1.06-4.53,2.06-2.76,1.94-5,5.1-7.62,7.33a99.49,99.49,0,0,1-11.08,7.85c-3.2,2.07-6,4.4-9.49,6a53,53,0,0,0-9.8,5.94,155.65,155.65,0,0,1-19.84,13.34c-3.62,2-6.79,4.73-10.13,7.17a103.78,103.78,0,0,1-10,6.4c-2.66,1.52-4.35,3.86-6.58,5.9a83,83,0,0,1-10.38,7.9c-6.74,4.48-14.26,7.73-20.8,12.52-6.13,4.5-10.83,10.62-17.53,14.38-1.21.69-.77,3,.76,2.8l.83-.1c1.9-.22,1.92-3.23,0-3l-.83.1.76,2.79c5.94-3.33,10.31-8.38,15.47-12.73,6.42-5.42,14.34-8.74,21.39-13.22,6.11-3.89,10.9-8.65,16.29-13.32,3-2.61,7.34-4.27,10.6-6.72s6.73-5.34,10.25-7.49c6.47-4,12.87-7.32,18.79-12.13,6.32-5.15,13.54-8.46,20.24-13,6.27-4.26,12.64-8,17.93-13.6,2.53-2.66,5.63-3.71,8.56-5.81,3.28-2.36,6.2-5.2,10-6.75,1.76-.72,1-3.62-.8-2.89Z" transform="translate(-295.74 -95.77)"/>
    <path d="M837.73,504.41c2.45-.9,4-2.77,6-4.32,3.44-2.63,7.59-4.35,11.2-6.76s6.62-5.11,10.18-7.3,7.35-3.68,10.65-6.22c7-5.35,14-10.81,20.71-16.46A126,126,0,0,1,908,454.2c3.62-2.38,7.52-4.41,11-7,3.16-2.39,5.64-5.42,8.88-7.76,3.6-2.6,7.06-5.46,10.76-7.92,7.27-4.83,14-10.44,21.67-14.56,7.41-4,13.63-9.29,20.59-13.93,3.09-2.06,6.54-3.49,9.58-5.6a107.1,107.1,0,0,1,10.7-7.15,139.57,139.57,0,0,0,23.29-15.85c3.6-3,7.54-5.2,11-8.34,2.76-2.51,6.51-4.27,8.62-7.39a1.51,1.51,0,0,0-.89-2.2l-.87-.22c-1.87-.47-2.67,2.43-.79,2.9l.86.21-.9-2.2c-1.76,2.6-5.78,4.57-8.15,6.78-3,2.81-6.55,4.79-9.77,7.34-7,5.53-13.59,10.7-21.44,15-7.14,3.95-13.78,8.55-20.74,12.79-6.59,4-12.23,9.44-18.94,13.28-3.59,2.05-7.28,3.85-10.75,6.13-3.65,2.4-6.91,5.28-10.51,7.74-6.21,4.25-12.77,8.35-18.44,13.31-3.13,2.73-5.8,5.48-9.36,7.73-3.83,2.41-7.73,4.68-11.33,7.43-6.74,5.16-13.22,10.71-19.9,16-3.89,3.06-7.56,6.64-11.86,9.13-4,2.29-7.83,4.2-11.52,6.95a120.77,120.77,0,0,1-12.13,8,44.23,44.23,0,0,0-4.75,2.89c-1.66,1.25-3,3.12-5,3.87-1.79.66-1,3.56.8,2.89Z" transform="translate(-295.74 -95.77)"/>
  </g>
</svg>
