<svg xmlns="http://www.w3.org/2000/svg" xmlns:xlink="http://www.w3.org/1999/xlink" viewBox="0 0 74.07 52.17"><defs><clipPath id="clip-path" transform="translate(5 5)"><rect width="64.07" height="42.17" fill="none"/></clipPath><clipPath id="clip-path-2" transform="translate(5 5)"><path d="M18,22.62a8.69,8.69,0,0,1,3.54,6.68H14.65ZM4.19,29.46a8.67,8.67,0,0,1,8.69-8.63,9.18,9.18,0,0,1,3.06.49l-4.35,8.47a1.41,1.41,0,0,0,0,1.14,1.3,1.3,0,0,0,1,.65h8.69a8.5,8.5,0,0,1-8.37,6.52,8.67,8.67,0,0,1-8.69-8.64m48,2a1.29,1.29,0,0,0,0-1.79,18.64,18.64,0,0,1-4.83-7.83,8.36,8.36,0,1,1-2.1,1.47,19.3,19.3,0,0,0,5.32,8.15,1.22,1.22,0,0,0,.8.32,1.27,1.27,0,0,0,.81-.32M20,19,22.54,14l7.08,14.51a2.31,2.31,0,0,0-.32,1H25.76A12.3,12.3,0,0,0,20,19m11.91,8.32-7.56-15H41.69l-9.82,15h0M33.64.13a1.25,1.25,0,0,0-1.12,1.3,1.24,1.24,0,0,0,1.29,1.14c6.92-.65,8,2.78,8.37,5.55l.16.81a1.46,1.46,0,0,0,.16.81H23.18l-.8-1.62h.8a1.8,1.8,0,0,0,0-3.59H18a1.8,1.8,0,0,0,0,3.59h1.61v.16l1.29,2.77-3.38,6.68a12.23,12.23,0,0,0-4.83-1,12.71,12.71,0,1,0,0,25.42A12.83,12.83,0,0,0,25.27,31.74H30.1a1.71,1.71,0,0,0,1.29.33,2.49,2.49,0,0,0,2.42-2.44,2,2,0,0,0-.17-1L43,14.31c.48,1.63.64,3.26,1.13,4.89a12.52,12.52,0,1,0,7.24-2.45,11.39,11.39,0,0,0-5.15,1.14,41.9,41.9,0,0,1-.8-4.4,3.44,3.44,0,0,0,2.25.82c1.77,0,1.77-6.52,0-6.52a3.57,3.57,0,0,0-2.74,1.47V8.6l-.16-.81C44.31,4.23,42.41,0,35.77,0a18.12,18.12,0,0,0-2.13.13" fill="none"/></clipPath></defs><title>Artwork 3</title><g id="Layer_2" data-name="Layer 2"><g id="Layer_1-2" data-name="Layer 1"><g id="Artwork_3" data-name="Artwork 3"><g clip-path="url(#clip-path)"><g clip-path="url(#clip-path-2)"><rect width="74.07" height="52.17" fill="#052951"/></g></g></g></g></g></svg>
