<svg xmlns="http://www.w3.org/2000/svg" xmlns:xlink="http://www.w3.org/1999/xlink" viewBox="0 0 36 57"><defs><clipPath id="clip-path" transform="translate(5 5)"><rect width="26" height="47" fill="none"/></clipPath><clipPath id="clip-path-2" transform="translate(5 5)"><path d="M9.75,42.74v-.6a.5.5,0,0,1,.5-.5h5.5a.5.5,0,0,1,.5.5v.6a.5.5,0,0,1-.5.5h-5.5a.5.5,0,0,1-.5-.5M2.44,6.41H23.56V37.63H2.44Zm9.5-3.15a1.22,1.22,0,1,1,1.22,1.21,1.21,1.21,0,0,1-1.22-1.21M2,0A2,2,0,0,0,0,2V45a2,2,0,0,0,2,2H24a2,2,0,0,0,2-2V2a2,2,0,0,0-2-2Z" fill="none"/></clipPath></defs><title>Artwork 1</title><g id="Layer_2" data-name="Layer 2"><g id="Layer_1-2" data-name="Layer 1"><g id="Artwork_1" data-name="Artwork 1"><g clip-path="url(#clip-path)"><g clip-path="url(#clip-path-2)"><rect width="36" height="57" fill="#052951"/></g></g></g></g></g></svg>
