<svg xmlns="http://www.w3.org/2000/svg" xmlns:xlink="http://www.w3.org/1999/xlink" viewBox="0 0 50 57"><defs><clipPath id="clip-path" transform="translate(-195 -95)"><rect x="200" y="100" width="40" height="47" fill="none"/></clipPath><clipPath id="clip-path-2" transform="translate(-195 -95)"><path d="M217,143.54v-.6a.5.5,0,0,1,.5-.5h6.38a.5.5,0,0,1,.5.5v.6a.5.5,0,0,1-.5.5h-6.38a.5.5,0,0,1-.5-.5M202.43,104.8h35.14v35H202.43Zm17-2.36a1,1,0,1,1,1,1,1,1,0,0,1-1-1M202,100a2,2,0,0,0-2,2v43a2,2,0,0,0,2,2h36a2,2,0,0,0,2-2V102a2,2,0,0,0-2-2Z" fill="none"/></clipPath></defs><title>Artwork 4</title><g id="Layer_2" data-name="Layer 2"><g id="Layer_1-2" data-name="Layer 1"><g id="Artwork_4" data-name="Artwork 4"><g clip-path="url(#clip-path)"><g clip-path="url(#clip-path-2)"><rect width="50" height="57" fill="#052951"/></g></g></g></g></g></svg>
